<?xml version="1.0" encoding="UTF-8" standalone="no"?>
<svg
   xmlns:dc="http://purl.org/dc/elements/1.1/"
   xmlns:cc="http://creativecommons.org/ns#"
   xmlns:rdf="http://www.w3.org/1999/02/22-rdf-syntax-ns#"
   xmlns:svg="http://www.w3.org/2000/svg"
   xmlns="http://www.w3.org/2000/svg"
   xmlns:sodipodi="http://sodipodi.sourceforge.net/DTD/sodipodi-0.dtd"
   xmlns:inkscape="http://www.inkscape.org/namespaces/inkscape"
   sodipodi:docname="branch.svg"
   inkscape:version="1.0 (4035a4fb49, 2020-05-01)"
   id="svg14640"
   version="1.1"
   viewBox="0 0 158.04808 228.97118"
   height="228.97118mm"
   width="158.04808mm">
  <defs
     id="defs14634" />
  <sodipodi:namedview
     inkscape:window-maximized="1"
     inkscape:window-y="-8"
     inkscape:window-x="4792"
     inkscape:window-height="1272"
     inkscape:window-width="2400"
     showgrid="false"
     inkscape:document-rotation="0"
     inkscape:current-layer="layer1"
     inkscape:document-units="mm"
     inkscape:cy="505.42409"
     inkscape:cx="259.66913"
     inkscape:zoom="0.44848837"
     inkscape:pageshadow="2"
     inkscape:pageopacity="0.0"
     borderopacity="1.0"
     bordercolor="#666666"
     pagecolor="#ffffff"
     id="base" />
  <metadata
     id="metadata14637">
    <rdf:RDF>
      <cc:Work
         rdf:about="">
        <dc:format>image/svg+xml</dc:format>
        <dc:type
           rdf:resource="http://purl.org/dc/dcmitype/StillImage" />
        <dc:title></dc:title>
      </cc:Work>
    </rdf:RDF>
  </metadata>
  <g
     transform="translate(-37.12921,-14.439877)"
     id="layer1"
     inkscape:groupmode="layer"
     inkscape:label="Layer 1">
    <g
       transform="matrix(-3.3782867,2.9108835,-2.9108835,-3.3782867,745.33475,253.46862)"
       id="g15294">
      <path
         id="rect834"
         style="fill:#784421;stroke:#0054ca;stroke-width:0;stroke-opacity:0"
         d="m 75.858404,135.60469 c 1.400124,-2.08582 2.81103,-4.08524 4.293833,-5.95749 0.896556,-1.13201 1.71335,-2.32802 2.781993,-3.24758 2.205092,-1.89745 -14.979191,-7.88604 -14.979191,-7.88604 -2.7e-5,4e-5 13.000693,1.11393 17.247945,5.36666 0.709371,0.71029 2.37144,-0.88364 3.119483,-1.53609 0.683917,-0.59659 1.310355,-1.13979 1.889939,-1.63989 0.370994,-0.32009 -5.272351,-4.07675 -10.23252,-7.41535 -3.923584,-2.64089 -8.420369,-3.10885 -8.420369,-3.10885 0,0 3.326277,-0.15235 6.880114,0.96115 0.788696,0.24712 2.168408,1.78957 2.365857,0.94391 0.965512,-4.13512 3.708005,-8.11586 3.592277,-6.70163 0.241429,-0.27907 -2.874755,5.76975 -1.203807,7.26326 0.885514,0.79147 3.50634,2.69161 4.454598,3.19618 3.005588,1.59928 5.624484,2.247 5.769376,2.12456 3.122627,-2.63876 2.483132,-0.89044 7.273528,-5.23433 0.71953,-4.13666 -0.55141,-8.07426 2.67031,-12.46114 -1.28339,7.23676 -0.68992,8.84291 -0.34842,11.20499 l 11.95677,-6.46867 c 0,0 -25.089091,15.67241 -36.278286,32.82152 -2.167888,-0.89692 -1.935816,-0.77024 -2.83343,-2.22517 z"
         sodipodi:nodetypes="csscsssscsscssscccccc" />
      <path
         sodipodi:nodetypes="cccc"
         d="m 76.778387,136.22942 c 9.329904,-10.33114 26.827663,-25.87876 38.191733,-31.22108 0,0 -25.089091,15.67241 -36.278286,32.82152 -2.167888,-0.89692 -1.015833,-0.14551 -1.913447,-1.60044 z"
         style="fill:#64391c;fill-opacity:1;stroke:#0054ca;stroke-width:0;stroke-opacity:0"
         id="path837" />
      <g
         id="g846"
         transform="matrix(0.61087032,-0.62197929,0.62197929,0.61087032,-23.04801,88.187261)">
        <path
           sodipodi:nodetypes="sssss"
           d="m 80.276095,126.26295 c 0.10559,1.20227 0.152186,4.40071 -0.913845,4.96655 -1.047968,0.55625 -2.784001,-2.80747 -3.218326,-3.93351 -0.363634,-0.94276 -0.08133,-4.48413 0.834382,-4.80763 0.774379,-0.27356 3.129923,1.86323 3.297789,3.77459 z"
           style="fill:#338000;fill-opacity:1;stroke:#0054ca;stroke-width:0;stroke-opacity:0"
           id="path839" />
        <path
           id="path842"
           style="fill:#3d9a00;fill-opacity:1;stroke:#0054ca;stroke-width:0;stroke-opacity:0"
           d="m 80.276095,126.26295 c 0.10559,1.20227 0.152186,4.40071 -0.913845,4.96655 -0.432896,-0.23389 -1.943925,-8.02274 -2.383944,-8.74114 0.774379,-0.27356 3.129923,1.86323 3.297789,3.77459 z"
           sodipodi:nodetypes="sccs" />
      </g>
      <g
         transform="matrix(0.5617594,0.36405219,-0.36405219,0.5617594,115.04563,4.1546808)"
         id="g852">
        <path
           id="path848"
           style="fill:#338000;fill-opacity:1;stroke:#0054ca;stroke-width:0;stroke-opacity:0"
           d="m 80.276095,126.26295 c 0.10559,1.20227 0.152186,4.40071 -0.913845,4.96655 -1.047968,0.55625 -2.784001,-2.80747 -3.218326,-3.93351 -0.363634,-0.94276 -0.08133,-4.48413 0.834382,-4.80763 0.774379,-0.27356 3.129923,1.86323 3.297789,3.77459 z"
           sodipodi:nodetypes="sssss" />
        <path
           sodipodi:nodetypes="sccs"
           d="m 80.276095,126.26295 c 0.10559,1.20227 0.152186,4.40071 -0.913845,4.96655 -0.432896,-0.23389 -1.943925,-8.02274 -2.383944,-8.74114 0.774379,-0.27356 3.129923,1.86323 3.297789,3.77459 z"
           style="fill:#3d9a00;fill-opacity:1;stroke:#0054ca;stroke-width:0;stroke-opacity:0"
           id="path850" />
      </g>
      <g
         id="g858"
         transform="matrix(0.73922432,0.0488678,-0.0488678,0.73922432,55.551076,8.0367742)">
        <path
           sodipodi:nodetypes="sssss"
           d="m 80.276095,126.26295 c 0.10559,1.20227 0.152186,4.40071 -0.913845,4.96655 -1.047968,0.55625 -2.784001,-2.80747 -3.218326,-3.93351 -0.363634,-0.94276 -0.08133,-4.48413 0.834382,-4.80763 0.774379,-0.27356 3.129923,1.86323 3.297789,3.77459 z"
           style="fill:#338000;fill-opacity:1;stroke:#0054ca;stroke-width:0;stroke-opacity:0"
           id="path854" />
        <path
           id="path856"
           style="fill:#3d9a00;fill-opacity:1;stroke:#0054ca;stroke-width:0;stroke-opacity:0"
           d="m 80.276095,126.26295 c 0.10559,1.20227 0.152186,4.40071 -0.913845,4.96655 -0.432896,-0.23389 -1.943925,-8.02274 -2.383944,-8.74114 0.774379,-0.27356 3.129923,1.86323 3.297789,3.77459 z"
           sodipodi:nodetypes="sccs" />
      </g>
      <g
         transform="matrix(0.28822745,0.46898178,-0.46898178,0.28822745,141.92352,26.128403)"
         id="g864">
        <path
           id="path860"
           style="fill:#338000;fill-opacity:1;stroke:#0054ca;stroke-width:0;stroke-opacity:0"
           d="m 80.276095,126.26295 c 0.10559,1.20227 0.152186,4.40071 -0.913845,4.96655 -1.047968,0.55625 -2.784001,-2.80747 -3.218326,-3.93351 -0.363634,-0.94276 -0.08133,-4.48413 0.834382,-4.80763 0.774379,-0.27356 3.129923,1.86323 3.297789,3.77459 z"
           sodipodi:nodetypes="sssss" />
        <path
           sodipodi:nodetypes="sccs"
           d="m 80.276095,126.26295 c 0.10559,1.20227 0.152186,4.40071 -0.913845,4.96655 -0.432896,-0.23389 -1.943925,-8.02274 -2.383944,-8.74114 0.774379,-0.27356 3.129923,1.86323 3.297789,3.77459 z"
           style="fill:#3d9a00;fill-opacity:1;stroke:#0054ca;stroke-width:0;stroke-opacity:0"
           id="path862" />
      </g>
      <g
         id="g870"
         transform="matrix(0.13701973,0.53314592,-0.53314592,0.13701973,141.91393,49.470938)">
        <path
           sodipodi:nodetypes="sssss"
           d="m 80.276095,126.26295 c 0.10559,1.20227 0.152186,4.40071 -0.913845,4.96655 -1.047968,0.55625 -2.784001,-2.80747 -3.218326,-3.93351 -0.363634,-0.94276 -0.08133,-4.48413 0.834382,-4.80763 0.774379,-0.27356 3.129923,1.86323 3.297789,3.77459 z"
           style="fill:#338000;fill-opacity:1;stroke:#0054ca;stroke-width:0;stroke-opacity:0"
           id="path866" />
        <path
           id="path868"
           style="fill:#3d9a00;fill-opacity:1;stroke:#0054ca;stroke-width:0;stroke-opacity:0"
           d="m 80.276095,126.26295 c 0.10559,1.20227 0.152186,4.40071 -0.913845,4.96655 -0.432896,-0.23389 -1.943925,-8.02274 -2.383944,-8.74114 0.774379,-0.27356 3.129923,1.86323 3.297789,3.77459 z"
           sodipodi:nodetypes="sccs" />
      </g>
      <g
         transform="matrix(0.54661775,-0.06502313,0.06502313,0.54661775,32.351227,38.801729)"
         id="g876">
        <path
           id="path872"
           style="fill:#338000;fill-opacity:1;stroke:#0054ca;stroke-width:0;stroke-opacity:0"
           d="m 80.276095,126.26295 c 0.10559,1.20227 0.152186,4.40071 -0.913845,4.96655 -1.047968,0.55625 -2.784001,-2.80747 -3.218326,-3.93351 -0.363634,-0.94276 -0.08133,-4.48413 0.834382,-4.80763 0.774379,-0.27356 3.129923,1.86323 3.297789,3.77459 z"
           sodipodi:nodetypes="sssss" />
        <path
           sodipodi:nodetypes="sccs"
           d="m 80.276095,126.26295 c 0.10559,1.20227 0.152186,4.40071 -0.913845,4.96655 -0.432896,-0.23389 -1.943925,-8.02274 -2.383944,-8.74114 0.774379,-0.27356 3.129923,1.86323 3.297789,3.77459 z"
           style="fill:#3d9a00;fill-opacity:1;stroke:#0054ca;stroke-width:0;stroke-opacity:0"
           id="path874" />
      </g>
      <g
         id="g882"
         transform="matrix(0.44766344,-0.32033798,0.32033798,0.44766344,-3.0953019,76.887798)">
        <path
           sodipodi:nodetypes="sssss"
           d="m 80.276095,126.26295 c 0.10559,1.20227 0.152186,4.40071 -0.913845,4.96655 -1.047968,0.55625 -2.784001,-2.80747 -3.218326,-3.93351 -0.363634,-0.94276 -0.08133,-4.48413 0.834382,-4.80763 0.774379,-0.27356 3.129923,1.86323 3.297789,3.77459 z"
           style="fill:#338000;fill-opacity:1;stroke:#0054ca;stroke-width:0;stroke-opacity:0"
           id="path878" />
        <path
           id="path880"
           style="fill:#3d9a00;fill-opacity:1;stroke:#0054ca;stroke-width:0;stroke-opacity:0"
           d="m 80.276095,126.26295 c 0.10559,1.20227 0.152186,4.40071 -0.913845,4.96655 -0.432896,-0.23389 -1.943925,-8.02274 -2.383944,-8.74114 0.774379,-0.27356 3.129923,1.86323 3.297789,3.77459 z"
           sodipodi:nodetypes="sccs" />
      </g>
      <g
         transform="matrix(3.3103633e-4,-0.5504715,0.5504715,3.3103633e-4,4.2660786,155.09537)"
         id="g888">
        <path
           id="path884"
           style="fill:#338000;fill-opacity:1;stroke:#0054ca;stroke-width:0;stroke-opacity:0"
           d="m 80.276095,126.26295 c 0.10559,1.20227 0.152186,4.40071 -0.913845,4.96655 -1.047968,0.55625 -2.784001,-2.80747 -3.218326,-3.93351 -0.363634,-0.94276 -0.08133,-4.48413 0.834382,-4.80763 0.774379,-0.27356 3.129923,1.86323 3.297789,3.77459 z"
           sodipodi:nodetypes="sssss" />
        <path
           sodipodi:nodetypes="sccs"
           d="m 80.276095,126.26295 c 0.10559,1.20227 0.152186,4.40071 -0.913845,4.96655 -0.432896,-0.23389 -1.943925,-8.02274 -2.383944,-8.74114 0.774379,-0.27356 3.129923,1.86323 3.297789,3.77459 z"
           style="fill:#3d9a00;fill-opacity:1;stroke:#0054ca;stroke-width:0;stroke-opacity:0"
           id="path886" />
      </g>
      <g
         id="g894"
         transform="matrix(4.8730197e-4,-0.81032309,0.81032309,4.8730197e-4,-37.399743,182.82294)">
        <path
           sodipodi:nodetypes="sssss"
           d="m 80.276095,126.26295 c 0.10559,1.20227 0.152186,4.40071 -0.913845,4.96655 -1.047968,0.55625 -2.784001,-2.80747 -3.218326,-3.93351 -0.363634,-0.94276 -0.08133,-4.48413 0.834382,-4.80763 0.774379,-0.27356 3.129923,1.86323 3.297789,3.77459 z"
           style="fill:#338000;fill-opacity:1;stroke:#0054ca;stroke-width:0;stroke-opacity:0"
           id="path890" />
        <path
           id="path892"
           style="fill:#3d9a00;fill-opacity:1;stroke:#0054ca;stroke-width:0;stroke-opacity:0"
           d="m 80.276095,126.26295 c 0.10559,1.20227 0.152186,4.40071 -0.913845,4.96655 -0.432896,-0.23389 -1.943925,-8.02274 -2.383944,-8.74114 0.774379,-0.27356 3.129923,1.86323 3.297789,3.77459 z"
           sodipodi:nodetypes="sccs" />
      </g>
    </g>
  </g>
</svg>
