<?xml version="1.0" encoding="UTF-8" standalone="no"?>
<svg
   xmlns:dc="http://purl.org/dc/elements/1.1/"
   xmlns:cc="http://creativecommons.org/ns#"
   xmlns:rdf="http://www.w3.org/1999/02/22-rdf-syntax-ns#"
   xmlns:svg="http://www.w3.org/2000/svg"
   xmlns="http://www.w3.org/2000/svg"
   xmlns:xlink="http://www.w3.org/1999/xlink"
   xmlns:sodipodi="http://sodipodi.sourceforge.net/DTD/sodipodi-0.dtd"
   xmlns:inkscape="http://www.inkscape.org/namespaces/inkscape"
   sodipodi:docname="campfire.svg"
   inkscape:version="1.0 (4035a4fb49, 2020-05-01)"
   id="svg2920"
   version="1.1"
   viewBox="0 0 170.68159 160.92354"
   height="160.92354mm"
   width="170.68159mm">
  <defs
     id="defs2914">
    <clipPath
       id="clipPath9856"
       clipPathUnits="userSpaceOnUse">
      <path
         style="clip-rule:evenodd"
         inkscape:connector-curvature="0"
         id="path9858"
         d="m 373.7449,1109.8809 c 0,5.25 0,10.5 0,15.7501 h 14.8782 l 19.8417,-0.6588 3.8863,0.9587 12.3284,-0.2999 5.2781,-1.4998 16.6782,1.4998 h 14.5781 l 12.0523,-1.1999 2.526,1.1999 h 14.578 c 0,-5.2501 0,-10.5001 0,-15.7501 h -14.5783 -14.578 -14.5783 l -14.5781,-0.15 -3.6416,0.9 -10.9367,-0.9 -14.578,0.15 -13.0782,0.4498 z" />
    </clipPath>
    <clipPath
       id="clipPath9866"
       clipPathUnits="userSpaceOnUse">
      <path
         inkscape:connector-curvature="0"
         id="path9868"
         d="m 362.0197,1111.496 h 140.6474 v 12.949 H 362.0197 Z" />
    </clipPath>
    <clipPath
       id="clipPath9890"
       clipPathUnits="userSpaceOnUse">
      <path
         style="clip-rule:evenodd"
         inkscape:connector-curvature="0"
         id="path9892"
         d="m 373.7449,1109.8809 c 0,5.25 0,10.5 0,15.7501 h 14.8782 l 19.8417,-0.6588 3.8863,0.9587 12.3284,-0.2999 5.2781,-1.4998 16.6782,1.4998 h 14.5781 l 12.0523,-1.1999 2.526,1.1999 h 14.578 c 0,-5.2501 0,-10.5001 0,-15.7501 h -14.5783 -14.578 -14.5783 l -14.5781,-0.15 -3.6416,0.9 -10.9367,-0.9 -14.578,0.15 -13.0782,0.4498 z" />
    </clipPath>
    <clipPath
       id="clipPath9900"
       clipPathUnits="userSpaceOnUse">
      <path
         inkscape:connector-curvature="0"
         id="path9902"
         d="m 362.0197,1111.496 h 140.6474 v 12.949 H 362.0197 Z" />
    </clipPath>
    <clipPath
       id="clipPath9566"
       clipPathUnits="userSpaceOnUse">
      <path
         style="clip-rule:evenodd"
         inkscape:connector-curvature="0"
         id="path9568"
         d="m 396.0451,980.418 c -5.2501,0 -10.5001,0 -15.7502,0 v 14.8783 l 0.6588,19.8416 -0.9587,3.8863 0.2999,12.3285 1.4998,5.2781 -1.4998,16.6782 v 14.578 l 1.1999,12.0523 -1.1999,2.526 v 14.578 c 5.2501,0 10.5001,0 15.7502,0 v -14.5783 -14.578 -14.5783 l 0.1499,-14.578 -0.9,-3.6417 0.9,-10.9366 -0.1499,-14.578 -0.4499,-13.0782 z" />
    </clipPath>
    <linearGradient
       id="linearGradient9570"
       spreadMethod="pad"
       gradientUnits="userSpaceOnUse"
       y2="974.27002"
       x2="389.14999"
       y1="1079.87"
       x1="389.14999">
      <stop
         id="stop9572"
         offset="0"
         style="stop-opacity:1;stop-color:#8f5c38" />
      <stop
         id="stop9574"
         offset="1"
         style="stop-opacity:1;stop-color:#5c2913" />
    </linearGradient>
    <clipPath
       id="clipPath9582"
       clipPathUnits="userSpaceOnUse">
      <path
         style="clip-rule:evenodd"
         inkscape:connector-curvature="0"
         id="path9584"
         d="m 396.0451,980.418 c -5.2501,0 -10.5001,0 -15.7502,0 v 14.8783 l 0.6588,19.8416 -0.9587,3.8863 0.2999,12.3285 1.4998,5.2781 -1.4998,16.6782 v 14.578 l 1.1999,12.0523 -1.1999,2.526 v 14.578 c 5.2501,0 10.5001,0 15.7502,0 v -14.5783 -14.578 -14.5783 l 0.1499,-14.578 -0.9,-3.6417 0.9,-10.9366 -0.1499,-14.578 -0.4499,-13.0782 z" />
    </clipPath>
    <clipPath
       id="clipPath9592"
       clipPathUnits="userSpaceOnUse">
      <path
         inkscape:connector-curvature="0"
         id="path9594"
         d="m 381.4812,968.6928 h 12.949 v 140.6475 h -12.949 z" />
    </clipPath>
    <clipPath
       id="clipPath10124"
       clipPathUnits="userSpaceOnUse">
      <path
         style="clip-rule:evenodd"
         inkscape:connector-curvature="0"
         id="path10126"
         d="m 426.2919,1096.8168 h 10.1999 v -8.2502 -8.25 l -1.05,-14.25 1.05,-2.2499 v -8.2499 -8.25 -8.2499 -8.25 h -10.1999 v 8.2502 l 1.0499,3.75 -1.0499,12.75 v 8.2499 8.25 8.2499 l 0.6001,3.3001 z" />
    </clipPath>
    <linearGradient
       id="linearGradient10128"
       spreadMethod="pad"
       gradientUnits="userSpaceOnUse"
       y2="961.21997"
       x2="432.60999"
       y1="1085.6801"
       x1="432.60999">
      <stop
         id="stop10130"
         offset="0"
         style="stop-opacity:1;stop-color:#8f5c38" />
      <stop
         id="stop10132"
         offset="1"
         style="stop-opacity:1;stop-color:#5c2913" />
    </linearGradient>
    <clipPath
       id="clipPath10140"
       clipPathUnits="userSpaceOnUse">
      <path
         style="clip-rule:evenodd"
         inkscape:connector-curvature="0"
         id="path10142"
         d="m 426.2919,1096.8168 h 10.1999 v -8.2502 -8.25 l -1.05,-14.25 1.05,-2.2499 v -8.2499 -8.25 -8.2499 -8.25 h -10.1999 v 8.2502 l 1.0499,3.75 -1.0499,12.75 v 8.2499 8.25 8.2499 l 0.6001,3.3001 z" />
    </clipPath>
    <clipPath
       id="clipPath10150"
       clipPathUnits="userSpaceOnUse">
      <path
         inkscape:connector-curvature="0"
         id="path10152"
         d="m 427.6174,1018.0933 h 12.9489 v 140.6475 h -12.9489 z" />
    </clipPath>
    <linearGradient
       spreadMethod="pad"
       y2="961.21997"
       x2="432.60999"
       y1="1085.6801"
       x1="432.60999"
       gradientUnits="userSpaceOnUse"
       id="linearGradient11388"
       xlink:href="#linearGradient10128"
       inkscape:collect="always" />
    <linearGradient
       spreadMethod="pad"
       y2="961.21997"
       x2="432.60999"
       y1="1085.6801"
       x1="432.60999"
       gradientUnits="userSpaceOnUse"
       id="linearGradient11418"
       xlink:href="#linearGradient10128"
       inkscape:collect="always" />
    <linearGradient
       spreadMethod="pad"
       y2="961.21997"
       x2="432.60999"
       y1="1085.6801"
       x1="432.60999"
       gradientUnits="userSpaceOnUse"
       id="linearGradient11448"
       xlink:href="#linearGradient10128"
       inkscape:collect="always" />
    <linearGradient
       spreadMethod="pad"
       y2="961.21997"
       x2="432.60999"
       y1="1085.6801"
       x1="432.60999"
       gradientUnits="userSpaceOnUse"
       id="linearGradient11535"
       xlink:href="#linearGradient10128"
       inkscape:collect="always" />
  </defs>
  <sodipodi:namedview
     inkscape:window-maximized="1"
     inkscape:window-y="-8"
     inkscape:window-x="4792"
     inkscape:window-height="1272"
     inkscape:window-width="2400"
     inkscape:snap-global="false"
     showgrid="false"
     inkscape:document-rotation="0"
     inkscape:current-layer="layer1"
     inkscape:document-units="mm"
     inkscape:cy="248.56332"
     inkscape:cx="-121.72692"
     inkscape:zoom="0.74112388"
     inkscape:pageshadow="2"
     inkscape:pageopacity="0.0"
     borderopacity="1.0"
     bordercolor="#666666"
     pagecolor="#ffffff"
     id="base" />
  <metadata
     id="metadata2917">
    <rdf:RDF>
      <cc:Work
         rdf:about="">
        <dc:format>image/svg+xml</dc:format>
        <dc:type
           rdf:resource="http://purl.org/dc/dcmitype/StillImage" />
        <dc:title></dc:title>
      </cc:Work>
    </rdf:RDF>
  </metadata>
  <g
     transform="translate(-15.854317,-82.845295)"
     id="layer1"
     inkscape:groupmode="layer"
     inkscape:label="Layer 1">
    <g
       id="g11533"
       transform="translate(-120.27368,-66.078066)">
      <path
         sodipodi:nodetypes="sssssssss"
         d="m 148.82587,241.44581 c 0,4.64484 -0.67037,4.46201 2.02943,7.50592 2.69982,3.04391 6.42957,4.34154 10.54934,4.34154 4.11978,0 8.72713,-1.8827 11.42694,-4.9266 2.69981,-3.04391 2.6145,-1.98348 2.6145,-6.62833 0,-4.64485 1.54796,-9.14248 -1.15185,-12.18639 -2.69982,-3.04391 -6.42957,0.63146 -10.54934,0.63146 -4.11978,0 -8.72712,-0.16501 -11.42693,2.8789 -2.69981,3.0439 -3.49209,3.73865 -3.49209,8.3835 z"
         style="fill:#808080;fill-opacity:1;stroke:#0054ca;stroke-width:0;stroke-opacity:0"
         id="path11529" />
      <path
         id="path11531"
         style="fill:#999999;fill-opacity:1;stroke:#0054ca;stroke-width:0;stroke-opacity:0"
         d="m 149.6635,240.05242 c 0,4.64484 -2.10614,2.07938 0.59366,5.12329 2.69982,3.04391 4.38186,4.63408 8.50163,4.63408 4.11978,0 8.72713,-1.8827 11.42694,-4.9266 2.69981,-3.04391 2.6145,0.10665 2.6145,-4.53824 0,-4.64484 1.54796,-7.74909 -1.15185,-10.793 -2.69982,-3.04391 -6.42957,0.63146 -10.54934,0.63146 -4.11978,0 -6.63702,-0.16501 -9.33684,2.8789 -2.69981,3.0439 -2.0987,2.34526 -2.0987,6.99011 z"
         sodipodi:nodetypes="sssssssss" />
    </g>
    <g
       id="g11521"
       transform="matrix(-1,0,0,1,272.29849,-95.349491)">
      <path
         sodipodi:nodetypes="sssssssss"
         d="m 133.06055,269.71271 c 0,3.06984 -2.2206,5.84906 -5.81082,7.86082 -3.59021,2.01176 -8.55005,0.86165 -14.02854,0.86165 -5.47849,0 -10.43833,1.15011 -14.028544,-0.86165 -3.590217,-2.01176 -0.337887,-3.59378 -0.337888,-6.66362 -2e-6,-3.06984 -1.542045,-6.87524 2.048172,-8.887 3.59022,-2.01176 10.08932,-2.57194 15.56781,-2.57195 5.47849,0 4.79438,7.74341 8.38459,9.75517 3.59022,2.01176 8.20522,-2.56326 8.20522,0.50658 z"
         style="fill:#4d4d4d;fill-opacity:1;stroke:#0054ca;stroke-width:0;stroke-opacity:0"
         id="path11517" />
      <path
         id="path11519"
         style="fill:#5d5d5d;fill-opacity:1;stroke:#0054ca;stroke-width:0;stroke-opacity:0"
         d="m 131.01333,270.67073 c 0,3.06984 -2.29005,2.77437 -5.88027,4.78613 -3.59021,2.01176 -6.43338,0.86165 -11.91187,0.86165 -5.47849,0 -10.43833,1.15011 -14.028544,-0.86165 -3.590217,-2.01176 -0.337887,-1.47711 -0.337888,-4.54695 -2e-6,-3.06984 -1.542045,-6.87524 2.048172,-8.887 3.59022,-2.01176 10.0894,-2.60119 15.56781,-2.57195 5.50788,0.0294 3.2943,8.36 6.26792,9.75517 3.72574,1.74805 8.27467,-1.60524 8.27467,1.4646 z"
         sodipodi:nodetypes="sssssssss" />
    </g>
    <g
       id="g11509"
       transform="translate(10.143563,-51.877078)">
      <path
         sodipodi:nodetypes="sssssssss"
         d="m 148.82587,241.44581 c 0,4.64484 -0.67037,4.46201 2.02943,7.50592 2.69982,3.04391 6.42957,4.34154 10.54934,4.34154 4.11978,0 8.72713,-1.8827 11.42694,-4.9266 2.69981,-3.04391 2.6145,-1.98348 2.6145,-6.62833 0,-4.64485 1.54796,-9.14248 -1.15185,-12.18639 -2.69982,-3.04391 -6.42957,0.63146 -10.54934,0.63146 -4.11978,0 -8.72712,-0.16501 -11.42693,2.8789 -2.69981,3.0439 -3.49209,3.73865 -3.49209,8.3835 z"
         style="fill:#808080;fill-opacity:1;stroke:#0054ca;stroke-width:0;stroke-opacity:0"
         id="path11505" />
      <path
         id="path11507"
         style="fill:#999999;fill-opacity:1;stroke:#0054ca;stroke-width:0;stroke-opacity:0"
         d="m 149.6635,240.05242 c 0,4.64484 -2.10614,2.07938 0.59366,5.12329 2.69982,3.04391 4.38186,4.63408 8.50163,4.63408 4.11978,0 8.72713,-1.8827 11.42694,-4.9266 2.69981,-3.04391 2.6145,0.10665 2.6145,-4.53824 0,-4.64484 1.54796,-7.74909 -1.15185,-10.793 -2.69982,-3.04391 -6.42957,0.63146 -10.54934,0.63146 -4.11978,0 -6.63702,-0.16501 -9.33684,2.8789 -2.69981,3.0439 -2.0987,2.34526 -2.0987,6.99011 z"
         sodipodi:nodetypes="sssssssss" />
    </g>
    <path
       sodipodi:nodetypes="cccc"
       d="m 102.12332,101.22751 c 22.34921,31.94385 43.08609,57.25834 61.51289,97.04702 -40.22708,22.42449 -80.564418,26.05085 -117.650853,0.29862 12.801263,-35.23554 30.597416,-62.11011 56.137963,-97.34564 z"
       style="fill:#3d2311;fill-opacity:1;stroke:#0054ca;stroke-width:0;stroke-opacity:0"
       id="rect3483" />
    <g
       style="display:inline"
       id="g11416"
       transform="matrix(-0.54051109,-0.72764733,-0.72764733,0.54051109,523.69819,623.42175)">
      <g
         transform="matrix(1.25,0,0,-1.25,136.63325,1411.228)"
         id="g11394">
        <g
           clip-path="url(#clipPath10124)"
           id="g11392">
          <path
             inkscape:connector-curvature="0"
             id="path11390"
             style="fill:url(#linearGradient11418);fill-rule:evenodd;stroke:none"
             d="m 426.2919,1096.8168 h 10.1999 v -8.2502 -8.25 l -1.05,-14.25 1.05,-2.2499 v -8.2499 -8.25 -8.2499 -8.25 h -10.1999 v 8.2502 l 1.0499,3.75 -1.0499,12.75 v 8.2499 8.25 8.2499 l 0.6001,3.3001 z" />
        </g>
      </g>
      <g
         transform="matrix(1.25,0,0,-1.25,136.63325,1411.228)"
         id="g11412">
        <g
           clip-path="url(#clipPath10140)"
           id="g11410">
          <g
             id="g11408">
            <g
               id="g11406">
              <g
                 id="g11396" />
              <g
                 id="g11404">
                <g
                   style="opacity:0.25"
                   id="g11402"
                   clip-path="url(#clipPath10150)">
                  <g
                     id="g11400"
                     transform="translate(427.6174,1018.0933)">
                    <path
                       inkscape:connector-curvature="0"
                       id="path11398"
                       style="fill:none;stroke:#cc9933;stroke-width:0.7087;stroke-linecap:butt;stroke-linejoin:miter;stroke-miterlimit:2.61313;stroke-dasharray:none;stroke-opacity:1"
                       d="m 1.6662,0.199 c 0.0374,1.1775 1.5605,3.2944 1.1704,15.139 -0.5173,15.715 -4.9833,20.7417 -0.513,38.9092 5.4479,22.1408 -6.0112,25.1906 0.2732,42.9375 1.8921,5.3427 -2.2674,18.6307 0.7265,30.6374 0.2844,1.1393 0.2166,8.8472 -0.9742,9.0964 l -0.5035,0.1556 M 4.1037,0.0113 C 4.1411,1.1889 7.5393,3.8682 7.1493,15.713 6.6317,31.428 0.2908,35.8917 4.7611,54.0595 c 5.4482,22.1409 -6.0112,25.1907 0.2732,42.9375 1.8922,5.3428 -2.2674,18.6307 0.7266,30.6375 0.2843,1.1392 0.2165,8.8472 -0.9743,9.0963 l -0.5035,0.1557 m 6.5736,3.7496 C 10.8193,139.4586 7.4211,136.779 7.8111,124.9345 8.3285,109.2195 15.4253,106.9041 11.3244,88.6504 9.3572,79.8948 6.0446,79.6476 7.3636,74.2768 9.2648,66.5357 12.958,64.4411 7.6759,51.1506 5.5831,45.885 12.1932,25.0191 9.1996,13.013 8.9158,11.874 8.983,4.1658 10.1738,3.9166 L 10.6773,3.761 M 5.0414,82.4176 c 2.1093,3.3103 -1.1942,6.6988 2.6892,14.5313 1.2569,2.535 1.0605,5.4966 0.5143,-1.3125 C 7.7357,89.2939 7.3006,85.9632 5.0414,82.4176 Z" />
                  </g>
                </g>
              </g>
            </g>
          </g>
        </g>
      </g>
      <path
         inkscape:connector-curvature="0"
         id="path11414"
         style="fill:none;stroke:#3c1e00;stroke-width:1.77163;stroke-linecap:butt;stroke-linejoin:miter;stroke-miterlimit:2.61313;stroke-dasharray:none;stroke-opacity:1"
         d="m 669.49815,40.207009 h 12.7498 v 10.31275 10.3125 l -1.3125,17.8125 1.3125,2.81237 v 10.31238 10.312501 10.31238 10.3125 h -12.7498 v -10.31275 l 1.3123,-4.6875 -1.3123,-15.937501 v -10.31238 -10.3125 -10.31237 l 0.7501,-4.12513 z" />
    </g>
    <g
       transform="matrix(0.78604476,-0.45139397,0.45139397,0.78604476,-471.29378,422.9843)"
       id="g11446"
       style="display:inline">
      <g
         id="g11424"
         transform="matrix(1.25,0,0,-1.25,136.63325,1411.228)">
        <g
           id="g11422"
           clip-path="url(#clipPath10124)">
          <path
             d="m 426.2919,1096.8168 h 10.1999 v -8.2502 -8.25 l -1.05,-14.25 1.05,-2.2499 v -8.2499 -8.25 -8.2499 -8.25 h -10.1999 v 8.2502 l 1.0499,3.75 -1.0499,12.75 v 8.2499 8.25 8.2499 l 0.6001,3.3001 z"
             style="fill:url(#linearGradient11448);fill-rule:evenodd;stroke:none"
             id="path11420"
             inkscape:connector-curvature="0" />
        </g>
      </g>
      <g
         id="g11442"
         transform="matrix(1.25,0,0,-1.25,136.63325,1411.228)">
        <g
           id="g11440"
           clip-path="url(#clipPath10140)">
          <g
             id="g11438">
            <g
               id="g11436">
              <g
                 id="g11426" />
              <g
                 id="g11434">
                <g
                   clip-path="url(#clipPath10150)"
                   id="g11432"
                   style="opacity:0.25">
                  <g
                     transform="translate(427.6174,1018.0933)"
                     id="g11430">
                    <path
                       d="m 1.6662,0.199 c 0.0374,1.1775 1.5605,3.2944 1.1704,15.139 -0.5173,15.715 -4.9833,20.7417 -0.513,38.9092 5.4479,22.1408 -6.0112,25.1906 0.2732,42.9375 1.8921,5.3427 -2.2674,18.6307 0.7265,30.6374 0.2844,1.1393 0.2166,8.8472 -0.9742,9.0964 l -0.5035,0.1556 M 4.1037,0.0113 C 4.1411,1.1889 7.5393,3.8682 7.1493,15.713 6.6317,31.428 0.2908,35.8917 4.7611,54.0595 c 5.4482,22.1409 -6.0112,25.1907 0.2732,42.9375 1.8922,5.3428 -2.2674,18.6307 0.7266,30.6375 0.2843,1.1392 0.2165,8.8472 -0.9743,9.0963 l -0.5035,0.1557 m 6.5736,3.7496 C 10.8193,139.4586 7.4211,136.779 7.8111,124.9345 8.3285,109.2195 15.4253,106.9041 11.3244,88.6504 9.3572,79.8948 6.0446,79.6476 7.3636,74.2768 9.2648,66.5357 12.958,64.4411 7.6759,51.1506 5.5831,45.885 12.1932,25.0191 9.1996,13.013 8.9158,11.874 8.983,4.1658 10.1738,3.9166 L 10.6773,3.761 M 5.0414,82.4176 c 2.1093,3.3103 -1.1942,6.6988 2.6892,14.5313 1.2569,2.535 1.0605,5.4966 0.5143,-1.3125 C 7.7357,89.2939 7.3006,85.9632 5.0414,82.4176 Z"
                       style="fill:none;stroke:#cc9933;stroke-width:0.7087;stroke-linecap:butt;stroke-linejoin:miter;stroke-miterlimit:2.61313;stroke-dasharray:none;stroke-opacity:1"
                       id="path11428"
                       inkscape:connector-curvature="0" />
                  </g>
                </g>
              </g>
            </g>
          </g>
        </g>
      </g>
      <path
         d="m 669.49815,40.207009 h 12.7498 v 10.31275 10.3125 l -1.3125,17.8125 1.3125,2.81237 v 10.31238 10.312501 10.31238 10.3125 h -12.7498 v -10.31275 l 1.3123,-4.6875 -1.3123,-15.937501 v -10.31238 -10.3125 -10.31237 l 0.7501,-4.12513 z"
         style="fill:none;stroke:#3c1e00;stroke-width:1.77163;stroke-linecap:butt;stroke-linejoin:miter;stroke-miterlimit:2.61313;stroke-dasharray:none;stroke-opacity:1"
         id="path11444"
         inkscape:connector-curvature="0" />
    </g>
    <g
       style="display:inline"
       id="g65631"
       transform="matrix(-0.83977498,-0.49333909,0.52953059,-0.78237941,543.62267,540.91711)">
      <g
         transform="matrix(1.25,0,0,-1.25,136.63325,1411.228)"
         id="g9562">
        <g
           clip-path="url(#clipPath9566)"
           id="g9564">
          <path
             inkscape:connector-curvature="0"
             id="path9576"
             style="fill:url(#linearGradient9570);fill-rule:evenodd;stroke:none"
             d="m 396.0451,980.418 c -5.2501,0 -10.5001,0 -15.7502,0 v 14.8783 l 0.6588,19.8416 -0.9587,3.8863 0.2999,12.3285 1.4998,5.2781 -1.4998,16.6782 v 14.578 l 1.1999,12.0523 -1.1999,2.526 v 14.578 c 5.2501,0 10.5001,0 15.7502,0 v -14.5783 -14.578 -14.5783 l 0.1499,-14.578 -0.9,-3.6417 0.9,-10.9366 -0.1499,-14.578 -0.4499,-13.0782 z" />
        </g>
      </g>
      <g
         transform="matrix(1.25,0,0,-1.25,136.63325,1411.228)"
         id="g9578">
        <g
           clip-path="url(#clipPath9582)"
           id="g9580">
          <g
             id="g9586">
            <g
               id="g9588">
              <g
                 id="g9590" />
              <g
                 id="g9596">
                <g
                   style="opacity:0.25"
                   id="g9598"
                   clip-path="url(#clipPath9592)">
                  <g
                     id="g9600"
                     transform="translate(381.4812,968.6928)">
                    <path
                       inkscape:connector-curvature="0"
                       id="path9602"
                       style="fill:none;stroke:#cc9933;stroke-width:0.7087;stroke-linecap:butt;stroke-linejoin:miter;stroke-miterlimit:2.61313;stroke-dasharray:none;stroke-opacity:1"
                       d="m 11.2827,0.199 c -0.0374,1.1775 -1.5604,3.2944 -1.1704,15.139 0.5173,15.715 4.9833,20.7417 0.5131,38.9092 -5.4479,22.1408 6.0111,25.1906 -0.2733,42.9375 -1.8921,5.3427 2.2675,18.6307 -0.7265,30.6374 -0.2843,1.1393 -0.2166,8.8472 0.9743,9.0964 l 0.5034,0.1556 M 8.8452,0.0113 C 8.8078,1.1889 5.4096,3.8682 5.7997,15.713 6.3173,31.428 12.6581,35.8917 8.1879,54.0595 2.7397,76.2004 14.199,79.2502 7.9146,96.997 c -1.8921,5.3428 2.2674,18.6307 -0.7265,30.6375 -0.2843,1.1392 -0.2166,8.8472 0.9743,9.0963 l 0.5034,0.1557 m -6.5735,3.7496 C 2.1297,139.4586 5.5278,136.779 5.1378,124.9345 4.6205,109.2195 -2.4763,106.9041 1.6245,88.6504 3.5918,79.8948 6.9043,79.6476 5.5854,74.2768 3.6842,66.5357 -0.0091,64.4411 5.273,51.1506 7.3658,45.885 0.7557,25.0191 3.7494,13.013 4.0331,11.874 3.966,4.1658 2.7751,3.9166 L 2.2717,3.761 m 5.6358,78.6566 c -2.1092,3.3103 1.1943,6.6988 -2.6892,14.5313 -1.2569,2.535 -1.0604,5.4966 -0.5142,-1.3125 0.5091,-6.3425 0.9442,-9.6732 3.2034,-13.2188 z" />
                  </g>
                </g>
              </g>
            </g>
            <g
               id="g9604">
              <path
                 inkscape:connector-curvature="0"
                 id="path9606"
                 style="fill:#39161b;fill-opacity:0.5;fill-rule:evenodd;stroke:none"
                 d="m 403.1702,1100.7975 h -33.7501 v -10.1253 h 33.7501 z" />
            </g>
          </g>
        </g>
      </g>
      <path
         inkscape:connector-curvature="0"
         id="path9608"
         style="fill:none;stroke:#3c1e00;stroke-width:1.77163;stroke-linecap:butt;stroke-linejoin:miter;stroke-miterlimit:2.61313;stroke-dasharray:none;stroke-opacity:1"
         d="m 631.68965,185.70551 c -6.5627,0 -13.1252,0 -19.6878,0 v -18.59787 l 0.8235,-24.802 -1.1984,-4.85788 0.3749,-15.41062 1.8748,-6.59763 -1.8748,-20.847751 v -18.2225 l 1.4999,-15.06537 -1.4999,-3.1575 v -18.2225 c 6.5626,0 13.1251,0 19.6878,0 v 18.22287 18.2225 18.22287 l 0.1873,18.222501 -1.125,4.55213 1.125,13.67075 -0.1873,18.2225 -0.5624,16.34775 z" />
    </g>
    <g
       style="display:inline"
       id="g65090"
       transform="matrix(0.55259704,0.76065999,-0.78040226,0.53861768,-252.03188,-657.87236)">
      <path
         inkscape:connector-curvature="0"
         id="path9850"
         style="fill:#814e2e;fill-opacity:1;fill-rule:evenodd;stroke:none"
         d="m 864.63975,187.07491 c 0,-6.5625 0,-13.125 0,-19.68763 h 18.5978 l 24.8021,0.8235 4.8579,-1.19837 15.4105,0.37487 6.5976,1.87475 20.8477,-1.87475 h 18.2227 l 15.0653,1.49988 3.1575,-1.49988 h 18.22255 c 0,6.56263 0,13.12513 0,19.68763 h -18.22285 -18.2225 -18.2229 l -18.2226,0.1875 -4.552,-1.125 -13.6709,1.125 -18.2225,-0.1875 -16.3478,-0.56225 z" />
      <g
         transform="matrix(1.25,0,0,-1.25,397.45865,1574.4261)"
         id="g9852">
        <g
           clip-path="url(#clipPath9856)"
           id="g9854">
          <g
             id="g9860">
            <g
               id="g9862">
              <g
                 id="g9864" />
              <g
                 id="g9870">
                <g
                   style="opacity:0.25"
                   id="g9872"
                   clip-path="url(#clipPath9866)">
                  <g
                     id="g9874"
                     transform="translate(362.0197,1111.496)">
                    <path
                       inkscape:connector-curvature="0"
                       id="path9876"
                       style="fill:none;stroke:#cc9933;stroke-width:0.7087;stroke-linecap:butt;stroke-linejoin:miter;stroke-miterlimit:2.61313;stroke-dasharray:none;stroke-opacity:1"
                       d="m 0.199,11.2827 c 1.1775,-0.0374 3.2944,-1.5604 15.139,-1.1704 15.715,0.5173 20.7417,4.9833 38.9092,0.5131 22.1408,-5.4479 25.1906,6.0111 42.9375,-0.2733 5.3427,-1.8921 18.6307,2.2675 30.6374,-0.7265 1.1393,-0.2843 8.8472,-0.2166 9.0964,0.9743 l 0.1556,0.5034 M 0.0113,8.8452 C 1.1889,8.8078 3.8682,5.4096 15.713,5.7997 31.428,6.3173 35.8917,12.6581 54.0595,8.1879 76.2004,2.7397 79.2502,14.199 96.997,7.9146 c 5.3428,-1.8921 18.6307,2.2674 30.6375,-0.7265 1.1392,-0.2843 8.8472,-0.2166 9.0963,0.9743 l 0.1557,0.5034 m 3.7496,-6.5735 C 139.4586,2.1297 136.779,5.5278 124.9345,5.1378 109.2195,4.6205 106.9041,-2.4763 88.6504,1.6245 79.8948,3.5918 79.6476,6.9043 74.2768,5.5854 66.5357,3.6842 64.4411,-0.0091 51.1506,5.273 45.885,7.3658 25.0191,0.7557 13.013,3.7494 11.874,4.0331 4.1658,3.966 3.9166,2.7751 L 3.761,2.2717 m 78.6566,5.6358 c 3.3103,-2.1092 6.6988,1.1943 14.5313,-2.6892 2.535,-1.2569 5.4966,-1.0604 -1.3125,-0.5142 -6.3425,0.5091 -9.6732,0.9442 -13.2188,3.2034 z" />
                  </g>
                </g>
              </g>
            </g>
            <g
               id="g9878">
              <path
                 inkscape:connector-curvature="0"
                 id="path9880"
                 style="fill:#39161b;fill-opacity:0.5;fill-rule:evenodd;stroke:none"
                 d="m 368.9864,1102.8682 h 135.2285 v 10.1254 H 368.9864 Z" />
            </g>
          </g>
        </g>
      </g>
      <path
         inkscape:connector-curvature="0"
         id="path9882"
         style="fill:none;stroke:#3c1e00;stroke-width:1.77163;stroke-linecap:butt;stroke-linejoin:miter;stroke-miterlimit:2.61313;stroke-dasharray:none;stroke-opacity:1"
         d="m 864.63975,187.07491 c 0,-6.5625 0,-13.125 0,-19.68763 h 18.5978 l 24.8021,0.8235 4.8579,-1.19837 15.4105,0.37487 6.5976,1.87475 20.8477,-1.87475 h 18.2227 l 15.0653,1.49988 3.1575,-1.49988 h 18.22255 c 0,6.56263 0,13.12513 0,19.68763 h -18.22285 -18.2225 -18.2229 l -18.2226,0.1875 -4.552,-1.125 -13.6709,1.125 -18.2225,-0.1875 -16.3478,-0.56225 z" />
      <path
         inkscape:connector-curvature="0"
         id="path9884"
         style="fill:#814e2e;fill-opacity:1;fill-rule:evenodd;stroke:none"
         d="m 864.63975,187.07491 c 0,-6.5625 0,-13.125 0,-19.68763 h 18.5978 l 24.8021,0.8235 4.8579,-1.19837 15.4105,0.37487 6.5976,1.87475 20.8477,-1.87475 h 18.2227 l 15.0653,1.49988 3.1575,-1.49988 h 18.22255 c 0,6.56263 0,13.12513 0,19.68763 h -18.22285 -18.2225 -18.2229 l -18.2226,0.1875 -4.552,-1.125 -13.6709,1.125 -18.2225,-0.1875 -16.3478,-0.56225 z" />
      <g
         transform="matrix(1.25,0,0,-1.25,397.45865,1574.4261)"
         id="g9886">
        <g
           clip-path="url(#clipPath9890)"
           id="g9888">
          <g
             id="g9894">
            <g
               id="g9896">
              <g
                 id="g9898" />
              <g
                 id="g9904">
                <g
                   style="opacity:0.25"
                   id="g9906"
                   clip-path="url(#clipPath9900)">
                  <g
                     id="g9908"
                     transform="translate(362.0197,1111.496)">
                    <path
                       inkscape:connector-curvature="0"
                       id="path9910"
                       style="fill:none;stroke:#cc9933;stroke-width:0.7087;stroke-linecap:butt;stroke-linejoin:miter;stroke-miterlimit:2.61313;stroke-dasharray:none;stroke-opacity:1"
                       d="m 0.199,11.2827 c 1.1775,-0.0374 3.2944,-1.5604 15.139,-1.1704 15.715,0.5173 20.7417,4.9833 38.9092,0.5131 22.1408,-5.4479 25.1906,6.0111 42.9375,-0.2733 5.3427,-1.8921 18.6307,2.2675 30.6374,-0.7265 1.1393,-0.2843 8.8472,-0.2166 9.0964,0.9743 l 0.1556,0.5034 M 0.0113,8.8452 C 1.1889,8.8078 3.8682,5.4096 15.713,5.7997 31.428,6.3173 35.8917,12.6581 54.0595,8.1879 76.2004,2.7397 79.2502,14.199 96.997,7.9146 c 5.3428,-1.8921 18.6307,2.2674 30.6375,-0.7265 1.1392,-0.2843 8.8472,-0.2166 9.0963,0.9743 l 0.1557,0.5034 m 3.7496,-6.5735 C 139.4586,2.1297 136.779,5.5278 124.9345,5.1378 109.2195,4.6205 106.9041,-2.4763 88.6504,1.6245 79.8948,3.5918 79.6476,6.9043 74.2768,5.5854 66.5357,3.6842 64.4411,-0.0091 51.1506,5.273 45.885,7.3658 25.0191,0.7557 13.013,3.7494 11.874,4.0331 4.1658,3.966 3.9166,2.7751 L 3.761,2.2717 m 78.6566,5.6358 c 3.3103,-2.1092 6.6988,1.1943 14.5313,-2.6892 2.535,-1.2569 5.4966,-1.0604 -1.3125,-0.5142 -6.3425,0.5091 -9.6732,0.9442 -13.2188,3.2034 z" />
                  </g>
                </g>
              </g>
            </g>
            <g
               id="g9912">
              <path
                 inkscape:connector-curvature="0"
                 id="path9914"
                 style="fill:#39161b;fill-opacity:0.5;fill-rule:evenodd;stroke:none"
                 d="m 368.9864,1102.8682 h 135.2285 v 10.1254 H 368.9864 Z" />
            </g>
            <g
               id="g9916">
              <path
                 inkscape:connector-curvature="0"
                 id="path9918"
                 style="fill:#cc9933;fill-opacity:0.25;fill-rule:evenodd;stroke:none"
                 d="m 375.7246,1121.7368 v 1.972 h 14.3731 l 19.1682,-0.4124 3.7542,0.6004 11.91,-0.188 5.099,-0.9388 16.1118,0.9388 h 14.0831 l 11.6433,-0.7512 2.4401,0.7512 h 14.0831 v -1.972 h -14.0831 l -2.4401,-0.7512 -11.6433,0.7512 h -14.0831 l -16.1118,-0.9392 -5.099,0.9392 -11.91,0.1876 -3.7542,-0.6001 -19.1682,0.4125 z" />
            </g>
          </g>
        </g>
      </g>
      <path
         inkscape:connector-curvature="0"
         id="path9920"
         style="fill:none;stroke:#3c1e00;stroke-width:1.772;stroke-linecap:butt;stroke-linejoin:miter;stroke-miterlimit:2.61313;stroke-dasharray:none;stroke-opacity:1"
         d="m 864.63975,187.07491 c 0,-6.5625 0,-13.125 0,-19.68763 h 18.5978 l 24.8021,0.8235 4.8579,-1.19837 15.4105,0.37487 6.5976,1.87475 20.8477,-1.87475 h 18.2227 l 15.0653,1.49988 3.1575,-1.49988 h 18.22255 c 0,6.56263 0,13.12513 0,19.68763 h -18.22285 -18.2225 -18.2229 l -18.2226,0.1875 -4.552,-1.125 -13.6709,1.125 -18.2225,-0.1875 -16.3478,-0.56225 z" />
    </g>
    <g
       style="display:inline"
       id="g65669"
       transform="matrix(0.99028523,-0.41154542,0.41154542,0.99028523,-580.1782,370.11052)">
      <g
         transform="matrix(1.25,0,0,-1.25,136.63325,1411.228)"
         id="g10120">
        <g
           clip-path="url(#clipPath10124)"
           id="g10122">
          <path
             inkscape:connector-curvature="0"
             id="path10134"
             style="fill:url(#linearGradient11535);fill-rule:evenodd;stroke:none"
             d="m 426.2919,1096.8168 h 10.1999 v -8.2502 -8.25 l -1.05,-14.25 1.05,-2.2499 v -8.2499 -8.25 -8.2499 -8.25 h -10.1999 v 8.2502 l 1.0499,3.75 -1.0499,12.75 v 8.2499 8.25 8.2499 l 0.6001,3.3001 z" />
        </g>
      </g>
      <g
         transform="matrix(1.25,0,0,-1.25,136.63325,1411.228)"
         id="g10136">
        <g
           clip-path="url(#clipPath10140)"
           id="g10138">
          <g
             id="g10144">
            <g
               id="g10146">
              <g
                 id="g10148" />
              <g
                 id="g10154">
                <g
                   style="opacity:0.25"
                   id="g10156"
                   clip-path="url(#clipPath10150)">
                  <g
                     id="g10158"
                     transform="translate(427.6174,1018.0933)">
                    <path
                       inkscape:connector-curvature="0"
                       id="path10160"
                       style="fill:none;stroke:#cc9933;stroke-width:0.7087;stroke-linecap:butt;stroke-linejoin:miter;stroke-miterlimit:2.61313;stroke-dasharray:none;stroke-opacity:1"
                       d="m 1.6662,0.199 c 0.0374,1.1775 1.5605,3.2944 1.1704,15.139 -0.5173,15.715 -4.9833,20.7417 -0.513,38.9092 5.4479,22.1408 -6.0112,25.1906 0.2732,42.9375 1.8921,5.3427 -2.2674,18.6307 0.7265,30.6374 0.2844,1.1393 0.2166,8.8472 -0.9742,9.0964 l -0.5035,0.1556 M 4.1037,0.0113 C 4.1411,1.1889 7.5393,3.8682 7.1493,15.713 6.6317,31.428 0.2908,35.8917 4.7611,54.0595 c 5.4482,22.1409 -6.0112,25.1907 0.2732,42.9375 1.8922,5.3428 -2.2674,18.6307 0.7266,30.6375 0.2843,1.1392 0.2165,8.8472 -0.9743,9.0963 l -0.5035,0.1557 m 6.5736,3.7496 C 10.8193,139.4586 7.4211,136.779 7.8111,124.9345 8.3285,109.2195 15.4253,106.9041 11.3244,88.6504 9.3572,79.8948 6.0446,79.6476 7.3636,74.2768 9.2648,66.5357 12.958,64.4411 7.6759,51.1506 5.5831,45.885 12.1932,25.0191 9.1996,13.013 8.9158,11.874 8.983,4.1658 10.1738,3.9166 L 10.6773,3.761 M 5.0414,82.4176 c 2.1093,3.3103 -1.1942,6.6988 2.6892,14.5313 1.2569,2.535 1.0605,5.4966 0.5143,-1.3125 C 7.7357,89.2939 7.3006,85.9632 5.0414,82.4176 Z" />
                  </g>
                </g>
              </g>
            </g>
          </g>
        </g>
      </g>
      <path
         inkscape:connector-curvature="0"
         id="path10162"
         style="fill:none;stroke:#3c1e00;stroke-width:1.77163;stroke-linecap:butt;stroke-linejoin:miter;stroke-miterlimit:2.61313;stroke-dasharray:none;stroke-opacity:1"
         d="m 669.49815,40.207009 h 12.7498 v 10.31275 10.3125 l -1.3125,17.8125 1.3125,2.81237 v 10.31238 10.312501 10.31238 10.3125 h -12.7498 v -10.31275 l 1.3123,-4.6875 -1.3123,-15.937501 v -10.31238 -10.3125 -10.31237 l 0.7501,-4.12513 z" />
    </g>
    <g
       transform="matrix(-1.162228,-0.48300185,-0.48300185,1.162228,911.71983,398.12933)"
       id="g11386"
       style="display:inline">
      <g
         id="g11364"
         transform="matrix(1.25,0,0,-1.25,136.63325,1411.228)">
        <g
           id="g11362"
           clip-path="url(#clipPath10124)">
          <path
             d="m 426.2919,1096.8168 h 10.1999 v -8.2502 -8.25 l -1.05,-14.25 1.05,-2.2499 v -8.2499 -8.25 -8.2499 -8.25 h -10.1999 v 8.2502 l 1.0499,3.75 -1.0499,12.75 v 8.2499 8.25 8.2499 l 0.6001,3.3001 z"
             style="fill:url(#linearGradient11388);fill-rule:evenodd;stroke:none"
             id="path11360"
             inkscape:connector-curvature="0" />
        </g>
      </g>
      <g
         id="g11382"
         transform="matrix(1.25,0,0,-1.25,136.63325,1411.228)">
        <g
           id="g11380"
           clip-path="url(#clipPath10140)">
          <g
             id="g11378">
            <g
               id="g11376">
              <g
                 id="g11366" />
              <g
                 id="g11374">
                <g
                   clip-path="url(#clipPath10150)"
                   id="g11372"
                   style="opacity:0.25">
                  <g
                     transform="translate(427.6174,1018.0933)"
                     id="g11370">
                    <path
                       d="m 1.6662,0.199 c 0.0374,1.1775 1.5605,3.2944 1.1704,15.139 -0.5173,15.715 -4.9833,20.7417 -0.513,38.9092 5.4479,22.1408 -6.0112,25.1906 0.2732,42.9375 1.8921,5.3427 -2.2674,18.6307 0.7265,30.6374 0.2844,1.1393 0.2166,8.8472 -0.9742,9.0964 l -0.5035,0.1556 M 4.1037,0.0113 C 4.1411,1.1889 7.5393,3.8682 7.1493,15.713 6.6317,31.428 0.2908,35.8917 4.7611,54.0595 c 5.4482,22.1409 -6.0112,25.1907 0.2732,42.9375 1.8922,5.3428 -2.2674,18.6307 0.7266,30.6375 0.2843,1.1392 0.2165,8.8472 -0.9743,9.0963 l -0.5035,0.1557 m 6.5736,3.7496 C 10.8193,139.4586 7.4211,136.779 7.8111,124.9345 8.3285,109.2195 15.4253,106.9041 11.3244,88.6504 9.3572,79.8948 6.0446,79.6476 7.3636,74.2768 9.2648,66.5357 12.958,64.4411 7.6759,51.1506 5.5831,45.885 12.1932,25.0191 9.1996,13.013 8.9158,11.874 8.983,4.1658 10.1738,3.9166 L 10.6773,3.761 M 5.0414,82.4176 c 2.1093,3.3103 -1.1942,6.6988 2.6892,14.5313 1.2569,2.535 1.0605,5.4966 0.5143,-1.3125 C 7.7357,89.2939 7.3006,85.9632 5.0414,82.4176 Z"
                       style="fill:none;stroke:#cc9933;stroke-width:0.7087;stroke-linecap:butt;stroke-linejoin:miter;stroke-miterlimit:2.61313;stroke-dasharray:none;stroke-opacity:1"
                       id="path11368"
                       inkscape:connector-curvature="0" />
                  </g>
                </g>
              </g>
            </g>
          </g>
        </g>
      </g>
      <path
         d="m 669.49815,40.207009 h 12.7498 v 10.31275 10.3125 l -1.3125,17.8125 1.3125,2.81237 v 10.31238 10.312501 10.31238 10.3125 h -12.7498 v -10.31275 l 1.3123,-4.6875 -1.3123,-15.937501 v -10.31238 -10.3125 -10.31237 l 0.7501,-4.12513 z"
         style="fill:none;stroke:#3c1e00;stroke-width:1.77163;stroke-linecap:butt;stroke-linejoin:miter;stroke-miterlimit:2.61313;stroke-dasharray:none;stroke-opacity:1"
         id="path11384"
         inkscape:connector-curvature="0" />
    </g>
    <g
       transform="translate(-13.886101,-22.054862)"
       id="g11475">
      <path
         id="path11450"
         style="fill:#808080;fill-opacity:1;stroke:#0054ca;stroke-width:0;stroke-opacity:0"
         d="m 70.943722,239.6421 c -10e-6,2.72111 -0.328134,7.85086 -3.73247,9.63408 -3.404337,1.78322 -9.884881,0.21992 -15.079722,0.21992 -5.194841,0 -7.676017,-2.43607 -11.080354,-4.21929 -3.404336,-1.78322 -4.843402,-4.02454 -4.843405,-6.74565 -3e-6,-2.72111 2.105623,-1.8518 5.50996,-3.63503 3.404337,-1.78322 5.400609,-6.46978 10.413799,-5.10804 7.604851,2.06572 14.720673,-1.87323 16.41285,-1.55757 3.777932,0.70472 2.399342,8.69047 2.399342,11.41158 z"
         sodipodi:nodetypes="sssssssss" />
      <path
         sodipodi:nodetypes="sssssssss"
         d="m 68.233505,239.91688 c -3e-6,2.72111 -0.263752,3.78711 -3.668088,5.57033 -3.404337,1.78322 -6.774262,1.10867 -11.969103,1.10867 -5.194841,0 -7.676017,-2.43607 -11.080354,-4.21929 -3.404336,-1.78322 -4.843402,-0.84954 -4.843405,-3.57065 -3e-6,-2.72111 2.105623,-1.8518 5.50996,-3.63503 3.404337,-1.78322 5.400609,-6.46978 10.413799,-5.10804 7.604851,2.06572 14.720673,-1.87323 16.41285,-1.55757 3.777934,0.70472 -0.775656,8.69047 -0.775659,11.41158 z"
         style="fill:#979797;fill-opacity:1;stroke:#0054ca;stroke-width:0;stroke-opacity:0"
         id="path11453" />
    </g>
    <g
       transform="translate(-46.65935,-16.868049)"
       id="g11487">
      <path
         sodipodi:nodetypes="sssssssss"
         d="m 124.20258,244.29469 c 0,3.52793 0.50917,3.38906 -1.54143,5.70102 -2.05061,2.31196 -4.88349,3.29756 -8.01261,3.29756 -3.12912,0 -6.62857,-1.42998 -8.67917,-3.74193 -2.05061,-2.31196 -1.98581,-1.50653 -1.98581,-5.03446 0,-3.52793 -1.17573,-6.94405 0.87487,-9.25601 2.05061,-2.31196 4.88349,0.47962 8.01261,0.47962 3.12912,0 6.62856,-0.12533 8.67917,2.18663 2.0506,2.31195 2.65237,2.83964 2.65237,6.36757 z"
         style="fill:#b7b7b7;fill-opacity:1;stroke:#0054ca;stroke-width:0;stroke-opacity:0"
         id="path11458" />
      <path
         id="path11455"
         style="fill:#cccccc;fill-opacity:1;stroke:#0054ca;stroke-width:0;stroke-opacity:0"
         d="m 121.55675,243.23636 c 0,3.52793 1.59969,1.57937 -0.45091,3.89133 -2.05061,2.31196 -3.32818,3.51975 -6.4573,3.51975 -3.12912,0 -6.62857,-1.42998 -8.67917,-3.74193 -2.05061,-2.31196 -1.98581,0.081 -1.98581,-3.44696 0,-3.52793 -1.17573,-5.88572 0.87487,-8.19768 2.05061,-2.31196 4.88349,0.47962 8.01261,0.47962 3.12912,0 5.04106,-0.12533 7.09167,2.18663 2.0506,2.31195 1.59404,1.78131 1.59404,5.30924 z"
         sodipodi:nodetypes="sssssssss" />
    </g>
    <g
       id="g11497"
       transform="translate(115.3468,-28.691792)">
      <path
         sodipodi:nodetypes="sssssssss"
         d="m 70.943722,239.6421 c -10e-6,2.72111 -0.328134,7.85086 -3.73247,9.63408 -3.404337,1.78322 -9.884881,0.21992 -15.079722,0.21992 -5.194841,0 -7.676017,-2.43607 -11.080354,-4.21929 -3.404336,-1.78322 -4.843402,-4.02454 -4.843405,-6.74565 -3e-6,-2.72111 2.105623,-1.8518 5.50996,-3.63503 3.404337,-1.78322 5.400609,-6.46978 10.413799,-5.10804 7.604851,2.06572 14.720673,-1.87323 16.41285,-1.55757 3.777932,0.70472 2.399342,8.69047 2.399342,11.41158 z"
         style="fill:#808080;fill-opacity:1;stroke:#0054ca;stroke-width:0;stroke-opacity:0"
         id="path11493" />
      <path
         id="path11495"
         style="fill:#979797;fill-opacity:1;stroke:#0054ca;stroke-width:0;stroke-opacity:0"
         d="m 68.233505,239.91688 c -3e-6,2.72111 -0.263752,3.78711 -3.668088,5.57033 -3.404337,1.78322 -6.774262,1.10867 -11.969103,1.10867 -5.194841,0 -7.676017,-2.43607 -11.080354,-4.21929 -3.404336,-1.78322 -4.843402,-0.84954 -4.843405,-3.57065 -3e-6,-2.72111 2.105623,-1.8518 5.50996,-3.63503 3.404337,-1.78322 5.400609,-6.46978 10.413799,-5.10804 7.604851,2.06572 14.720673,-1.87323 16.41285,-1.55757 3.777934,0.70472 -0.775656,8.69047 -0.775659,11.41158 z"
         sodipodi:nodetypes="sssssssss" />
    </g>
    <g
       id="g11503"
       transform="translate(36.285727,-18.022506)">
      <path
         id="path11499"
         style="fill:#b7b7b7;fill-opacity:1;stroke:#0054ca;stroke-width:0;stroke-opacity:0"
         d="m 124.20258,244.29469 c 0,3.52793 0.50917,3.38906 -1.54143,5.70102 -2.05061,2.31196 -4.88349,3.29756 -8.01261,3.29756 -3.12912,0 -6.62857,-1.42998 -8.67917,-3.74193 -2.05061,-2.31196 -1.98581,-1.50653 -1.98581,-5.03446 0,-3.52793 -1.17573,-6.94405 0.87487,-9.25601 2.05061,-2.31196 4.88349,0.47962 8.01261,0.47962 3.12912,0 6.62856,-0.12533 8.67917,2.18663 2.0506,2.31195 2.65237,2.83964 2.65237,6.36757 z"
         sodipodi:nodetypes="sssssssss" />
      <path
         sodipodi:nodetypes="sssssssss"
         d="m 121.55675,243.23636 c 0,3.52793 1.59969,1.57937 -0.45091,3.89133 -2.05061,2.31196 -3.32818,3.51975 -6.4573,3.51975 -3.12912,0 -6.62857,-1.42998 -8.67917,-3.74193 -2.05061,-2.31196 -1.98581,0.081 -1.98581,-3.44696 0,-3.52793 -1.17573,-5.88572 0.87487,-8.19768 2.05061,-2.31196 4.88349,0.47962 8.01261,0.47962 3.12912,0 5.04106,-0.12533 7.09167,2.18663 2.0506,2.31195 1.59404,1.78131 1.59404,5.30924 z"
         style="fill:#cccccc;fill-opacity:1;stroke:#0054ca;stroke-width:0;stroke-opacity:0"
         id="path11501" />
    </g>
    <g
       transform="translate(-37.843667,-9.5244397)"
       id="g11491">
      <path
         id="path11460"
         style="fill:#808080;fill-opacity:1;stroke:#0054ca;stroke-width:0;stroke-opacity:0"
         d="m 148.82587,241.44581 c 0,4.64484 -0.67037,4.46201 2.02943,7.50592 2.69982,3.04391 6.42957,4.34154 10.54934,4.34154 4.11978,0 8.72713,-1.8827 11.42694,-4.9266 2.69981,-3.04391 2.6145,-1.98348 2.6145,-6.62833 0,-4.64485 1.54796,-9.14248 -1.15185,-12.18639 -2.69982,-3.04391 -6.42957,0.63146 -10.54934,0.63146 -4.11978,0 -8.72712,-0.16501 -11.42693,2.8789 -2.69981,3.0439 -3.49209,3.73865 -3.49209,8.3835 z"
         sodipodi:nodetypes="sssssssss" />
      <path
         sodipodi:nodetypes="sssssssss"
         d="m 149.6635,240.05242 c 0,4.64484 -2.10614,2.07938 0.59366,5.12329 2.69982,3.04391 4.38186,4.63408 8.50163,4.63408 4.11978,0 8.72713,-1.8827 11.42694,-4.9266 2.69981,-3.04391 2.6145,0.10665 2.6145,-4.53824 0,-4.64484 1.54796,-7.74909 -1.15185,-10.793 -2.69982,-3.04391 -6.42957,0.63146 -10.54934,0.63146 -4.11978,0 -6.63702,-0.16501 -9.33684,2.8789 -2.69981,3.0439 -2.0987,2.34526 -2.0987,6.99011 z"
         style="fill:#999999;fill-opacity:1;stroke:#0054ca;stroke-width:0;stroke-opacity:0"
         id="path11462" />
    </g>
    <g
       transform="translate(36.748963,-37.209086)"
       id="g11479">
      <path
         sodipodi:nodetypes="sssssssss"
         d="m 45.937555,272.79972 c 0.556342,2.14039 1.86322,6.10829 4.905601,6.81492 3.042383,0.70664 7.820271,-1.84797 11.906458,-2.91006 4.086188,-1.06209 5.539788,-3.48555 7.85301,-5.58422 2.31322,-2.09868 2.98693,-4.15589 2.4306,-6.29627 -0.556331,-2.14039 -2.034854,-1.02611 -5.07724,-1.73275 -3.042382,-0.70664 -5.570791,-3.98488 -9.235687,-1.88881 -5.559528,3.17969 -11.962052,1.5362 -13.228558,2.13046 -2.827587,1.32672 -0.110515,7.32635 0.445816,9.46673 z"
         style="fill:#989898;fill-opacity:1;stroke:#0054ca;stroke-width:0;stroke-opacity:0"
         id="path11464" />
      <path
         id="path11466"
         style="fill:#b3b3b3;fill-opacity:1;stroke:#0054ca;stroke-width:0;stroke-opacity:0"
         d="m 46.534245,273.62168 c 0.556337,2.14039 1.324343,2.0896 4.366725,2.79624 3.042382,0.70663 5.555204,-0.51294 9.641392,-1.57503 4.086187,-1.06209 5.539789,-3.48555 7.853011,-5.58422 2.313222,-2.09867 4.236893,-2.93409 3.681019,-5.0746 -0.555929,-2.14073 -0.755993,-0.68521 -3.801642,-1.00035 -2.136154,-0.22105 -3.764346,-5.2143 -11.112572,-1.34546 -4.105503,2.16156 -11.377979,0.54186 -13.228558,2.13046 -2.369931,2.03442 2.044286,7.51257 2.600629,9.65296 z"
         sodipodi:nodetypes="sssssssss" />
    </g>
    <g
       transform="translate(-27.385216,-72.571453)"
       id="g11527">
      <path
         sodipodi:nodetypes="sssssssss"
         d="m 45.937555,272.79972 c 0.556342,2.14039 1.86322,6.10829 4.905601,6.81492 3.042383,0.70664 7.820271,-1.84797 11.906458,-2.91006 4.086188,-1.06209 5.539788,-3.48555 7.85301,-5.58422 2.31322,-2.09868 2.98693,-4.15589 2.4306,-6.29627 -0.556331,-2.14039 -2.034854,-1.02611 -5.07724,-1.73275 -3.042382,-0.70664 -5.570791,-3.98488 -9.235687,-1.88881 -5.559528,3.17969 -11.962052,1.5362 -13.228558,2.13046 -2.827587,1.32672 -0.110515,7.32635 0.445816,9.46673 z"
         style="fill:#989898;fill-opacity:1;stroke:#0054ca;stroke-width:0;stroke-opacity:0"
         id="path11523" />
      <path
         id="path11525"
         style="fill:#b3b3b3;fill-opacity:1;stroke:#0054ca;stroke-width:0;stroke-opacity:0"
         d="m 46.534245,273.62168 c 0.556337,2.14039 1.324343,2.0896 4.366725,2.79624 3.042382,0.70663 5.555204,-0.51294 9.641392,-1.57503 4.086187,-1.06209 5.539789,-3.48555 7.853011,-5.58422 2.313222,-2.09867 4.236893,-2.93409 3.681019,-5.0746 -0.555929,-2.14073 -0.755993,-0.68521 -3.801642,-1.00035 -2.136154,-0.22105 -3.764346,-5.2143 -11.112572,-1.34546 -4.105503,2.16156 -11.377979,0.54186 -13.228558,2.13046 -2.369931,2.03442 2.044286,7.51257 2.600629,9.65296 z"
         sodipodi:nodetypes="sssssssss" />
    </g>
  </g>
</svg>
