<?xml version="1.0" encoding="UTF-8" standalone="no"?>
<svg
   xmlns:dc="http://purl.org/dc/elements/1.1/"
   xmlns:cc="http://creativecommons.org/ns#"
   xmlns:rdf="http://www.w3.org/1999/02/22-rdf-syntax-ns#"
   xmlns:svg="http://www.w3.org/2000/svg"
   xmlns="http://www.w3.org/2000/svg"
   xmlns:sodipodi="http://sodipodi.sourceforge.net/DTD/sodipodi-0.dtd"
   xmlns:inkscape="http://www.inkscape.org/namespaces/inkscape"
   sodipodi:docname="rock.svg"
   inkscape:version="1.0 (4035a4fb49, 2020-05-01)"
   id="svg11543"
   version="1.1"
   viewBox="0 0 140.30426 165.96574"
   height="165.96574mm"
   width="140.30426mm">
  <defs
     id="defs11537" />
  <sodipodi:namedview
     inkscape:snap-global="false"
     inkscape:window-maximized="1"
     inkscape:window-y="-8"
     inkscape:window-x="4792"
     inkscape:window-height="1272"
     inkscape:window-width="2400"
     showgrid="false"
     inkscape:document-rotation="0"
     inkscape:current-layer="layer1"
     inkscape:document-units="mm"
     inkscape:cy="-25.710401"
     inkscape:cx="-632.02427"
     inkscape:zoom="0.35116085"
     inkscape:pageshadow="2"
     inkscape:pageopacity="0.0"
     borderopacity="1.0"
     bordercolor="#666666"
     pagecolor="#ffffff"
     id="base" />
  <metadata
     id="metadata11540">
    <rdf:RDF>
      <cc:Work
         rdf:about="">
        <dc:format>image/svg+xml</dc:format>
        <dc:type
           rdf:resource="http://purl.org/dc/dcmitype/StillImage" />
        <dc:title></dc:title>
      </cc:Work>
    </rdf:RDF>
  </metadata>
  <g
     transform="translate(-36.461515,-59.205659)"
     id="layer1"
     inkscape:groupmode="layer"
     inkscape:label="Layer 1">
    <path
       id="path12109"
       style="fill:#717171;fill-opacity:1;stroke:#0054ca;stroke-width:0;stroke-opacity:0"
       d="m 147.25531,155.38983 c 0,10.28105 10.65586,18.40684 8.04888,27.31535 -2.60698,8.9085 6.13529,29.44573 1.47378,36.18321 -4.66151,6.73748 -25.22971,-4.91347 -31.39329,-1.14549 -6.16359,3.76798 -19.19742,0.0114 -26.310638,0.0114 -7.11322,0 -20.147046,3.33939 -26.310636,-0.42859 -6.163589,-3.76798 -15.468635,-0.87725 -20.130143,-7.61473 -4.661508,-6.73749 -6.348093,-15.17726 -8.955072,-24.08577 -2.606978,-8.90851 7.63173,-24.12591 7.63173,-34.40696 0,-10.28105 -3.564245,-26.74991 -0.957267,-35.65842 2.606979,-8.90851 2.624949,-24.022732 7.286457,-30.760214 4.661509,-6.737483 13.762158,-1.297159 16.375758,-8.03189 2.776661,-7.154908 1.828518,-18.21464 9.624481,-17.531898 7.086098,0.620575 21.81566,15.015381 27.97925,18.783362 6.16358,3.76798 20.05732,17.980564 24.71883,24.71804 4.66151,6.73748 10.93678,10.17141 13.54376,19.07991 2.60698,8.90851 -2.62588,23.2916 -2.62588,33.57265 z"
       sodipodi:nodetypes="sssssssssssssssss" />
    <path
       id="path12111"
       style="fill:#9a9a9a;fill-opacity:1;stroke:#0054ca;stroke-width:0;stroke-opacity:0"
       d="m 141.96364,155.38983 c -0.60372,10.26331 -2.3068,4.85321 -4.91378,13.76172 -2.60698,8.9085 2.3809,9.83949 -2.28061,16.57697 -4.66151,6.73748 -5.20632,10.52123 -11.3699,14.28921 -6.16359,3.76798 -18.78027,10.02309 -25.893487,10.02309 -7.11322,0 -25.9872,4.1737 -32.15079,0.40572 -6.163589,-3.76798 -15.468635,-0.87725 -20.130143,-7.61473 -4.661508,-6.73749 1.06024,-8.29809 -1.546739,-17.2066 -2.606978,-8.90851 7.63173,-24.12591 7.63173,-34.40696 0,-10.28105 -3.564245,-26.74991 -0.957267,-35.65842 2.606979,-8.90851 2.624949,-24.022732 7.286457,-30.760214 4.661509,-6.737483 13.762158,-1.297159 16.375758,-8.03189 2.776661,-7.154908 1.828518,-18.21464 9.624481,-17.531898 7.086098,0.620575 21.81566,15.015381 27.97925,18.783362 6.16358,3.76798 14.76565,17.980564 19.42716,24.71804 4.66151,6.73748 8.0167,10.17141 10.62368,19.07991 2.60698,8.90851 1.31507,16.21772 0.71135,26.48103 z"
       sodipodi:nodetypes="ssssssssssssssssss" />
    <path
       sodipodi:nodetypes="sssssssssssssssssss"
       d="m 131.90947,144.8065 c 0,10.28105 16.88228,20.70506 14.2753,29.61357 -2.60698,8.9085 -3.0421,21.93696 -7.70361,28.67444 -4.66151,6.73748 -24.3954,-6.58209 -30.55898,-2.81411 -6.16359,3.76798 -19.19742,0.0114 -26.310638,0.0114 -7.11322,0 -5.92134,-6.93497 -12.08493,-10.70295 -6.163589,-3.76798 -2.954018,-2.96302 -7.615526,-9.7005 -4.661508,-6.73749 -1.859838,-2.04079 -4.466817,-10.9493 -2.606978,-8.90851 -6.134348,-7.43975 -6.134348,-17.7208 0,-4.73795 21.769348,2.55887 21.208256,-3.46181 -0.65644,-7.04381 -23.571092,-27.39353 -22.165523,-32.19661 2.606978,-8.90851 2.624949,-24.022732 7.286457,-30.760214 4.661509,-6.737483 13.762158,-1.297159 16.375758,-8.03189 2.776661,-7.154908 1.828518,-18.21464 9.624481,-17.531898 7.086098,0.620575 8.119121,20.855535 14.282711,24.623516 6.163579,3.76798 18.937189,12.14041 23.598699,18.877886 4.66151,6.73748 10.93678,10.17141 13.54376,19.07991 2.60698,8.90851 -3.15505,12.70827 -3.15505,22.98932 z"
       style="fill:#b3b3b3;stroke:#0054ca;stroke-width:0;stroke-opacity:0"
       id="path12106" />
    <path
       sodipodi:nodetypes="sssss"
       d="m 70.081857,100.74265 c -10e-7,11.1738 -6.605639,21.90058 -10.637424,21.90058 -4.031786,0 -1.460039,-13.64685 -1.46004,-24.820657 0,-11.173805 12.862948,-15.226117 16.894734,-15.226116 4.031785,0 -4.79727,6.972389 -4.79727,18.146193 z"
       style="fill:#d0d0d0;fill-opacity:1;stroke:#0054ca;stroke-width:0;stroke-opacity:0"
       id="path12113" />
    <path
       sodipodi:nodetypes="cccc"
       d="m 157.17599,165.63398 c -9.1034,19.1236 -21.71952,37.28868 -19.37031,59.53742 l -10.1763,-2.77687 c 10.08696,-30.03809 19.80298,-42.75464 29.54661,-56.76055 z"
       style="fill:#2ca02c;fill-opacity:1;stroke:#0054ca;stroke-width:0;stroke-opacity:0"
       id="rect12116" />
    <path
       id="path12119"
       style="fill:#2ca02c;fill-opacity:1;stroke:#0054ca;stroke-width:0;stroke-opacity:0"
       d="m 166.97088,164.88053 c -9.1034,19.1236 -21.71952,37.28868 -19.37031,59.53742 l -10.1763,-2.77687 c 10.08696,-30.03809 19.80298,-42.75464 29.54661,-56.76055 z"
       sodipodi:nodetypes="cccc" />
    <path
       sodipodi:nodetypes="cccc"
       d="m 176.76577,173.92197 c -9.1034,14.76739 -21.71952,28.79461 -19.37031,45.97526 l -10.1763,-2.14432 c 10.08696,-23.19565 19.80298,-33.01547 29.54661,-43.83094 z"
       style="fill:#2ca02c;fill-opacity:1;stroke:#0054ca;stroke-width:0;stroke-opacity:0"
       id="path12121" />
    <path
       id="path12123"
       style="fill:#2ca02c;fill-opacity:1;stroke:#0054ca;stroke-width:0;stroke-opacity:0"
       d="m 124.02404,176.93578 c -9.1034,14.76739 -21.71952,28.79461 -19.37031,45.97526 l -10.176304,-2.14432 c 10.086964,-23.19565 19.802984,-33.01547 29.546614,-43.83094 z"
       sodipodi:nodetypes="cccc" />
    <path
       sodipodi:nodetypes="cccc"
       d="m 36.461515,172.41507 c 9.1034,14.76739 21.71952,28.79461 19.37031,45.97526 l 10.176304,-2.14432 C 55.921165,193.05036 46.205145,183.23054 36.461515,172.41507 Z"
       style="fill:#2ca02c;fill-opacity:1;stroke:#0054ca;stroke-width:0;stroke-opacity:0"
       id="path12125" />
    <path
       id="path12127"
       style="fill:#2ca02c;fill-opacity:1;stroke:#0054ca;stroke-width:0;stroke-opacity:0"
       d="m 39.475329,147.5511 c 12.121236,22.99578 28.919681,44.83897 25.791693,71.59268 l 13.549815,-3.33914 C 65.385979,179.68438 52.449035,164.39295 39.475329,147.5511 Z"
       sodipodi:nodetypes="cccc" />
  </g>
</svg>
