<?xml version="1.0" encoding="UTF-8" standalone="no"?>
<svg
   xmlns:dc="http://purl.org/dc/elements/1.1/"
   xmlns:cc="http://creativecommons.org/ns#"
   xmlns:rdf="http://www.w3.org/1999/02/22-rdf-syntax-ns#"
   xmlns:svg="http://www.w3.org/2000/svg"
   xmlns="http://www.w3.org/2000/svg"
   xmlns:sodipodi="http://sodipodi.sourceforge.net/DTD/sodipodi-0.dtd"
   xmlns:inkscape="http://www.inkscape.org/namespaces/inkscape"
   width="60.941139mm"
   height="79.999992mm"
   viewBox="0 0 60.941139 79.999992"
   version="1.1"
   id="svg8"
   inkscape:version="1.0 (4035a4fb49, 2020-05-01)"
   sodipodi:docname="egg.svg"
   inkscape:export-filename="C:\Users\AGP\Documents\Inkscape\bird-game\card-back-v1.png"
   inkscape:export-xdpi="96"
   inkscape:export-ydpi="96">
  <defs
     id="defs2">
    <clipPath
       id="clipPath1669"
       clipPathUnits="userSpaceOnUse">
      <path
         id="path1671"
         style="fill:#de8787;fill-opacity:1;stroke:#0054ca;stroke-width:0;stroke-opacity:0"
         d="m -113.69014,-89.478568 c -7.341,-1.618028 4.44585,-22.944152 16.341582,-23.447782 4.580904,-0.19392 8.24496,9.30249 9.17247,10.12456 1.417254,1.25615 3.470971,-8.72084 7.412492,-9.06184 6.634429,-0.57396 12.259946,1.78553 11.759325,2.65481 -0.762684,1.31938 -6.35749,-1.70326 -11.027043,0.0619 -1.785438,0.67492 -4.200461,11.45989 -8.338065,11.608064 -3.758664,0.134569 -5.598476,-9.946664 -9.292172,-10.340174 -11.839379,-1.26134 -8.859259,19.980653 -16.028589,18.400462 z"
         sodipodi:nodetypes="sssscssss" />
    </clipPath>
    <clipPath
       id="clipPath1673"
       clipPathUnits="userSpaceOnUse">
      <path
         id="path1675"
         style="fill:#de8787;fill-opacity:1;stroke:#0054ca;stroke-width:0;stroke-opacity:0"
         d="m -113.69014,-89.478568 c -7.341,-1.618028 4.44585,-22.944152 16.341582,-23.447782 4.580904,-0.19392 8.24496,9.30249 9.17247,10.12456 1.417254,1.25615 3.470971,-8.72084 7.412492,-9.06184 6.634429,-0.57396 12.259946,1.78553 11.759325,2.65481 -0.762684,1.31938 -6.35749,-1.70326 -11.027043,0.0619 -1.785438,0.67492 -4.200461,11.45989 -8.338065,11.608064 -3.758664,0.134569 -5.598476,-9.946664 -9.292172,-10.340174 -11.839379,-1.26134 -8.859259,19.980653 -16.028589,18.400462 z"
         sodipodi:nodetypes="sssscssss" />
    </clipPath>
    <clipPath
       id="clipPath1677"
       clipPathUnits="userSpaceOnUse">
      <path
         id="path1679"
         style="fill:#de8787;fill-opacity:1;stroke:#0054ca;stroke-width:0;stroke-opacity:0"
         d="m -113.69014,-89.478568 c -7.341,-1.618028 4.44585,-22.944152 16.341582,-23.447782 4.580904,-0.19392 8.24496,9.30249 9.17247,10.12456 1.417254,1.25615 3.470971,-8.72084 7.412492,-9.06184 6.634429,-0.57396 12.259946,1.78553 11.759325,2.65481 -0.762684,1.31938 -6.35749,-1.70326 -11.027043,0.0619 -1.785438,0.67492 -4.200461,11.45989 -8.338065,11.608064 -3.758664,0.134569 -5.598476,-9.946664 -9.292172,-10.340174 -11.839379,-1.26134 -8.859259,19.980653 -16.028589,18.400462 z"
         sodipodi:nodetypes="sssscssss" />
    </clipPath>
    <clipPath
       id="clipPath1681"
       clipPathUnits="userSpaceOnUse">
      <path
         id="path1683"
         style="fill:#de8787;fill-opacity:1;stroke:#0054ca;stroke-width:0;stroke-opacity:0"
         d="m -104.20079,-100.36961 c -7.14306,-2.34199 6.711651,-22.38645 18.598313,-21.70135 4.577409,0.26386 7.276234,10.0783 8.117144,10.98877 1.284929,1.39121 4.323302,-8.33126 8.279181,-8.27751 6.658595,0.0905 12.020788,2.99917 11.435978,3.8142 -0.890449,1.23675 -6.155956,-2.32873 -10.978253,-1.03801 -1.84384,0.49351 -5.322289,10.9839 -9.454046,10.71874 -3.753348,-0.24091 -4.578704,-10.45535 -8.214748,-11.21524 -11.654592,-2.43565 -10.807549,18.997634 -17.783569,16.7104 z"
         sodipodi:nodetypes="sssscssss" />
    </clipPath>
    <clipPath
       id="clipPath1685"
       clipPathUnits="userSpaceOnUse">
      <path
         id="path1687"
         style="fill:#de8787;fill-opacity:1;stroke:#0054ca;stroke-width:0;stroke-opacity:0"
         d="m -23.447244,-142.76585 c -4.32254,-6.15012 18.771168,-13.92275 27.8860022,-6.26234 3.5099935,2.94996 -0.199152,12.42884 -0.070042,13.66149 0.1972823,1.8835 8.4485848,-4.08928 11.5862518,-1.67953 5.281363,4.05614 7.837865,9.59491 6.881652,9.89811 -1.453419,0.45827 -3.539516,-5.54893 -8.175793,-7.39972 -1.772715,-0.70767 -10.8360701,5.61717 -13.98818318,2.93278 -2.86340562,-2.43856 2.58624668,-11.11711 0.1273231,-13.90134 -7.88157112,-8.92428 -20.02575192,8.75684 -24.24721092,2.75055 z"
         sodipodi:nodetypes="sssscssss" />
    </clipPath>
    <clipPath
       id="clipPath1689"
       clipPathUnits="userSpaceOnUse">
      <path
         id="path1691"
         style="fill:#de8787;fill-opacity:1;stroke:#0054ca;stroke-width:0;stroke-opacity:0"
         d="m 6.2107419,-144.54511 c -2.9750751,-6.90342 21.2194241,-9.79467 28.5772231,-0.43385 2.833376,3.60475 -2.733859,12.12607 -2.859271,13.3591 -0.191632,1.88409 9.105773,-2.27722 11.685023,0.72267 4.341428,5.04947 5.712588,10.99367 4.714601,11.09515 -1.516384,0.1517 -2.331369,-6.15496 -6.491811,-8.9138 -1.590776,-1.05487 -11.755025,3.28517 -14.292317,0.0135 -2.304889,-2.97207 4.802666,-10.35439 2.964343,-13.58221 -5.892365,-10.34611 -21.3922865,4.48142 -24.2977911,-2.26056 z"
         sodipodi:nodetypes="sssscssss" />
    </clipPath>
    <clipPath
       id="clipPath1693"
       clipPathUnits="userSpaceOnUse">
      <path
         id="path1695"
         style="fill:#de8787;fill-opacity:1;stroke:#0054ca;stroke-width:0;stroke-opacity:0"
         d="m 6.2107419,-144.54511 c -2.9750751,-6.90342 21.2194241,-9.79467 28.5772231,-0.43385 2.833376,3.60475 -2.733859,12.12607 -2.859271,13.3591 -0.191632,1.88409 9.105773,-2.27722 11.685023,0.72267 4.341428,5.04947 5.712588,10.99367 4.714601,11.09515 -1.516384,0.1517 -2.331369,-6.15496 -6.491811,-8.9138 -1.590776,-1.05487 -11.755025,3.28517 -14.292317,0.0135 -2.304889,-2.97207 4.802666,-10.35439 2.964343,-13.58221 -5.892365,-10.34611 -21.3922865,4.48142 -24.2977911,-2.26056 z"
         sodipodi:nodetypes="sssscssss" />
    </clipPath>
    <clipPath
       id="clipPath1697"
       clipPathUnits="userSpaceOnUse">
      <path
         id="path1699"
         style="fill:#de8787;fill-opacity:1;stroke:#0054ca;stroke-width:0;stroke-opacity:0"
         d="m 138.94237,40.334616 c 7.41222,-1.251877 4.47941,22.93762 -6.36006,27.863876 -4.17416,1.897015 -11.13094,-5.533346 -12.29898,-5.947778 -1.7848,-0.633263 0.0513,9.386062 -3.47495,11.179748 -5.93547,3.019153 -12.03526,2.940555 -11.89702,1.946995 0.21248,-1.50907 6.53239,-0.804172 10.19973,-4.191084 1.40223,-1.295011 -0.40181,-12.198833 3.37852,-13.887263 3.43413,-1.533765 8.91892,7.122627 12.49078,6.102793 11.44886,-3.268867 0.72309,-21.844683 7.96198,-23.067287 z"
         sodipodi:nodetypes="sssscssss" />
    </clipPath>
    <clipPath
       id="clipPath1701"
       clipPathUnits="userSpaceOnUse">
      <path
         id="path1703"
         style="fill:#de8787;fill-opacity:1;stroke:#0054ca;stroke-width:0;stroke-opacity:0"
         d="m 143.71021,-16.710394 c 6.3465,-4.028666 13.02499,19.404878 4.94459,28.149547 -3.11169,3.367446 -12.40574,-0.783169 -13.64309,-0.712144 -1.8907,0.108527 3.68762,8.631469 1.13304,11.652393 -4.29992,5.08486 -9.95273,7.378178 -10.21065,6.408769 -0.38944,-1.473354 5.70917,-3.274767 7.77586,-7.81892 0.79021,-1.73749 -5.1016,-11.0881353 -2.27201,-14.1105804 2.57046,-2.7456121 10.98326,3.1059651 13.87999,0.7806368 9.2849,-7.45335911 -7.80582,-20.4152444 -1.60773,-24.3497014 z"
         sodipodi:nodetypes="sssscssss" />
    </clipPath>
    <clipPath
       id="clipPath1705"
       clipPathUnits="userSpaceOnUse">
      <path
         id="path1707"
         style="fill:#de8787;fill-opacity:1;stroke:#0054ca;stroke-width:0;stroke-opacity:0"
         d="m 138.58687,41.539633 c 7.42282,-1.187464 4.28006,22.975652 -6.60178,27.807596 -4.19048,1.860696 -11.08247,-5.629795 -12.24687,-6.054355 -1.77923,-0.648737 -0.0302,9.386154 -3.5719,11.149151 -5.96146,2.967497 -12.06034,2.835934 -11.91347,1.843611 0.22557,-1.507168 6.53913,-0.747416 10.23573,-4.102354 1.41343,-1.282786 -0.29586,-12.201863 3.49899,-13.857401 3.44732,-1.503886 8.85674,7.199808 12.43732,6.211029 11.47681,-3.169324 0.91275,-21.837581 8.16198,-22.997277 z"
         sodipodi:nodetypes="sssscssss" />
    </clipPath>
    <clipPath
       id="clipPath1709"
       clipPathUnits="userSpaceOnUse">
      <path
         id="path1711"
         style="fill:#de8787;fill-opacity:1;stroke:#0054ca;stroke-width:0;stroke-opacity:0"
         d="m 37.862063,139.63641 c 4.92629,5.67802 -17.255968,15.76169 -27.103427,9.06919 -3.7921205,-2.57723 -1.0674102,-12.38452 -1.3213593,-13.59761 -0.3880391,-1.85364 -7.9882966,4.92827 -11.355021,2.85053 -5.6669184,-3.4973 -8.7741007,-8.74698 -7.8537301,-9.14597 1.3992039,-0.60387 4.0861217,5.15969 8.88675399,6.52879 1.83555705,0.52349 10.20780111,-6.69132 13.61686041,-4.34184 3.096822,2.13432 -1.44084,11.32267 1.288799,13.84206 8.749295,8.07538 19.030033,-10.75039 23.841124,-5.20515 z"
         sodipodi:nodetypes="sssscssss" />
    </clipPath>
    <clipPath
       id="clipPath1713"
       clipPathUnits="userSpaceOnUse">
      <path
         id="path1715"
         style="fill:#de8787;fill-opacity:1;stroke:#0054ca;stroke-width:0;stroke-opacity:0"
         d="m 0.57383108,144.67734 c 3.29550492,6.75632 -20.73681008,10.77888 -28.52544608,1.77337 -2.999288,-3.46794 2.162259,-12.24093 2.229716,-13.47848 0.103076,-1.891 -8.988979,2.70168 -11.706057,-0.17397 -4.573423,-4.84034 -6.221799,-10.71371 -5.229668,-10.86187 1.507603,-0.22265 2.617412,6.03887 6.90264,8.59959 1.638489,0.97912 11.588052,-3.83276 14.275963,-0.68365 2.441714,2.86071 -4.311864,10.5682 -2.32421,13.70626 6.371013,10.05844 21.1586209,-5.47958 24.37706208,1.11875 z"
         sodipodi:nodetypes="sssscssss" />
    </clipPath>
    <clipPath
       id="clipPath1717"
       clipPathUnits="userSpaceOnUse">
      <path
         id="path1719"
         style="fill:#de8787;fill-opacity:1;stroke:#0054ca;stroke-width:0;stroke-opacity:0"
         d="m -14.329137,143.96714 c 2.582167,7.05979 -21.736633,8.58594 -28.556402,-1.17382 -2.626186,-3.75838 3.411421,-11.95315 3.605971,-13.17717 0.297277,-1.87034 -9.219419,1.76156 -11.625895,-1.37862 -4.050612,-5.28561 -5.08534,-11.29751 -4.083226,-11.34271 1.522515,-0.0662 1.981568,6.27632 5.980288,9.26475 1.52894,1.14265 11.92116,-2.61895 14.270461,0.79023 2.134113,3.09697 -5.377326,10.06793 -3.723422,13.39402 5.301246,10.66108 21.61044,-3.27138 24.132225,3.62332 z"
         sodipodi:nodetypes="sssscssss" />
    </clipPath>
    <clipPath
       id="clipPath1723"
       clipPathUnits="userSpaceOnUse">
      <path
         id="path1725"
         style="fill:#de8787;fill-opacity:1;stroke:#0054ca;stroke-width:0;stroke-opacity:0"
         d="m 109.29693,94.794744 c 7.25555,1.966021 -5.53419,22.706216 -17.440408,22.642396 -4.58494,-0.0246 -7.792288,-9.68483 -8.679569,-10.55017 -1.355783,-1.32226 -3.882614,8.54553 -7.835907,8.69831 -6.654243,0.25715 -12.160929,-2.36774 -11.619451,-3.21218 0.824691,-1.28153 6.269099,2.00429 11.017464,0.46366 1.815572,-0.58907 4.741803,-11.2467 8.881767,-11.19753 3.760806,0.0447 5.118114,10.20215 8.788861,10.77124 11.765823,1.8241 9.801363,-19.535771 16.887243,-17.615726 z"
         sodipodi:nodetypes="sssscssss" />
    </clipPath>
  </defs>
  <sodipodi:namedview
     id="base"
     pagecolor="#ffffff"
     bordercolor="#666666"
     borderopacity="1.0"
     inkscape:pageopacity="0.0"
     inkscape:pageshadow="2"
     inkscape:zoom="0.82801886"
     inkscape:cx="-284.75187"
     inkscape:cy="179.16287"
     inkscape:document-units="mm"
     inkscape:current-layer="layer1"
     inkscape:document-rotation="0"
     showgrid="false"
     inkscape:window-width="2400"
     inkscape:window-height="1272"
     inkscape:window-x="4792"
     inkscape:window-y="-8"
     inkscape:window-maximized="1"
     inkscape:snap-global="false" />
  <metadata
     id="metadata5">
    <rdf:RDF>
      <cc:Work
         rdf:about="">
        <dc:format>image/svg+xml</dc:format>
        <dc:type
           rdf:resource="http://purl.org/dc/dcmitype/StillImage" />
        <dc:title></dc:title>
      </cc:Work>
    </rdf:RDF>
  </metadata>
  <g
     inkscape:label="Layer 1"
     inkscape:groupmode="layer"
     id="layer1"
     transform="translate(-50,-78.941664)">
    <path
       sodipodi:nodetypes="sssss"
       d="m 110.94114,129.91771 c 0,16.15942 -15.071571,29.02395 -30.470565,29.02395 -15.398991,0 -30.470573,-13.09982 -30.470574,-29.25924 1e-6,-16.15942 15.071584,-50.740755 30.470574,-50.740755 15.398994,3e-6 30.470565,34.816625 30.470565,50.976045 z"
       style="opacity:1;fill:#decd87;fill-opacity:1;stroke:#0054ca;stroke-width:0;stroke-opacity:0"
       id="path1840" />
    <path
       id="path1843"
       style="opacity:1;fill:#e6d9a5;fill-opacity:1;stroke:#0054ca;stroke-width:0;stroke-opacity:0"
       d="m 106.94114,125.68242 c 0,16.15942 -12.248041,29.72983 -27.647035,29.72983 -15.398991,0 -29.294103,-9.57041 -29.294104,-25.72983 1e-6,-16.15942 15.071584,-50.740754 30.470574,-50.740754 15.398994,3e-6 26.470565,30.581334 26.470565,46.740754 z"
       sodipodi:nodetypes="sssss" />
    <path
       sodipodi:nodetypes="sssss"
       d="m 71.851898,95.798749 c 2.04253,-5.548693 9.228427,-11.019867 7.765037,-11.558557 -1.463395,-0.53869 -11.021917,4.059097 -13.064449,9.607789 -2.042533,5.548705 -2.512017,10.483489 -1.048626,11.022189 1.463394,0.53868 4.305505,-3.52273 6.348038,-9.071421 z"
       style="opacity:1;fill:#ece2bb;fill-opacity:1;stroke:#0054ca;stroke-width:0;stroke-opacity:0"
       id="path1845" />
  </g>
</svg>
