<?xml version="1.0" encoding="UTF-8" standalone="no"?>
<svg
   xmlns:dc="http://purl.org/dc/elements/1.1/"
   xmlns:cc="http://creativecommons.org/ns#"
   xmlns:rdf="http://www.w3.org/1999/02/22-rdf-syntax-ns#"
   xmlns:svg="http://www.w3.org/2000/svg"
   xmlns="http://www.w3.org/2000/svg"
   xmlns:sodipodi="http://sodipodi.sourceforge.net/DTD/sodipodi-0.dtd"
   xmlns:inkscape="http://www.inkscape.org/namespaces/inkscape"
   inkscape:export-ydpi="96"
   inkscape:export-xdpi="96"
   inkscape:export-filename="C:\Users\AGP\Documents\Inkscape\bird-game\card-back-v1.png"
   sodipodi:docname="egg-cracking.svg"
   inkscape:version="1.0 (4035a4fb49, 2020-05-01)"
   id="svg8"
   version="1.1"
   viewBox="0 0 360 80"
   height="80mm"
   width="360mm">
  <defs
     id="defs2">
    <clipPath
       clipPathUnits="userSpaceOnUse"
       id="clipPath1669">
      <path
         sodipodi:nodetypes="sssscssss"
         d="m -113.69014,-89.478568 c -7.341,-1.618028 4.44585,-22.944152 16.341582,-23.447782 4.580904,-0.19392 8.24496,9.30249 9.17247,10.12456 1.417254,1.25615 3.470971,-8.72084 7.412492,-9.06184 6.634429,-0.57396 12.259946,1.78553 11.759325,2.65481 -0.762684,1.31938 -6.35749,-1.70326 -11.027043,0.0619 -1.785438,0.67492 -4.200461,11.45989 -8.338065,11.608064 -3.758664,0.134569 -5.598476,-9.946664 -9.292172,-10.340174 -11.839379,-1.26134 -8.859259,19.980653 -16.028589,18.400462 z"
         style="fill:#de8787;fill-opacity:1;stroke:#0054ca;stroke-width:0;stroke-opacity:0"
         id="path1671" />
    </clipPath>
    <clipPath
       clipPathUnits="userSpaceOnUse"
       id="clipPath1673">
      <path
         sodipodi:nodetypes="sssscssss"
         d="m -113.69014,-89.478568 c -7.341,-1.618028 4.44585,-22.944152 16.341582,-23.447782 4.580904,-0.19392 8.24496,9.30249 9.17247,10.12456 1.417254,1.25615 3.470971,-8.72084 7.412492,-9.06184 6.634429,-0.57396 12.259946,1.78553 11.759325,2.65481 -0.762684,1.31938 -6.35749,-1.70326 -11.027043,0.0619 -1.785438,0.67492 -4.200461,11.45989 -8.338065,11.608064 -3.758664,0.134569 -5.598476,-9.946664 -9.292172,-10.340174 -11.839379,-1.26134 -8.859259,19.980653 -16.028589,18.400462 z"
         style="fill:#de8787;fill-opacity:1;stroke:#0054ca;stroke-width:0;stroke-opacity:0"
         id="path1675" />
    </clipPath>
    <clipPath
       clipPathUnits="userSpaceOnUse"
       id="clipPath1677">
      <path
         sodipodi:nodetypes="sssscssss"
         d="m -113.69014,-89.478568 c -7.341,-1.618028 4.44585,-22.944152 16.341582,-23.447782 4.580904,-0.19392 8.24496,9.30249 9.17247,10.12456 1.417254,1.25615 3.470971,-8.72084 7.412492,-9.06184 6.634429,-0.57396 12.259946,1.78553 11.759325,2.65481 -0.762684,1.31938 -6.35749,-1.70326 -11.027043,0.0619 -1.785438,0.67492 -4.200461,11.45989 -8.338065,11.608064 -3.758664,0.134569 -5.598476,-9.946664 -9.292172,-10.340174 -11.839379,-1.26134 -8.859259,19.980653 -16.028589,18.400462 z"
         style="fill:#de8787;fill-opacity:1;stroke:#0054ca;stroke-width:0;stroke-opacity:0"
         id="path1679" />
    </clipPath>
    <clipPath
       clipPathUnits="userSpaceOnUse"
       id="clipPath1681">
      <path
         sodipodi:nodetypes="sssscssss"
         d="m -104.20079,-100.36961 c -7.14306,-2.34199 6.711651,-22.38645 18.598313,-21.70135 4.577409,0.26386 7.276234,10.0783 8.117144,10.98877 1.284929,1.39121 4.323302,-8.33126 8.279181,-8.27751 6.658595,0.0905 12.020788,2.99917 11.435978,3.8142 -0.890449,1.23675 -6.155956,-2.32873 -10.978253,-1.03801 -1.84384,0.49351 -5.322289,10.9839 -9.454046,10.71874 -3.753348,-0.24091 -4.578704,-10.45535 -8.214748,-11.21524 -11.654592,-2.43565 -10.807549,18.997634 -17.783569,16.7104 z"
         style="fill:#de8787;fill-opacity:1;stroke:#0054ca;stroke-width:0;stroke-opacity:0"
         id="path1683" />
    </clipPath>
    <clipPath
       clipPathUnits="userSpaceOnUse"
       id="clipPath1685">
      <path
         sodipodi:nodetypes="sssscssss"
         d="m -23.447244,-142.76585 c -4.32254,-6.15012 18.771168,-13.92275 27.8860022,-6.26234 3.5099935,2.94996 -0.199152,12.42884 -0.070042,13.66149 0.1972823,1.8835 8.4485848,-4.08928 11.5862518,-1.67953 5.281363,4.05614 7.837865,9.59491 6.881652,9.89811 -1.453419,0.45827 -3.539516,-5.54893 -8.175793,-7.39972 -1.772715,-0.70767 -10.8360701,5.61717 -13.98818318,2.93278 -2.86340562,-2.43856 2.58624668,-11.11711 0.1273231,-13.90134 -7.88157112,-8.92428 -20.02575192,8.75684 -24.24721092,2.75055 z"
         style="fill:#de8787;fill-opacity:1;stroke:#0054ca;stroke-width:0;stroke-opacity:0"
         id="path1687" />
    </clipPath>
    <clipPath
       clipPathUnits="userSpaceOnUse"
       id="clipPath1689">
      <path
         sodipodi:nodetypes="sssscssss"
         d="m 6.2107419,-144.54511 c -2.9750751,-6.90342 21.2194241,-9.79467 28.5772231,-0.43385 2.833376,3.60475 -2.733859,12.12607 -2.859271,13.3591 -0.191632,1.88409 9.105773,-2.27722 11.685023,0.72267 4.341428,5.04947 5.712588,10.99367 4.714601,11.09515 -1.516384,0.1517 -2.331369,-6.15496 -6.491811,-8.9138 -1.590776,-1.05487 -11.755025,3.28517 -14.292317,0.0135 -2.304889,-2.97207 4.802666,-10.35439 2.964343,-13.58221 -5.892365,-10.34611 -21.3922865,4.48142 -24.2977911,-2.26056 z"
         style="fill:#de8787;fill-opacity:1;stroke:#0054ca;stroke-width:0;stroke-opacity:0"
         id="path1691" />
    </clipPath>
    <clipPath
       clipPathUnits="userSpaceOnUse"
       id="clipPath1693">
      <path
         sodipodi:nodetypes="sssscssss"
         d="m 6.2107419,-144.54511 c -2.9750751,-6.90342 21.2194241,-9.79467 28.5772231,-0.43385 2.833376,3.60475 -2.733859,12.12607 -2.859271,13.3591 -0.191632,1.88409 9.105773,-2.27722 11.685023,0.72267 4.341428,5.04947 5.712588,10.99367 4.714601,11.09515 -1.516384,0.1517 -2.331369,-6.15496 -6.491811,-8.9138 -1.590776,-1.05487 -11.755025,3.28517 -14.292317,0.0135 -2.304889,-2.97207 4.802666,-10.35439 2.964343,-13.58221 -5.892365,-10.34611 -21.3922865,4.48142 -24.2977911,-2.26056 z"
         style="fill:#de8787;fill-opacity:1;stroke:#0054ca;stroke-width:0;stroke-opacity:0"
         id="path1695" />
    </clipPath>
    <clipPath
       clipPathUnits="userSpaceOnUse"
       id="clipPath1697">
      <path
         sodipodi:nodetypes="sssscssss"
         d="m 138.94237,40.334616 c 7.41222,-1.251877 4.47941,22.93762 -6.36006,27.863876 -4.17416,1.897015 -11.13094,-5.533346 -12.29898,-5.947778 -1.7848,-0.633263 0.0513,9.386062 -3.47495,11.179748 -5.93547,3.019153 -12.03526,2.940555 -11.89702,1.946995 0.21248,-1.50907 6.53239,-0.804172 10.19973,-4.191084 1.40223,-1.295011 -0.40181,-12.198833 3.37852,-13.887263 3.43413,-1.533765 8.91892,7.122627 12.49078,6.102793 11.44886,-3.268867 0.72309,-21.844683 7.96198,-23.067287 z"
         style="fill:#de8787;fill-opacity:1;stroke:#0054ca;stroke-width:0;stroke-opacity:0"
         id="path1699" />
    </clipPath>
    <clipPath
       clipPathUnits="userSpaceOnUse"
       id="clipPath1701">
      <path
         sodipodi:nodetypes="sssscssss"
         d="m 143.71021,-16.710394 c 6.3465,-4.028666 13.02499,19.404878 4.94459,28.149547 -3.11169,3.367446 -12.40574,-0.783169 -13.64309,-0.712144 -1.8907,0.108527 3.68762,8.631469 1.13304,11.652393 -4.29992,5.08486 -9.95273,7.378178 -10.21065,6.408769 -0.38944,-1.473354 5.70917,-3.274767 7.77586,-7.81892 0.79021,-1.73749 -5.1016,-11.0881353 -2.27201,-14.1105804 2.57046,-2.7456121 10.98326,3.1059651 13.87999,0.7806368 9.2849,-7.45335911 -7.80582,-20.4152444 -1.60773,-24.3497014 z"
         style="fill:#de8787;fill-opacity:1;stroke:#0054ca;stroke-width:0;stroke-opacity:0"
         id="path1703" />
    </clipPath>
    <clipPath
       clipPathUnits="userSpaceOnUse"
       id="clipPath1705">
      <path
         sodipodi:nodetypes="sssscssss"
         d="m 138.58687,41.539633 c 7.42282,-1.187464 4.28006,22.975652 -6.60178,27.807596 -4.19048,1.860696 -11.08247,-5.629795 -12.24687,-6.054355 -1.77923,-0.648737 -0.0302,9.386154 -3.5719,11.149151 -5.96146,2.967497 -12.06034,2.835934 -11.91347,1.843611 0.22557,-1.507168 6.53913,-0.747416 10.23573,-4.102354 1.41343,-1.282786 -0.29586,-12.201863 3.49899,-13.857401 3.44732,-1.503886 8.85674,7.199808 12.43732,6.211029 11.47681,-3.169324 0.91275,-21.837581 8.16198,-22.997277 z"
         style="fill:#de8787;fill-opacity:1;stroke:#0054ca;stroke-width:0;stroke-opacity:0"
         id="path1707" />
    </clipPath>
    <clipPath
       clipPathUnits="userSpaceOnUse"
       id="clipPath1709">
      <path
         sodipodi:nodetypes="sssscssss"
         d="m 37.862063,139.63641 c 4.92629,5.67802 -17.255968,15.76169 -27.103427,9.06919 -3.7921205,-2.57723 -1.0674102,-12.38452 -1.3213593,-13.59761 -0.3880391,-1.85364 -7.9882966,4.92827 -11.355021,2.85053 -5.6669184,-3.4973 -8.7741007,-8.74698 -7.8537301,-9.14597 1.3992039,-0.60387 4.0861217,5.15969 8.88675399,6.52879 1.83555705,0.52349 10.20780111,-6.69132 13.61686041,-4.34184 3.096822,2.13432 -1.44084,11.32267 1.288799,13.84206 8.749295,8.07538 19.030033,-10.75039 23.841124,-5.20515 z"
         style="fill:#de8787;fill-opacity:1;stroke:#0054ca;stroke-width:0;stroke-opacity:0"
         id="path1711" />
    </clipPath>
    <clipPath
       clipPathUnits="userSpaceOnUse"
       id="clipPath1713">
      <path
         sodipodi:nodetypes="sssscssss"
         d="m 0.57383108,144.67734 c 3.29550492,6.75632 -20.73681008,10.77888 -28.52544608,1.77337 -2.999288,-3.46794 2.162259,-12.24093 2.229716,-13.47848 0.103076,-1.891 -8.988979,2.70168 -11.706057,-0.17397 -4.573423,-4.84034 -6.221799,-10.71371 -5.229668,-10.86187 1.507603,-0.22265 2.617412,6.03887 6.90264,8.59959 1.638489,0.97912 11.588052,-3.83276 14.275963,-0.68365 2.441714,2.86071 -4.311864,10.5682 -2.32421,13.70626 6.371013,10.05844 21.1586209,-5.47958 24.37706208,1.11875 z"
         style="fill:#de8787;fill-opacity:1;stroke:#0054ca;stroke-width:0;stroke-opacity:0"
         id="path1715" />
    </clipPath>
    <clipPath
       clipPathUnits="userSpaceOnUse"
       id="clipPath1717">
      <path
         sodipodi:nodetypes="sssscssss"
         d="m -14.329137,143.96714 c 2.582167,7.05979 -21.736633,8.58594 -28.556402,-1.17382 -2.626186,-3.75838 3.411421,-11.95315 3.605971,-13.17717 0.297277,-1.87034 -9.219419,1.76156 -11.625895,-1.37862 -4.050612,-5.28561 -5.08534,-11.29751 -4.083226,-11.34271 1.522515,-0.0662 1.981568,6.27632 5.980288,9.26475 1.52894,1.14265 11.92116,-2.61895 14.270461,0.79023 2.134113,3.09697 -5.377326,10.06793 -3.723422,13.39402 5.301246,10.66108 21.61044,-3.27138 24.132225,3.62332 z"
         style="fill:#de8787;fill-opacity:1;stroke:#0054ca;stroke-width:0;stroke-opacity:0"
         id="path1719" />
    </clipPath>
    <clipPath
       clipPathUnits="userSpaceOnUse"
       id="clipPath1723">
      <path
         sodipodi:nodetypes="sssscssss"
         d="m 109.29693,94.794744 c 7.25555,1.966021 -5.53419,22.706216 -17.440408,22.642396 -4.58494,-0.0246 -7.792288,-9.68483 -8.679569,-10.55017 -1.355783,-1.32226 -3.882614,8.54553 -7.835907,8.69831 -6.654243,0.25715 -12.160929,-2.36774 -11.619451,-3.21218 0.824691,-1.28153 6.269099,2.00429 11.017464,0.46366 1.815572,-0.58907 4.741803,-11.2467 8.881767,-11.19753 3.760806,0.0447 5.118114,10.20215 8.788861,10.77124 11.765823,1.8241 9.801363,-19.535771 16.887243,-17.615726 z"
         style="fill:#de8787;fill-opacity:1;stroke:#0054ca;stroke-width:0;stroke-opacity:0"
         id="path1725" />
    </clipPath>
  </defs>
  <sodipodi:namedview
     inkscape:snap-global="true"
     inkscape:window-maximized="1"
     inkscape:window-y="-8"
     inkscape:window-x="4792"
     inkscape:window-height="1272"
     inkscape:window-width="2400"
     showgrid="false"
     inkscape:document-rotation="0"
     inkscape:current-layer="layer1"
     inkscape:document-units="mm"
     inkscape:cy="78.847269"
     inkscape:cx="715.85102"
     inkscape:zoom="0.97330192"
     inkscape:pageshadow="2"
     inkscape:pageopacity="0.0"
     borderopacity="1.0"
     bordercolor="#666666"
     pagecolor="#ffffff"
     id="base" />
  <metadata
     id="metadata5">
    <rdf:RDF>
      <cc:Work
         rdf:about="">
        <dc:format>image/svg+xml</dc:format>
        <dc:type
           rdf:resource="http://purl.org/dc/dcmitype/StillImage" />
        <dc:title></dc:title>
      </cc:Work>
    </rdf:RDF>
  </metadata>
  <g
     transform="translate(-50,-78.941664)"
     id="layer1"
     inkscape:groupmode="layer"
     inkscape:label="Layer 1">
    <path
       id="path1840"
       style="opacity:1;fill:#decd87;fill-opacity:1;stroke:#0054ca;stroke-width:0;stroke-opacity:0"
       d="m 105,124.94807 c 0,14.58404 -13.602246,26.19441 -27.499995,26.19441 -13.897747,0 -27.500003,-11.82273 -27.500004,-26.40677 1e-6,-14.58403 13.602258,-45.794045 27.500004,-45.794045 C 91.397754,78.941668 105,110.36402 105,124.94807 Z"
       sodipodi:nodetypes="sssss" />
    <path
       sodipodi:nodetypes="sssss"
       d="m 101.38996,121.12567 c 0,14.58405 -11.053983,26.83148 -24.951731,26.83148 -13.897747,0 -26.438227,-8.6374 -26.438228,-23.22144 1e-6,-14.58403 13.602258,-45.794044 27.500004,-45.794044 13.897749,3e-6 23.889955,27.599964 23.889955,42.184004 z"
       style="opacity:1;fill:#e6d9a5;fill-opacity:1;stroke:#0054ca;stroke-width:0;stroke-opacity:0"
       id="path1843" />
    <path
       id="path1845"
       style="opacity:1;fill:#ece2bb;fill-opacity:1;stroke:#0054ca;stroke-width:0;stroke-opacity:0"
       d="m 69.721561,94.155355 c 1.843404,-5.007752 8.328749,-9.945543 7.008025,-10.431715 -1.320729,-0.486173 -9.947393,3.663376 -11.790799,8.671127 -1.843406,5.007763 -2.267121,9.461453 -0.946396,9.947643 1.320728,0.48616 3.885763,-3.179303 5.72917,-8.187055 z"
       sodipodi:nodetypes="sssss" />
    <path
       sodipodi:nodetypes="sssss"
       d="m 165,124.94807 c 0,14.58404 -13.60224,26.19441 -27.5,26.19441 -13.89774,0 -27.5,-11.82273 -27.5,-26.40677 0,-14.58403 13.60226,-45.794045 27.5,-45.794045 13.89776,3e-6 27.5,31.422355 27.5,46.006405 z"
       style="opacity:1;fill:#decd87;fill-opacity:1;stroke:#0054ca;stroke-width:0;stroke-opacity:0"
       id="path4080" />
    <path
       id="path4082"
       style="opacity:1;fill:#e6d9a5;fill-opacity:1;stroke:#0054ca;stroke-width:0;stroke-opacity:0"
       d="m 161.38995,121.12567 c 0,14.58405 -11.05398,26.83147 -24.95173,26.83147 -13.89773,0 -26.43822,-8.63739 -26.43822,-23.22143 0,-14.58403 13.60226,-45.794044 27.5,-45.794044 13.89776,3e-6 23.88995,27.599964 23.88995,42.184004 z"
       sodipodi:nodetypes="sssss" />
    <path
       sodipodi:nodetypes="sssss"
       d="m 129.72156,94.155355 c 1.84341,-5.007752 8.32875,-9.945543 7.00803,-10.431715 -1.32074,-0.486174 -9.94739,3.663376 -11.7908,8.671126 -1.84341,5.007763 -2.26712,9.461454 -0.9464,9.947644 1.32073,0.48616 3.88576,-3.179303 5.72917,-8.187055 z"
       style="opacity:1;fill:#ece2bb;fill-opacity:1;stroke:#0054ca;stroke-width:0;stroke-opacity:0"
       id="path4084" />
    <path
       sodipodi:nodetypes="ccccccccccc"
       d="m 137.53608,101.72215 h 0.66946 l -0.0502,-6.761529 -2.86194,-3.815909 8.51886,-4.887043 -3.79918,-6.82847 h -0.20083 l 3.68202,6.82847 -8.63602,4.887043 2.74479,3.815909 z"
       style="opacity:1;fill:#808080;stroke:#0054ca;stroke-width:0;stroke-opacity:0"
       id="rect4092" />
    <path
       id="path4095"
       style="opacity:1;fill:#decd87;fill-opacity:1;stroke:#0054ca;stroke-width:0;stroke-opacity:0"
       d="m 225,124.94807 c 0,14.58404 -13.60224,26.19441 -27.5,26.19441 -13.89774,0 -27.5,-11.82273 -27.5,-26.40677 0,-14.58403 13.60226,-45.794045 27.5,-45.794045 13.89776,3e-6 27.5,31.422355 27.5,46.006405 z"
       sodipodi:nodetypes="sssss" />
    <path
       sodipodi:nodetypes="sssss"
       d="m 221.38995,121.12567 c 0,14.58405 -11.05398,26.83147 -24.95173,26.83147 -13.89773,0 -26.43822,-8.63739 -26.43822,-23.22143 0,-14.58403 13.60226,-45.794044 27.5,-45.794044 13.89776,3e-6 23.88995,27.599964 23.88995,42.184004 z"
       style="opacity:1;fill:#e6d9a5;fill-opacity:1;stroke:#0054ca;stroke-width:0;stroke-opacity:0"
       id="path4097" />
    <path
       id="path4099"
       style="opacity:1;fill:#ece2bb;fill-opacity:1;stroke:#0054ca;stroke-width:0;stroke-opacity:0"
       d="m 189.72156,94.155355 c 1.84341,-5.007752 8.32875,-9.945543 7.00803,-10.431715 -1.32074,-0.486174 -9.94739,3.663376 -11.7908,8.671126 -1.84341,5.007763 -2.26712,9.461454 -0.9464,9.947644 1.32073,0.48616 3.88576,-3.179303 5.72917,-8.187055 z"
       sodipodi:nodetypes="sssss" />
    <path
       id="path4101"
       style="opacity:1;fill:#808080;stroke:#0054ca;stroke-width:0;stroke-opacity:0"
       d="m 197.53608,101.72215 h 0.66946 l -0.0502,-6.761529 -2.86194,-3.815909 8.51886,-4.887043 -3.79918,-6.82847 h -0.20083 l 3.68202,6.82847 -8.63602,4.887043 2.74479,3.815909 z"
       sodipodi:nodetypes="ccccccccccc" />
    <path
       sodipodi:nodetypes="ccccccccccc"
       d="m 197.35584,101.58816 0.24221,-0.62411 6.28532,2.49305 2.52202,4.04862 7.638,-6.17374 4.99144,6.01228 -0.0727,0.18722 -5.03381,-5.90305 -7.6804,6.28296 -2.5644,-3.9394 z"
       style="opacity:1;fill:#808080;stroke:#0054ca;stroke-width:0;stroke-opacity:0"
       id="path4103" />
    <path
       inkscape:transform-center-y="6.598758"
       inkscape:transform-center-x="8.6803809"
       id="path4105"
       style="opacity:1;fill:#808080;stroke:#0054ca;stroke-width:0;stroke-opacity:0"
       d="m 197.76744,101.6517 0.33602,0.57902 -5.87332,3.35034 -4.7369,-0.56001 0.049,9.82099 -7.81294,0.14144 -0.10078,-0.17372 7.75412,-0.24278 -0.1078,-9.92232 4.6781,0.45868 z"
       sodipodi:nodetypes="ccccccccccc" />
    <path
       sodipodi:nodetypes="sssss"
       d="m 285,124.94807 c 0,14.58404 -13.60224,26.19441 -27.5,26.19441 -13.89774,0 -27.5,-11.82273 -27.5,-26.40677 0,-14.58403 13.60226,-45.794045 27.5,-45.794045 13.89776,3e-6 27.5,31.422355 27.5,46.006405 z"
       style="opacity:1;fill:#decd87;fill-opacity:1;stroke:#0054ca;stroke-width:0;stroke-opacity:0"
       id="path4107" />
    <path
       id="path4109"
       style="opacity:1;fill:#e6d9a5;fill-opacity:1;stroke:#0054ca;stroke-width:0;stroke-opacity:0"
       d="m 281.38995,121.12567 c 0,14.58405 -11.05398,26.83147 -24.95173,26.83147 -13.89773,0 -26.43822,-8.63739 -26.43822,-23.22143 0,-14.58403 13.60226,-45.794044 27.5,-45.794044 13.89776,3e-6 23.88995,27.599964 23.88995,42.184004 z"
       sodipodi:nodetypes="sssss" />
    <path
       sodipodi:nodetypes="sssss"
       d="m 249.72156,94.155355 c 1.84341,-5.007752 8.32875,-9.945543 7.00803,-10.431715 -1.32074,-0.486174 -9.94739,3.663376 -11.7908,8.671126 -1.84341,5.007763 -2.26712,9.461454 -0.9464,9.947644 1.32073,0.48616 3.88576,-3.179303 5.72917,-8.187055 z"
       style="opacity:1;fill:#ece2bb;fill-opacity:1;stroke:#0054ca;stroke-width:0;stroke-opacity:0"
       id="path4111" />
    <path
       sodipodi:nodetypes="ccccccccccc"
       d="m 257.53608,101.72215 h 0.66946 l -0.0502,-6.761529 -2.86194,-3.815909 8.51886,-4.887043 -3.79918,-6.82847 h -0.20083 l 3.68202,6.82847 -8.63602,4.887043 2.74479,3.815909 z"
       style="opacity:1;fill:#808080;stroke:#0054ca;stroke-width:0;stroke-opacity:0"
       id="path4113" />
    <path
       id="path4115"
       style="opacity:1;fill:#808080;stroke:#0054ca;stroke-width:0;stroke-opacity:0"
       d="m 257.35584,101.58816 0.24221,-0.62411 6.28532,2.49305 2.52202,4.04862 7.638,-6.17374 4.99144,6.01228 -0.0727,0.18722 -5.03381,-5.90305 -7.6804,6.28296 -2.5644,-3.9394 z"
       sodipodi:nodetypes="ccccccccccc" />
    <path
       sodipodi:nodetypes="ccccccccccc"
       d="m 257.76744,101.6517 0.33602,0.57902 -5.87332,3.35034 -4.7369,-0.56001 0.049,9.82099 -7.81294,0.14144 -0.10078,-0.17372 7.75412,-0.24278 -0.1078,-9.92232 4.6781,0.45868 z"
       style="opacity:1;fill:#808080;stroke:#0054ca;stroke-width:0;stroke-opacity:0"
       id="path4117"
       inkscape:transform-center-x="8.6803809"
       inkscape:transform-center-y="6.598758" />
    <path
       sodipodi:nodetypes="ccccc"
       d="m 256.59792,99.867088 4.35482,-2.332761 2.15333,6.126573 -7.9437,0.89721 z"
       style="opacity:1;fill:#808080;stroke:#0054ca;stroke-width:0;stroke-opacity:0"
       id="rect4119" />
    <path
       id="path4122"
       style="opacity:1;fill:#3c3c3c;fill-opacity:1;stroke:#0054ca;stroke-width:0;stroke-opacity:0"
       d="m 256.59792,100.35216 4.35482,-2.332764 1.70472,4.870474 -6.95676,0.53832 z"
       sodipodi:nodetypes="ccccc" />
    <path
       id="path4124"
       style="opacity:1;fill:#decd87;fill-opacity:1;stroke:#0054ca;stroke-width:0;stroke-opacity:0"
       d="m 345,124.94807 c 0,14.58404 -13.60224,26.19441 -27.5,26.19441 -13.89774,0 -27.5,-11.82273 -27.5,-26.40677 0,-14.58403 13.60226,-45.794045 27.5,-45.794045 13.89776,3e-6 27.5,31.422355 27.5,46.006405 z"
       sodipodi:nodetypes="sssss" />
    <path
       sodipodi:nodetypes="sssss"
       d="m 341.38995,121.12567 c 0,14.58405 -11.05398,26.83147 -24.95173,26.83147 -13.89773,0 -26.43822,-8.63739 -26.43822,-23.22143 0,-14.58403 13.60226,-45.794044 27.5,-45.794044 13.89776,3e-6 23.88995,27.599964 23.88995,42.184004 z"
       style="opacity:1;fill:#e6d9a5;fill-opacity:1;stroke:#0054ca;stroke-width:0;stroke-opacity:0"
       id="path4126" />
    <path
       id="path4128"
       style="opacity:1;fill:#ece2bb;fill-opacity:1;stroke:#0054ca;stroke-width:0;stroke-opacity:0"
       d="m 309.72156,94.155355 c 1.84341,-5.007752 8.32875,-9.945543 7.00803,-10.431715 -1.32074,-0.486174 -9.94739,3.663376 -11.7908,8.671126 -1.84341,5.007763 -2.26712,9.461454 -0.9464,9.947644 1.32073,0.48616 3.88576,-3.179303 5.72917,-8.187055 z"
       sodipodi:nodetypes="sssss" />
    <path
       id="path4130"
       style="opacity:1;fill:#808080;stroke:#0054ca;stroke-width:0;stroke-opacity:0"
       d="m 314.99998,99.69767 0.64708,-0.171682 -1.78254,-6.522524 -0.10831,-3.052642 3.34419,-6.809976 -4.78443,-2.529873 -0.19412,0.0515 4.67119,2.559919 -3.45742,6.840022 -0.005,3.082685 z"
       sodipodi:nodetypes="ccccccccccc" />
    <path
       sodipodi:nodetypes="ccccccccccc"
       d="m 317.35584,101.58816 0.24221,-0.62411 6.28532,2.49305 2.52202,4.04862 7.638,-6.17374 4.99144,6.01228 -0.0727,0.18722 -5.03381,-5.90305 -7.6804,6.28296 -2.5644,-3.9394 z"
       style="opacity:1;fill:#808080;stroke:#0054ca;stroke-width:0;stroke-opacity:0"
       id="path4132" />
    <path
       inkscape:transform-center-y="6.598758"
       inkscape:transform-center-x="8.6804309"
       id="path4134"
       style="opacity:1;fill:#808080;stroke:#0054ca;stroke-width:0;stroke-opacity:0"
       d="m 317.76744,101.6517 0.33602,0.57902 -5.87332,3.35034 -4.7369,-0.56001 0.0489,9.82099 -7.81294,0.14144 -0.10078,-0.17372 7.75412,-0.24278 -0.1078,-9.92232 4.6781,0.45868 z"
       sodipodi:nodetypes="ccccccccccc" />
    <path
       id="path4136"
       style="opacity:1;fill:#808080;stroke:#0054ca;stroke-width:0;stroke-opacity:0"
       d="m 314.04253,88.81015 2.91455,4.484944 8.32016,-2.88635 6.31028,6.503221 -5.1398,10.729435 -12.74368,0.2029 -1.88332,-2.25421 -1.88675,-9.42195 z"
       sodipodi:nodetypes="ccccccccc" />
    <path
       id="path4140"
       style="opacity:1;fill:#808080;stroke:#0054ca;stroke-width:0;stroke-opacity:0"
       d="m 315.42399,95.08589 -0.1154,-0.505652 5.11574,-1.127597 3.37556,1.503889 2.2228,-7.276862 5.81256,1.692506 0.0346,0.151702 -5.79236,-1.604014 -2.2026,7.365348 -3.35536,-1.415393 z"
       sodipodi:nodetypes="ccccccccccc" />
    <path
       sodipodi:nodetypes="ccccccccc"
       d="m 314.4766,89.84848 2.68128,4.125991 7.65426,-2.65534 5.80523,5.982734 -4.72843,9.870705 -11.72374,0.18665 -1.73259,-2.07378 -1.73574,-8.667867 z"
       style="opacity:1;fill:#3c3c3c;fill-opacity:1;stroke:#0054ca;stroke-width:0;stroke-opacity:0"
       id="path4142" />
    <path
       sodipodi:nodetypes="ssscccccccccccccs"
       d="m 404.99778,124.97203 c -0.18861,14.58223 -13.6017,26.19335 -27.49889,26.19335 -13.89718,0 -27.49889,-11.82225 -27.49889,-26.4057 0,-5.07949 0.34092,-14.72884 3.07889,-21.82094 1.59165,0.77381 4.29717,5.03294 4.29717,5.03294 l 5.03843,-4.76243 4.10272,5.06531 3.55977,-5.75103 4.08346,5.76989 4.84882,-4.54243 3.45916,3.59059 3.19732,-3.02083 4.3079,7.58101 3.91514,-6.95104 2.9883,3.77856 c 0,0 1.34235,-5.27845 2.23986,-6.11111 4.49048,6.68527 5.94831,17.13729 5.88084,22.35386 z"
       style="opacity:1;fill:#decd87;fill-opacity:1;stroke:#0054ca;stroke-width:0;stroke-opacity:0"
       id="path4144" />
    <path
       id="path4146"
       style="opacity:1;fill:#e6d9a5;fill-opacity:1;stroke:#0054ca;stroke-width:0;stroke-opacity:0"
       d="m 401.38788,121.14978 c 0,14.58346 -11.05354,26.83039 -24.95072,26.83039 -13.89718,0 -26.43716,-8.63704 -26.43716,-23.22049 0,-5.01767 1.53677,-12.03198 4.2886,-19.00906 0.42556,0.52323 3.22651,4.79871 3.22651,4.79871 l 5.07494,-3.00432 7.25046,5.964 4.90907,-7.24484 4.53781,5.96452 6.36624,-4.9431 0.76413,4.54216 4.69171,-4.09852 3.77528,4.01849 3.18613,-1.08737 c 0,0 0.8212,-3.19234 1.08915,-3.97187 1.44034,5.24714 2.22785,10.36713 2.22785,14.4613 z"
       sodipodi:nodetypes="sssccccccccccccs" />
    <path
       sodipodi:nodetypes="sssss"
       d="m 359.9845,123.55861 c -2.17827,-4.8712 -0.98576,-12.93432 -2.27047,-12.35983 -1.28472,0.5745 -4.56016,9.56905 -2.38188,14.44025 2.17829,4.8712 4.98559,8.35435 6.27031,7.77987 1.2847,-0.5745 0.56032,-4.9891 -1.61796,-9.86029 z"
       style="opacity:1;fill:#ece2bb;fill-opacity:1;stroke:#0054ca;stroke-width:0;stroke-opacity:0"
       id="path4171" />
  </g>
</svg>
