<?xml version="1.0" encoding="UTF-8" standalone="no"?>
<svg
   xmlns:dc="http://purl.org/dc/elements/1.1/"
   xmlns:cc="http://creativecommons.org/ns#"
   xmlns:rdf="http://www.w3.org/1999/02/22-rdf-syntax-ns#"
   xmlns:svg="http://www.w3.org/2000/svg"
   xmlns="http://www.w3.org/2000/svg"
   xmlns:xlink="http://www.w3.org/1999/xlink"
   xmlns:sodipodi="http://sodipodi.sourceforge.net/DTD/sodipodi-0.dtd"
   xmlns:inkscape="http://www.inkscape.org/namespaces/inkscape"
   inkscape:export-ydpi="96"
   inkscape:export-xdpi="96"
   inkscape:export-filename="C:\Users\AGP\Documents\Inkscape\basic-bird.png"
   sodipodi:docname="hawk-flying.svg"
   inkscape:version="1.0 (4035a4fb49, 2020-05-01)"
   id="svg8"
   version="1.1"
   viewBox="0 0 800 160"
   height="160mm"
   width="800mm">
  <defs
     id="defs2">
    <linearGradient
       id="linearGradient851"
       inkscape:collect="always">
      <stop
         id="stop847"
         offset="0"
         style="stop-color:#ffffff;stop-opacity:1;" />
      <stop
         id="stop849"
         offset="1"
         style="stop-color:#b3b3b3;stop-opacity:1" />
    </linearGradient>
    <radialGradient
       gradientUnits="userSpaceOnUse"
       gradientTransform="matrix(-0.00812032,1.5393679,-1.3591368,-0.00716959,240.20876,-336.69748)"
       r="8.9542255"
       fy="53.106144"
       fx="220.31052"
       cy="53.106144"
       cx="220.31052"
       id="radialGradient853"
       xlink:href="#linearGradient851"
       inkscape:collect="always" />
    <radialGradient
       r="8.9542255"
       fy="53.106144"
       fx="220.31052"
       cy="53.106144"
       cx="220.31052"
       gradientTransform="matrix(-0.00812032,1.5393679,-1.3591368,-0.00716959,604.7113,-501.4337)"
       gradientUnits="userSpaceOnUse"
       id="radialGradient1124"
       xlink:href="#linearGradient851"
       inkscape:collect="always" />
    <radialGradient
       r="8.9542255"
       fy="53.106144"
       fx="220.31052"
       cy="53.106144"
       cx="220.31052"
       gradientTransform="matrix(-0.00812032,1.5393679,-1.3591368,-0.00716959,422.46009,-419.06564)"
       gradientUnits="userSpaceOnUse"
       id="radialGradient1214"
       xlink:href="#linearGradient851"
       inkscape:collect="always" />
    <radialGradient
       r="8.9542255"
       fy="53.106144"
       fx="220.31052"
       cy="53.106144"
       cx="220.31052"
       gradientTransform="matrix(-0.00812032,1.5393679,-1.3591368,-0.00716959,786.96274,-583.80187)"
       gradientUnits="userSpaceOnUse"
       id="radialGradient1392"
       xlink:href="#linearGradient851"
       inkscape:collect="always" />
  </defs>
  <sodipodi:namedview
     inkscape:window-maximized="1"
     inkscape:window-y="-8"
     inkscape:window-x="4792"
     inkscape:window-height="1272"
     inkscape:window-width="2400"
     inkscape:snap-global="false"
     showgrid="false"
     inkscape:document-rotation="0"
     inkscape:current-layer="layer1"
     inkscape:document-units="mm"
     inkscape:cy="733.12968"
     inkscape:cx="2013.8655"
     inkscape:zoom="0.27318981"
     inkscape:pageshadow="2"
     inkscape:pageopacity="0.0"
     borderopacity="1.0"
     bordercolor="#666666"
     pagecolor="#ffffff"
     id="base" />
  <metadata
     id="metadata5">
    <rdf:RDF>
      <cc:Work
         rdf:about="">
        <dc:format>image/svg+xml</dc:format>
        <dc:type
           rdf:resource="http://purl.org/dc/dcmitype/StillImage" />
        <dc:title />
      </cc:Work>
    </rdf:RDF>
  </metadata>
  <g
     style="display:inline;opacity:1"
     id="layer1"
     inkscape:groupmode="layer"
     inkscape:label="Layer 1">
    <path
       sodipodi:nodetypes="csscscscscssc"
       d="m 106.86846,113.27356 c 0,0 -12.2097,-9.85973 -27.521388,-22.143307 C 68.254411,82.231349 52.465429,69.412078 55.860556,63.806666 c 1.027457,-1.696349 22.210151,-1.17275 19.629065,10.902736 0,0 -14.834347,-19.923888 -14.292414,-21.614096 3.708371,-11.565752 22.741643,10.588852 22.169572,14.378889 0,0 -20.492193,-18.417534 -14.691099,-31.185554 4.474325,-9.847868 24.001362,20.233098 23.169359,25.216338 0,0 -22.580247,-34.791172 -15.402774,-42.763443 6.393988,-7.102014 27.300125,33.044391 27.300125,33.044391 0,0 -30.285926,-46.82995 -17.600489,-50.0252475 11.557602,-2.91121 31.657739,51.7322845 33.274459,57.4042255 7.87203,27.617755 -10.87018,55.203435 -12.5479,54.108655 z"
       style="fill:#834924;fill-opacity:1;stroke:#0054ca;stroke-width:0;stroke-opacity:0"
       id="path947" />
    <path
       id="path925"
       style="fill:#a58400;fill-opacity:1;stroke:#0054ca;stroke-width:0;stroke-opacity:0"
       d="m 109.85679,132.19751 c -3.00656,-3.10199 -5.64052,-2.57787 -4.15263,-2.44692 2.42443,0.21339 6.16175,4.94953 3.337,5.55375 -0.73995,0.15828 -6.29495,-3.01376 -5.111,-2.56626 0.86588,0.32727 6.8904,5.17169 3.57603,5.86136 -1.80243,0.37507 -6.48525,-5.06263 -11.562063,-4.67148 -1.521253,0.11722 -4.439722,4.31459 -4.851328,1.50642 -0.263957,-1.80078 4.409156,-8.85506 10.944231,-9.33548 8.78805,-0.64605 10.38105,8.7412 7.81976,6.09861 z"
       sodipodi:nodetypes="sssssssss" />
    <path
       id="path918"
       style="fill:#834924;fill-opacity:1;stroke:#0054ca;stroke-width:0;stroke-opacity:0"
       d="m 134.2713,78.711476 c 6.26642,15.120872 4.37625,45.258124 -31.8886,55.273074 -25.734484,7.10688 -64.367603,2.26462 -57.234034,-10.47996 C 51.525034,112.11286 62.108144,102.33105 86.777325,91.003504 111.64426,79.585175 132.77932,75.111316 134.2713,78.711476 Z"
       sodipodi:nodetypes="sssss" />
    <path
       id="path934"
       style="fill:#834924;fill-opacity:1;stroke:#0054ca;stroke-width:0;stroke-opacity:0"
       d="m 57.992527,118.52802 c -2.753367,-5.03518 -13.905752,1.15402 -21.106704,5.52445 -7.200985,4.37043 -16.738833,6.20522 -13.985458,11.24042 2.753379,5.03517 12.563804,2.5747 19.764754,-1.79572 7.200971,-4.37042 18.080784,-9.93396 15.327408,-14.96915 z"
       sodipodi:nodetypes="sssss"
       inkscape:transform-center-x="14.823834"
       inkscape:transform-center-y="7.4020937" />
    <path
       inkscape:transform-center-y="6.4479738"
       inkscape:transform-center-x="13.819758"
       sodipodi:nodetypes="sssss"
       d="m 58.022119,121.05023 c -2.566872,-4.38616 -12.963872,1.00527 -19.67707,4.81235 -6.713229,3.80709 -15.605041,5.40537 -13.038163,9.79154 2.566882,4.38614 11.712804,2.24283 18.426002,-1.56425 6.71323,-3.80708 16.856113,-8.65349 14.289231,-13.03964 z"
       style="fill:#a05a2c;fill-opacity:1;stroke:#0054ca;stroke-width:0;stroke-opacity:0"
       id="path927" />
    <path
       sodipodi:nodetypes="sssss"
       d="m 134.2713,78.711476 c 6.26642,15.120872 4.37625,45.258114 -31.8886,55.273074 -25.734484,7.10688 -66.883648,1.85182 -55.046195,-9.933 C 57.841924,113.5929 63.448266,104.27271 88.090037,92.972568 112.96264,81.566591 132.77932,75.111316 134.2713,78.711476 Z"
       style="fill:#a05a2c;fill-opacity:1;stroke:#0054ca;stroke-width:0;stroke-opacity:0"
       id="path835" />
    <path
       inkscape:transform-center-y="7.9598085"
       inkscape:transform-center-x="12.957282"
       sodipodi:nodetypes="sssss"
       d="m 61.948279,124.72004 c -3.485245,-3.40281 -13.070769,3.17014 -19.196235,7.7007 -6.125471,4.53058 -14.912763,7.50379 -11.427504,10.90662 3.485261,3.40283 12.425928,-0.0943 18.551418,-4.62488 6.125488,-4.53056 15.557584,-10.57962 12.072321,-13.98244 z"
       style="fill:#834924;fill-opacity:1;stroke:#0054ca;stroke-width:0;stroke-opacity:0"
       id="path936" />
    <path
       id="path930"
       style="fill:#a05a2c;fill-opacity:1;stroke:#0054ca;stroke-width:0;stroke-opacity:0"
       d="m 62.043237,124.63215 c -3.044743,-3.08528 -12.719732,2.54907 -18.07099,6.65687 -5.35125,4.10781 -8.960315,6.19541 -9.668859,10.47179 -0.998395,6.02576 11.646899,-0.20127 17.193384,-4.45098 5.354976,-4.10298 13.591208,-9.59238 10.546465,-12.67768 z"
       sodipodi:nodetypes="sssss"
       inkscape:transform-center-x="11.319565"
       inkscape:transform-center-y="7.2170351" />
    <path
       sodipodi:nodetypes="sssss"
       d="m 136.97945,99.21602 c -0.95007,0.152044 2.53339,23.72331 -34.59675,34.76853 -25.486997,7.5817 -45.63111,6.31309 -53.171815,-2.16209 -0.659717,-0.74146 22.63169,-18.45432 43.56305,-25.15036 27.564295,-8.817955 47.211335,-7.937116 44.205515,-7.45608 z"
       style="fill:#bc6a34;fill-opacity:1;stroke:#0054ca;stroke-width:0;stroke-opacity:0"
       id="path914" />
    <path
       id="path938"
       style="fill:#834924;fill-opacity:1;stroke:#0054ca;stroke-width:0;stroke-opacity:0"
       d="m 66.595083,124.24116 c -4.141358,-2.56422 -12.069662,5.93449 -17.064367,11.68779 -4.994712,5.75332 -12.925977,10.56486 -8.784626,13.12908 4.141352,2.56424 12.108557,-2.79205 17.103289,-8.54535 4.994714,-5.75331 12.88708,-13.7073 8.745704,-16.27152 z"
       sodipodi:nodetypes="sssss"
       inkscape:transform-center-x="10.942292"
       inkscape:transform-center-y="10.468948" />
    <path
       inkscape:transform-center-y="10.403329"
       inkscape:transform-center-x="9.7419024"
       sodipodi:nodetypes="sssss"
       d="m 66.722412,124.40084 c -3.687046,-2.54814 -12.697127,4.43365 -17.143901,10.15088 -4.446792,5.71727 -10.03885,11.23871 -6.351809,13.78686 3.687036,2.54817 11.262625,-2.05097 15.709425,-7.76821 4.446783,-5.71724 11.473349,-13.62138 7.786285,-16.16953 z"
       style="fill:#a05a2c;fill-opacity:1;stroke:#0054ca;stroke-width:0;stroke-opacity:0"
       id="path932" />
    <path
       sodipodi:nodetypes="sssss"
       d="m 136.97945,99.21602 c -0.95007,0.152044 2.00286,22.13172 -35.12728,33.17693 -25.487003,7.5817 -45.10058,7.90469 -52.641285,-0.57049 -0.659717,-0.74146 24.335015,-16.02099 45.266375,-22.71701 27.5643,-8.81798 45.50801,-10.370466 42.50219,-9.88943 z"
       style="fill:#a05a2c;fill-opacity:1;stroke:#0054ca;stroke-width:0;stroke-opacity:0"
       id="path916" />
    <path
       id="path912"
       style="fill:#a05a2c;fill-opacity:1;stroke:#0054ca;stroke-width:0;stroke-opacity:0"
       d="m 135.03416,100.27709 c 3.48895,-6.999804 7.06305,20.17512 -33.18199,32.11586 -25.492376,7.56362 -35.082823,7.66135 -42.623528,-0.81382 -0.659717,-0.74146 16.439391,-14.14219 37.370751,-20.83821 27.564297,-8.81797 37.076837,-7.73942 38.434767,-10.46383 z"
       sodipodi:nodetypes="sssss" />
    <path
       id="path883"
       style="fill:#a0a0a0;fill-opacity:1;stroke:#0054ca;stroke-width:0;stroke-opacity:0"
       d="m 168.28864,49.413982 c 0,0 -6.93169,4.656549 -16.05491,2.676406 -1.8686,-1.593328 -1.14623,-2.837984 0.71491,-3.293871 10.01644,2.355096 15.34,0.617465 15.34,0.617465 z"
       sodipodi:nodetypes="cccc" />
    <path
       sodipodi:nodetypes="cccc"
       d="m 160.52797,43.593699 c 0,0 -5.4113,6.359994 -14.72983,6.924972 -2.23031,-1.027639 -1.87208,-2.421428 -0.20398,-3.364383 10.27991,-0.445978 14.93381,-3.560589 14.93381,-3.560589 z"
       style="fill:#a0a0a0;fill-opacity:1;stroke:#0054ca;stroke-width:0;stroke-opacity:0"
       id="path895" />
    <path
       id="path907"
       style="fill:#a0a0a0;fill-opacity:1;stroke:#0054ca;stroke-width:0;stroke-opacity:0"
       d="m 124.38185,36.927621 c 0,0 11.09125,3.145858 17.44406,14.539188 0.0935,3.395924 -1.83449,3.747311 -4.00476,2.192124 -6.79066,-12.670774 -13.4393,-16.731312 -13.4393,-16.731312 z"
       sodipodi:nodetypes="cccc" />
    <path
       sodipodi:nodetypes="cccc"
       d="m 117.98455,41.061366 c 0,0 10.87179,0.837493 18.67458,11.040447 0.64513,3.422772 -1.09714,4.187762 -3.37882,3.071349 -8.42142,-11.405118 -15.29576,-14.111796 -15.29576,-14.111796 z"
       style="fill:#a0a0a0;fill-opacity:1;stroke:#0054ca;stroke-width:0;stroke-opacity:0"
       id="path903" />
    <path
       id="path899"
       style="fill:#a0a0a0;fill-opacity:1;stroke:#0054ca;stroke-width:0;stroke-opacity:0"
       d="m 111.73077,47.317729 c 0,0 10.68955,-2.317681 20.68395,5.280927 1.45016,3.116157 -0.0453,4.354953 -2.51635,3.934016 -10.88191,-8.58037 -18.1676,-9.214943 -18.1676,-9.214943 z"
       sodipodi:nodetypes="cccc" />
    <path
       id="circle871"
       style="fill:#ffffff;fill-opacity:1;stroke:#0054ca;stroke-width:0;stroke-opacity:0"
       transform="matrix(0.99293087,0.11869408,-0.13991577,0.99016341,0,0)"
       d="m 179.19878,48.093241 c 0,14.888036 -29.02203,40.053772 -34.25953,54.002589 -2.45273,-3.424379 3.76612,-10.815399 0.39678,-13.61884 -1.69205,-1.407858 -11.10103,4.435089 -11.10103,4.435089 0,0 3.11091,-8.236941 1.32185,-9.929523 -1.85019,-1.750417 -13.05819,0.607561 -13.05819,0.607561 0,0 2.91165,-8.859252 1.73073,-10.043504 -2.4454,-2.452298 -10.5411,0.259319 -10.5411,0.259319 0,0 7.28111,-10.818519 9.80244,-17.439565 5.13039,-13.472461 15.45111,-21.734757 25.30164,-26.95717 6.38571,-3.385484 23.14371,2.891349 26.50413,9.016189 2.35155,4.286023 2.6291,1.942232 3.79856,9.680287"
       sodipodi:nodetypes="ccscscscsssc" />
    <ellipse
       style="fill:#cccccc;fill-opacity:1;stroke:#0054ca;stroke-width:0;stroke-opacity:0"
       id="ellipse876"
       cx="165.81857"
       cy="3.6684885"
       rx="8.6116972"
       ry="9.7676802"
       transform="matrix(0.91324892,0.40740203,-0.41633403,0.90921173,0,0)" />
    <path
       id="path862"
       style="fill:#ffcc00;stroke:#0054ca;stroke-width:0;stroke-opacity:0;fill-opacity:1"
       d="m 172.20919,104.34698 c 3.63589,-1.74476 -5.28503,-15.601215 -1.71583,-22.169678 3.1788,-5.849971 0.21898,-3.175408 -5.04853,-1.145136 -5.26753,2.030266 -12.75158,4.124013 -11.05015,9.770295 1.70142,5.646277 12.70112,15.998349 17.81451,13.544519 z"
       sodipodi:nodetypes="ssssss" />
    <path
       sodipodi:nodetypes="sssss"
       d="m 172.11643,103.47538 c 2.83855,-1.31267 -4.02529,-12.383179 -1.49255,-17.853765 2.25568,-4.872198 0.73849,-5.975414 -3.39977,-4.502087 -4.13838,1.473301 -9.40085,1.686074 -7.73481,6.637872 1.66605,4.951797 8.63507,17.56412 12.62713,15.71798 z"
       style="fill:#a58400;fill-opacity:1;stroke:#0054ca;stroke-width:0;stroke-opacity:0"
       id="path864" />
    <ellipse
       transform="rotate(24.320493)"
       ry="9.4506807"
       rx="8.2112474"
       cy="3.8077674"
       cx="166.66254"
       id="path837"
       style="fill:url(#radialGradient853);fill-opacity:1;stroke:#0054ca;stroke-width:0;stroke-opacity:0" />
    <ellipse
       style="fill:#d0a600;fill-opacity:1;stroke:#0054ca;stroke-width:0;stroke-opacity:0"
       id="ellipse1059"
       cx="167.50778"
       cy="6.8417511"
       rx="4.5487766"
       ry="5.9805851"
       transform="matrix(0.92164958,0.38802326,-0.3199855,0.94742244,0,0)" />
    <ellipse
       transform="matrix(0.92164958,0.38802326,-0.3199855,0.94742244,0,0)"
       ry="4.4642715"
       rx="3.3954825"
       cy="6.8399649"
       cx="167.69537"
       id="path855"
       style="fill:#000000;stroke:#0054ca;stroke-width:0;stroke-opacity:0" />
    <ellipse
       ry="0.88911575"
       rx="0.84158075"
       transform="matrix(0.99066967,0.13628499,-0.12187126,0.99254592,0,0)"
       cy="47.3283"
       cx="158.80791"
       id="path857"
       style="fill:#ffffff;fill-opacity:1;stroke:#0054ca;stroke-width:0;stroke-opacity:0" />
    <path
       sodipodi:nodetypes="sssss"
       d="m 185.40822,86.113523 c -1.35328,3.483785 -19.22091,0.540797 -25.72706,3.856157 -5.79446,2.952711 -6.27065,0.825516 -4.8406,-4.232383 1.43006,-5.057899 3.76124,-15.853283 10.01933,-14.083871 6.25808,1.769407 22.45153,9.560587 20.54833,14.460097 z"
       style="fill:#ffcc00;stroke:#0054ca;stroke-width:0;stroke-opacity:0"
       id="path859" />
    <path
       sodipodi:nodetypes="sssss"
       d="m 153.54641,82.81118 c -0.94472,1.743096 -2.97475,0.222924 -7.65205,-2.312079 -4.67731,-2.535008 -6.4844,-3.31063 -5.53967,-5.053724 0.94472,-1.743096 3.09812,-1.172252 7.77543,1.362756 4.67731,2.535008 6.36102,4.259953 5.41629,6.003047 z"
       style="fill:#ffffff;fill-opacity:1;stroke:#0054ca;stroke-width:0;stroke-opacity:0"
       id="path873" />
    <path
       sodipodi:nodetypes="cccc"
       d="m 168.57502,49.218744 c 0,0 -6.51403,5.224876 -15.7718,4.021663 -1.9964,-1.42996 -1.38163,-2.731135 0.43441,-3.34245 10.17943,1.501452 15.33739,-0.679213 15.33739,-0.679213 z"
       style="fill:#ffffff;fill-opacity:1;stroke:#0054ca;stroke-width:0;stroke-opacity:0"
       id="path878" />
    <path
       id="path881"
       style="fill:#ffffff;fill-opacity:1;stroke:#0054ca;stroke-width:0;stroke-opacity:0"
       d="m 168.80087,53.201353 c 0,0 -5.18726,2.357252 -11.56672,0.220362 -1.24104,-1.205121 -0.65852,-1.941434 0.69039,-2.061074 6.99403,2.463105 10.87633,1.840712 10.87633,1.840712 z"
       sodipodi:nodetypes="cccc" />
    <path
       id="path897"
       style="fill:#ffffff;fill-opacity:1;stroke:#0054ca;stroke-width:0;stroke-opacity:0"
       d="m 160.75077,43.328192 c 0,0 -4.85532,6.793946 -14.09293,8.143259 -2.30909,-0.835765 -2.06974,-2.254815 -0.48717,-3.335169 10.2056,-1.311862 14.5801,-4.80809 14.5801,-4.80809 z"
       sodipodi:nodetypes="cccc" />
    <path
       sodipodi:nodetypes="cccc"
       d="m 111.2877,47.41723 c 0,0 10.47204,-3.292855 21.0189,3.359158 1.68622,2.97164 0.29184,4.343606 -2.20287,4.151496 C 118.59655,47.379267 111.2877,47.41723 111.2877,47.41723 Z"
       style="fill:#ffffff;fill-opacity:1;stroke:#0054ca;stroke-width:0;stroke-opacity:0"
       id="path901" />
    <path
       id="path905"
       style="fill:#ffffff;fill-opacity:1;stroke:#0054ca;stroke-width:0;stroke-opacity:0"
       d="m 117.53311,41.029971 c 0,0 10.89782,-0.165704 19.46248,9.282992 0.90779,3.351232 -0.76906,4.273772 -3.129,3.371255 -9.27414,-10.589646 -16.33348,-12.654247 -16.33348,-12.654247 z"
       sodipodi:nodetypes="cccc" />
    <path
       sodipodi:nodetypes="cccc"
       d="m 123.92073,36.800209 c 0,0 11.28609,2.197013 18.55228,13.037339 0.37678,3.384604 -1.51001,3.900023 -3.79693,2.531431 -7.80812,-12.079155 -14.75535,-15.56877 -14.75535,-15.56877 z"
       style="fill:#ffffff;fill-opacity:1;stroke:#0054ca;stroke-width:0;stroke-opacity:0"
       id="path909" />
    <path
       sodipodi:nodetypes="cccc"
       d="m 181.93262,84.895527 c 1.13667,-0.737724 -2.57994,-6.051251 -8.88222,-8.106239 -1.71656,0.444686 -1.7199,1.628711 -0.74243,2.674547 6.98417,2.124211 9.47424,5.716685 9.62465,5.431692 z"
       style="fill:#ffe57b;fill-opacity:1;stroke:#0054ca;stroke-width:0;stroke-opacity:0"
       id="path920" />
    <path
       sodipodi:nodetypes="sssssssss"
       d="m 99.058004,135.99718 c -3.006558,-3.10199 -5.64052,-2.57786 -4.152628,-2.44691 2.42443,0.21338 6.161744,4.94952 3.336998,5.55375 -0.739947,0.15828 -6.294945,-3.01377 -5.111001,-2.56627 0.865882,0.32728 6.890397,5.17169 3.57603,5.86137 -1.802431,0.37506 -6.485246,-5.06264 -11.562061,-4.67148 -1.521253,0.11721 -4.439721,4.31458 -4.851328,1.50641 -0.263957,-1.80078 4.409157,-8.85506 10.944234,-9.33548 8.788042,-0.64604 10.381042,8.7412 7.819756,6.09861 z"
       style="fill:#ffcc00;fill-opacity:1;stroke:#0054ca;stroke-width:0;stroke-opacity:0"
       id="path922" />
    <g
       id="g1054"
       transform="matrix(1.0925766,0,0,1.0925766,-8.9882218,-9.7409901)">
      <path
         sodipodi:nodetypes="csscscscscssc"
         d="m 90.160828,101.05638 c 0,0 -13.922558,-4.454539 -31.354967,-9.970352 C 46.176837,87.090061 28.149595,81.269581 29.21198,75.25856 c 0.321507,-1.819097 18.895499,-8.492907 20.717494,2.863617 0,0 -19.589016,-12.312306 -19.687131,-13.962678 -0.671373,-11.293168 23.315242,1.543528 24.093828,5.027805 0,0 -23.996085,-9.099976 -23.25447,-22.141607 0.572002,-10.058897 27.654894,9.495914 28.609278,14.103992 0,0 -31.319813,-22.618268 -27.768855,-31.957842 3.163335,-8.320062 34.831318,19.512767 34.831318,19.512767 0,0 -42.063801,-30.481124 -32.121431,-37.525337 9.058411,-6.4179254 44.905044,34.277292 48.217967,38.659475 16.131241,21.337668 9.136426,51.603888 7.31085,51.217628 z"
         style="fill:#834924;fill-opacity:1;stroke:#0054ca;stroke-width:0;stroke-opacity:0"
         id="path945" />
      <path
         sodipodi:nodetypes="cccsc"
         d="m 90.841813,101.0438 c 0,0 -4.906284,-47.783725 -22.501732,-53.24559 C 60.983599,27.267782 25.710588,21.3649 36.151972,10.518874 54.984227,6.906305 81.42132,41.87089 84.68209,46.47296 c 15.8773,22.408335 8.007144,54.93824 6.159723,54.57084 z"
         style="fill:#bc6a34;fill-opacity:1;stroke:#0054ca;stroke-width:0;stroke-opacity:0"
         id="path943" />
      <path
         id="path940"
         style="fill:#a05a2c;fill-opacity:1;stroke:#0054ca;stroke-width:0;stroke-opacity:0"
         d="m 89.84894,101.89793 c 0,0 -12.97513,-3.988387 -29.180852,-9.056382 C 48.881362,89.1555 31.950482,82.120822 33.317251,77.864194 c 1.319733,-4.110143 21.880612,-5.835439 19.391834,2.252447 0,0 -16.507452,-11.941722 -16.58957,-13.590913 -0.44289,-8.894657 20.294298,2.270959 20.998418,4.507413 0.490854,-0.397268 -19.693708,-10.317556 -21.203012,-21.492543 -1.052391,-7.79197 25.60484,9.492854 26.476493,13.279826 1.168354,-0.02525 -28.44874,-22.176265 -25.15488,-31.193545 1.877754,-5.140544 32.188409,19.05408 32.164985,18.51393 0.784979,-0.474826 -43.057655,-32.422737 -34.39296,-39.237057 8.635899,-6.7916743 46.507879,35.602104 49.491993,39.894216 14.530205,20.899093 7.053159,51.432622 5.348388,51.099962 z"
         sodipodi:nodetypes="csscscscscssc" />
      <path
         id="path949"
         style="fill:#834924;fill-opacity:1;stroke:#0054ca;stroke-width:0;stroke-opacity:0"
         d="m 92.678793,104.64682 c 0,0 -7.615158,-3.49772 -17.154867,-7.834628 -6.9111,-3.141899 -16.767282,-7.707155 -15.692948,-11.823099 0.325126,-1.245592 11.464315,-5.286136 11.62415,2.60655 0,0 -10.245035,-9.092848 -10.172963,-10.234772 0.493186,-7.813957 13.212104,1.774578 13.386703,4.202801 0,0 -13.014545,-7.010073 -11.5776,-15.98767 1.108307,-6.924342 15.075957,7.394637 15.263799,10.603754 0,0 -16.152457,-16.562011 -13.396609,-22.899307 2.455023,-5.645508 18.401578,14.525714 18.401578,14.525714 0,0 -21.685353,-22.315137 -15.453076,-26.873918 5.678176,-4.15347 23.015178,25.021354 24.569208,28.146339 7.566872,15.216139 1.21652,35.890346 0.202625,35.568236 z"
         sodipodi:nodetypes="csscscscscssc" />
      <path
         id="path951"
         style="fill:#bc6a34;fill-opacity:1;stroke:#0054ca;stroke-width:0;stroke-opacity:0"
         d="m 93.069168,104.65886 c 0,0 0.905647,-33.125307 -8.731471,-37.429939 -2.612045,-14.392082 -22.3232,-19.538913 -15.510311,-26.706182 11.049119,-1.920094 23.450682,23.013675 24.957827,26.288824 7.338517,15.94729 0.311809,38.157057 -0.716045,37.847297 z"
         sodipodi:nodetypes="cccsc" />
      <path
         sodipodi:nodetypes="csscscscscssc"
         d="m 92.435089,105.21809 c 0,0 -7.109604,-3.1472 -15.982655,-7.137736 -6.453536,-2.902394 -15.588501,-8.272224 -14.476372,-11.16818 1.073856,-2.7963 12.964852,-3.36137 10.913587,2.14444 0,0 -8.511736,-8.743348 -8.430608,-9.883971 0.437555,-6.151766 11.42819,2.184675 11.657121,3.749495 0.311528,-0.259224 -10.459823,-7.719435 -10.454957,-15.477329 0.0034,-5.409335 13.903948,7.330153 14.108251,9.9701 0.670041,0.01813 -14.545064,-16.169626 -11.96126,-22.292326 1.472966,-3.49041 16.925936,14.128755 16.954504,13.755281 0.485733,-0.303801 -22.102855,-23.685303 -16.619025,-28.124304 5.465605,-4.424252 23.828806,25.984385 25.201816,29.037207 6.685459,14.864766 0.03858,35.708773 -0.910402,35.427323 z"
         style="fill:#a05a2c;fill-opacity:1;stroke:#0054ca;stroke-width:0;stroke-opacity:0"
         id="path953" />
    </g>
    <path
       id="path1057"
       style="fill:#4d4d4d;fill-opacity:1;stroke:#0054ca;stroke-width:0;stroke-opacity:0"
       d="m 163.2846,65.718816 c -0.11946,0.565773 -4.30984,-4.387688 -9.86153,-5.559761 -5.55168,-1.172073 -10.22749,-1.435829 -9.83593,-3.146653 0.56804,-2.481927 4.7168,-0.07428 10.26849,1.097795 5.55168,1.172073 9.54842,7.042842 9.42897,7.608619 z"
       sodipodi:nodetypes="sssss" />
    <path
       id="path1035"
       style="fill:#834924;fill-opacity:1;stroke:#0054ca;stroke-width:0;stroke-opacity:0"
       d="m 496.79542,113.31595 c 0,0 -20.70936,3.40061 -46.68014,7.6372 -18.81471,3.06923 -45.59505,7.49058 -39.83643,9.42388 1.7427,0.58506 37.67154,0.40447 33.29365,-3.76034 0,0 -25.16114,6.87173 -24.24194,7.45467 6.28992,3.98901 38.57302,-3.65208 37.60271,-4.95926 0,0 -34.75764,6.35219 -24.91817,10.75586 7.58909,3.39652 40.70968,-6.97837 39.29849,-8.69709 0,0 -38.29928,11.99944 -26.12526,14.74907 10.84509,2.44948 46.30484,-11.39697 46.30484,-11.39697 0,0 -51.3692,16.15159 -29.85291,17.25365 19.60332,1.00406 53.69598,-17.84241 56.43817,-19.79866 13.35207,-9.52533 -18.43736,-19.0396 -21.28301,-18.66201 z"
       sodipodi:nodetypes="csscscscscssc" />
    <path
       sodipodi:nodetypes="sssssssss"
       d="m 509.85695,132.19748 c -3.00656,-3.10199 -5.64052,-2.57787 -4.15263,-2.44692 2.42443,0.21339 6.16175,4.94953 3.337,5.55375 -0.73995,0.15828 -6.29495,-3.01376 -5.111,-2.56626 0.86588,0.32727 6.8904,5.17169 3.57603,5.86136 -1.80243,0.37507 -6.48525,-5.06263 -11.56206,-4.67148 -1.52126,0.11722 -4.43972,4.31459 -4.85133,1.50642 -0.26396,-1.80078 4.40916,-8.85506 10.94423,-9.33548 8.78805,-0.64605 10.38105,8.7412 7.81976,6.09861 z"
       style="fill:#a58400;fill-opacity:1;stroke:#0054ca;stroke-width:0;stroke-opacity:0"
       id="path1037" />
    <path
       sodipodi:nodetypes="sssss"
       d="m 534.27146,78.711441 c 6.26642,15.120872 4.37625,45.258129 -31.8886,55.273079 -25.73448,7.10688 -64.3676,2.26462 -57.23403,-10.47996 6.37636,-11.39173 16.95947,-21.17354 41.62866,-32.501091 24.86693,-11.418329 46.00199,-15.892188 47.49397,-12.292028 z"
       style="fill:#834924;fill-opacity:1;stroke:#0054ca;stroke-width:0;stroke-opacity:0"
       id="path1039" />
    <path
       inkscape:transform-center-y="7.4020937"
       inkscape:transform-center-x="14.823834"
       sodipodi:nodetypes="sssss"
       d="m 457.99269,118.52799 c -2.75337,-5.03518 -13.90575,1.15402 -21.10671,5.52445 -7.20098,4.37043 -16.73883,6.20522 -13.98545,11.24042 2.75337,5.03517 12.5638,2.5747 19.76475,-1.79572 7.20097,-4.37042 18.08078,-9.93396 15.32741,-14.96915 z"
       style="fill:#834924;fill-opacity:1;stroke:#0054ca;stroke-width:0;stroke-opacity:0"
       id="path1041" />
    <path
       id="path1043"
       style="fill:#a05a2c;fill-opacity:1;stroke:#0054ca;stroke-width:0;stroke-opacity:0"
       d="m 458.02228,121.0502 c -2.56687,-4.38616 -12.96387,1.00527 -19.67707,4.81235 -6.71323,3.80709 -15.60504,5.40537 -13.03816,9.79154 2.56688,4.38614 11.7128,2.24283 18.426,-1.56425 6.71323,-3.80708 16.85611,-8.65349 14.28923,-13.03964 z"
       sodipodi:nodetypes="sssss"
       inkscape:transform-center-x="13.819758"
       inkscape:transform-center-y="6.4479738" />
    <path
       id="path1045"
       style="fill:#a05a2c;fill-opacity:1;stroke:#0054ca;stroke-width:0;stroke-opacity:0"
       d="m 534.27146,78.711441 c 6.26642,15.120872 4.37625,45.258119 -31.8886,55.273079 -25.73448,7.10688 -66.88365,1.85182 -55.04619,-9.933 10.50541,-10.45865 16.11176,-19.77884 40.75353,-31.078987 24.8726,-11.405977 44.68928,-17.861252 46.18126,-14.261092 z"
       sodipodi:nodetypes="sssss" />
    <path
       id="path1047"
       style="fill:#834924;fill-opacity:1;stroke:#0054ca;stroke-width:0;stroke-opacity:0"
       d="m 461.94844,124.72001 c -3.48525,-3.40281 -13.07077,3.17014 -19.19624,7.7007 -6.12547,4.53058 -14.91276,7.50379 -11.4275,10.90662 3.48526,3.40283 12.42593,-0.0943 18.55142,-4.62488 6.12549,-4.53056 15.55758,-10.57962 12.07232,-13.98244 z"
       sodipodi:nodetypes="sssss"
       inkscape:transform-center-x="12.957282"
       inkscape:transform-center-y="7.9598085" />
    <path
       inkscape:transform-center-y="7.2170351"
       inkscape:transform-center-x="11.319565"
       sodipodi:nodetypes="sssss"
       d="m 462.0434,124.63212 c -3.04475,-3.08528 -12.71973,2.54907 -18.07099,6.65687 -5.35125,4.10781 -8.96032,6.19541 -9.66886,10.47179 -0.9984,6.02576 11.6469,-0.20127 17.19338,-4.45098 5.35498,-4.10298 13.59121,-9.59238 10.54647,-12.67768 z"
       style="fill:#a05a2c;fill-opacity:1;stroke:#0054ca;stroke-width:0;stroke-opacity:0"
       id="path1049" />
    <path
       id="path1051"
       style="fill:#bc6a34;fill-opacity:1;stroke:#0054ca;stroke-width:0;stroke-opacity:0"
       d="m 536.97961,99.215985 c -0.95007,0.152044 2.53339,23.723315 -34.59675,34.768535 -25.487,7.5817 -45.63111,6.31309 -53.17181,-2.16209 -0.65972,-0.74146 22.63169,-18.45432 43.56305,-25.15036 27.56429,-8.81796 47.21133,-7.937121 44.20551,-7.456085 z"
       sodipodi:nodetypes="sssss" />
    <path
       inkscape:transform-center-y="10.468948"
       inkscape:transform-center-x="10.942292"
       sodipodi:nodetypes="sssss"
       d="m 466.59524,124.24113 c -4.14135,-2.56422 -12.06966,5.93449 -17.06436,11.68779 -4.99472,5.75332 -12.92598,10.56486 -8.78463,13.12908 4.14135,2.56424 12.10856,-2.79205 17.10329,-8.54535 4.99471,-5.75331 12.88708,-13.7073 8.7457,-16.27152 z"
       style="fill:#834924;fill-opacity:1;stroke:#0054ca;stroke-width:0;stroke-opacity:0"
       id="path1053" />
    <path
       id="path1055"
       style="fill:#a05a2c;fill-opacity:1;stroke:#0054ca;stroke-width:0;stroke-opacity:0"
       d="m 466.72257,124.40081 c -3.68704,-2.54814 -12.69712,4.43365 -17.1439,10.15088 -4.44679,5.71727 -10.03885,11.23871 -6.35181,13.78686 3.68704,2.54817 11.26263,-2.05097 15.70943,-7.76821 4.44678,-5.71724 11.47335,-13.62138 7.78628,-16.16953 z"
       sodipodi:nodetypes="sssss"
       inkscape:transform-center-x="9.7419024"
       inkscape:transform-center-y="10.403329" />
    <path
       id="path1058"
       style="fill:#a05a2c;fill-opacity:1;stroke:#0054ca;stroke-width:0;stroke-opacity:0"
       d="m 536.97961,99.215985 c -0.95007,0.152044 2.00286,22.131725 -35.12728,33.176935 -25.487,7.5817 -45.10058,7.90469 -52.64128,-0.57049 -0.65972,-0.74146 24.33501,-16.02099 45.26637,-22.71701 27.5643,-8.81798 45.50801,-10.370471 42.50219,-9.889435 z"
       sodipodi:nodetypes="sssss" />
    <path
       sodipodi:nodetypes="sssss"
       d="m 535.03432,100.27706 c 3.48895,-6.999809 7.06305,20.17512 -33.18199,32.11586 -25.49238,7.56362 -35.08282,7.66135 -42.62353,-0.81382 -0.65971,-0.74146 16.43939,-14.14219 37.37075,-20.83821 27.5643,-8.81797 37.07684,-7.73942 38.43477,-10.46383 z"
       style="fill:#a05a2c;fill-opacity:1;stroke:#0054ca;stroke-width:0;stroke-opacity:0"
       id="path1060" />
    <path
       sodipodi:nodetypes="cccc"
       d="m 568.2888,49.413947 c 0,0 -6.93169,4.656549 -16.05491,2.676406 -1.8686,-1.593328 -1.14623,-2.837984 0.71491,-3.293871 10.01644,2.355096 15.34,0.617465 15.34,0.617465 z"
       style="fill:#a0a0a0;fill-opacity:1;stroke:#0054ca;stroke-width:0;stroke-opacity:0"
       id="path1062" />
    <path
       id="path1064"
       style="fill:#a0a0a0;fill-opacity:1;stroke:#0054ca;stroke-width:0;stroke-opacity:0"
       d="m 560.52813,43.593664 c 0,0 -5.4113,6.359994 -14.72983,6.924972 -2.23031,-1.027639 -1.87208,-2.421428 -0.20398,-3.364383 10.27991,-0.445978 14.93381,-3.560589 14.93381,-3.560589 z"
       sodipodi:nodetypes="cccc" />
    <path
       sodipodi:nodetypes="cccc"
       d="m 524.38201,36.927586 c 0,0 11.09125,3.145858 17.44406,14.539188 0.0935,3.395924 -1.83449,3.747311 -4.00476,2.192124 -6.79066,-12.670774 -13.4393,-16.731312 -13.4393,-16.731312 z"
       style="fill:#a0a0a0;fill-opacity:1;stroke:#0054ca;stroke-width:0;stroke-opacity:0"
       id="path1066" />
    <path
       id="path1068"
       style="fill:#a0a0a0;fill-opacity:1;stroke:#0054ca;stroke-width:0;stroke-opacity:0"
       d="m 517.98471,41.061331 c 0,0 10.87179,0.837493 18.67458,11.040447 0.64513,3.422772 -1.09714,4.187762 -3.37882,3.071349 -8.42142,-11.405118 -15.29576,-14.111796 -15.29576,-14.111796 z"
       sodipodi:nodetypes="cccc" />
    <path
       sodipodi:nodetypes="cccc"
       d="m 511.73093,47.317694 c 0,0 10.68955,-2.317681 20.68395,5.280927 1.45016,3.116157 -0.0453,4.354953 -2.51635,3.934016 -10.88191,-8.58037 -18.1676,-9.214943 -18.1676,-9.214943 z"
       style="fill:#a0a0a0;fill-opacity:1;stroke:#0054ca;stroke-width:0;stroke-opacity:0"
       id="path1070" />
    <path
       sodipodi:nodetypes="ccscscscsssc"
       d="m 571.20316,68.889967 c -2.08307,14.741588 -34.42103,36.215043 -41.57316,49.404993 -1.95627,-3.68182 5.25274,-10.262 2.29947,-13.43779 -1.48311,-1.59484 -11.6431,3.07384 -11.6431,3.07384 0,0 4.2414,-7.78667 2.7018,-9.674959 -1.5922,-1.952805 -13.05088,-0.948345 -13.05088,-0.948345 0,0 4.13061,-8.426512 3.12374,-9.739283 -2.085,-2.71843 -10.50287,-0.994398 -10.50287,-0.994398 0,0 8.74332,-9.847877 12.17322,-16.104527 6.97913,-12.730991 18.38291,-19.687006 28.89451,-23.688849 6.81425,-2.594236 22.57556,5.60993 25.05526,12.073384 1.73524,4.522978 2.33877,2.235186 2.41728,10.035933"
       style="fill:#ffffff;fill-opacity:1;stroke:#0054ca;stroke-width:0;stroke-opacity:0"
       id="path1072" />
    <ellipse
       transform="matrix(0.91324892,0.40740203,-0.41633403,0.90921173,0,0)"
       ry="9.7676802"
       rx="8.6116972"
       cy="-159.30025"
       cx="529.52087"
       id="ellipse1074"
       style="fill:#cccccc;fill-opacity:1;stroke:#0054ca;stroke-width:0;stroke-opacity:0" />
    <path
       sodipodi:nodetypes="ssssss"
       d="m 572.20935,104.34695 c 3.63589,-1.74476 -5.28503,-15.60122 -1.71583,-22.169683 3.1788,-5.849971 0.21898,-3.175408 -5.04853,-1.145136 -5.26753,2.030266 -12.75158,4.124013 -11.05015,9.770295 1.70142,5.646277 12.70112,15.998354 17.81451,13.544524 z"
       style="fill:#ffcc00;fill-opacity:1;stroke:#0054ca;stroke-width:0;stroke-opacity:0"
       id="path1076" />
    <path
       id="path1078"
       style="fill:#a58400;fill-opacity:1;stroke:#0054ca;stroke-width:0;stroke-opacity:0"
       d="m 572.11659,103.47535 c 2.83855,-1.31267 -4.02529,-12.383184 -1.49255,-17.85377 2.25568,-4.872198 0.73849,-5.975414 -3.39977,-4.502087 -4.13838,1.473301 -9.40085,1.686074 -7.73481,6.637872 1.66605,4.951797 8.63507,17.564125 12.62713,15.717985 z"
       sodipodi:nodetypes="sssss" />
    <ellipse
       style="fill:url(#radialGradient1124);fill-opacity:1;stroke:#0054ca;stroke-width:0;stroke-opacity:0"
       id="ellipse1080"
       cx="531.16504"
       cy="-160.92845"
       rx="8.2112474"
       ry="9.4506807"
       transform="rotate(24.320493)" />
    <ellipse
       transform="matrix(0.92164958,0.38802326,-0.3199855,0.94742244,0,0)"
       ry="5.9805851"
       rx="4.5487766"
       cy="-148.77953"
       cx="547.4826"
       id="ellipse1082"
       style="fill:#d0a600;fill-opacity:1;stroke:#0054ca;stroke-width:0;stroke-opacity:0" />
    <ellipse
       style="fill:#000000;stroke:#0054ca;stroke-width:0;stroke-opacity:0"
       id="ellipse1084"
       cx="547.67017"
       cy="-148.78131"
       rx="3.3954825"
       ry="4.4642715"
       transform="matrix(0.92164958,0.38802326,-0.3199855,0.94742244,0,0)" />
    <ellipse
       style="fill:#ffffff;fill-opacity:1;stroke:#0054ca;stroke-width:0;stroke-opacity:0"
       id="ellipse1086"
       cx="555.86835"
       cy="-7.1915107"
       transform="matrix(0.99066967,0.13628499,-0.12187126,0.99254592,0,0)"
       rx="0.84158075"
       ry="0.88911575" />
    <path
       id="path1088"
       style="fill:#ffcc00;stroke:#0054ca;stroke-width:0;stroke-opacity:0"
       d="m 585.40838,86.113488 c -1.35328,3.483785 -19.22091,0.540797 -25.72706,3.856157 -5.79446,2.952711 -6.27065,0.825516 -4.8406,-4.232383 1.43006,-5.057899 3.76124,-15.853283 10.01933,-14.083871 6.25808,1.769407 22.45153,9.560587 20.54833,14.460097 z"
       sodipodi:nodetypes="sssss" />
    <path
       id="path1090"
       style="fill:#ffffff;fill-opacity:1;stroke:#0054ca;stroke-width:0;stroke-opacity:0"
       d="m 553.54657,82.811145 c -0.94472,1.743096 -2.97475,0.222924 -7.65205,-2.312079 -4.67731,-2.535008 -6.4844,-3.31063 -5.53967,-5.053724 0.94472,-1.743096 3.09812,-1.172252 7.77543,1.362756 4.67731,2.535008 6.36102,4.259953 5.41629,6.003047 z"
       sodipodi:nodetypes="sssss" />
    <path
       id="path1092"
       style="fill:#ffffff;fill-opacity:1;stroke:#0054ca;stroke-width:0;stroke-opacity:0"
       d="m 568.57518,49.218709 c 0,0 -6.51403,5.224876 -15.7718,4.021663 -1.9964,-1.42996 -1.38163,-2.731135 0.43441,-3.34245 10.17943,1.501452 15.33739,-0.679213 15.33739,-0.679213 z"
       sodipodi:nodetypes="cccc" />
    <path
       sodipodi:nodetypes="cccc"
       d="m 568.80103,53.201318 c 0,0 -5.18726,2.357252 -11.56672,0.220362 -1.24104,-1.205121 -0.65852,-1.941434 0.69039,-2.061074 6.99403,2.463105 10.87633,1.840712 10.87633,1.840712 z"
       style="fill:#ffffff;fill-opacity:1;stroke:#0054ca;stroke-width:0;stroke-opacity:0"
       id="path1094" />
    <path
       sodipodi:nodetypes="cccc"
       d="m 560.75093,43.328157 c 0,0 -4.85532,6.793946 -14.09293,8.143259 -2.30909,-0.835765 -2.06974,-2.254815 -0.48717,-3.335169 10.2056,-1.311862 14.5801,-4.80809 14.5801,-4.80809 z"
       style="fill:#ffffff;fill-opacity:1;stroke:#0054ca;stroke-width:0;stroke-opacity:0"
       id="path1096" />
    <path
       id="path1098"
       style="fill:#ffffff;fill-opacity:1;stroke:#0054ca;stroke-width:0;stroke-opacity:0"
       d="m 511.28786,47.417195 c 0,0 10.47204,-3.292855 21.0189,3.359158 1.68622,2.97164 0.29184,4.343606 -2.20287,4.151496 -11.50718,-7.548617 -18.81603,-7.510654 -18.81603,-7.510654 z"
       sodipodi:nodetypes="cccc" />
    <path
       sodipodi:nodetypes="cccc"
       d="m 517.53327,41.029936 c 0,0 10.89782,-0.165704 19.46248,9.282992 0.90779,3.351232 -0.76906,4.273772 -3.129,3.371255 -9.27414,-10.589646 -16.33348,-12.654247 -16.33348,-12.654247 z"
       style="fill:#ffffff;fill-opacity:1;stroke:#0054ca;stroke-width:0;stroke-opacity:0"
       id="path1100" />
    <path
       id="path1102"
       style="fill:#ffffff;fill-opacity:1;stroke:#0054ca;stroke-width:0;stroke-opacity:0"
       d="m 523.92089,36.800174 c 0,0 11.28609,2.197013 18.55228,13.037339 0.37678,3.384604 -1.51001,3.900023 -3.79693,2.531431 -7.80812,-12.079155 -14.75535,-15.56877 -14.75535,-15.56877 z"
       sodipodi:nodetypes="cccc" />
    <path
       id="path1104"
       style="fill:#ffe57b;fill-opacity:1;stroke:#0054ca;stroke-width:0;stroke-opacity:0"
       d="m 581.93278,84.895492 c 1.13667,-0.737724 -2.57994,-6.051251 -8.88222,-8.106239 -1.71656,0.444686 -1.7199,1.628711 -0.74243,2.674547 6.98417,2.124211 9.47424,5.716685 9.62465,5.431692 z"
       sodipodi:nodetypes="cccc" />
    <path
       id="path1106"
       style="fill:#ffcc00;fill-opacity:1;stroke:#0054ca;stroke-width:0;stroke-opacity:0"
       d="m 499.05816,135.99715 c -3.00655,-3.10199 -5.64052,-2.57786 -4.15262,-2.44691 2.42443,0.21338 6.16174,4.94952 3.33699,5.55375 -0.73994,0.15828 -6.29494,-3.01377 -5.111,-2.56627 0.86589,0.32728 6.8904,5.17169 3.57603,5.86137 -1.80243,0.37506 -6.48524,-5.06264 -11.56206,-4.67148 -1.52125,0.11721 -4.43972,4.31458 -4.85133,1.50641 -0.26395,-1.80078 4.40916,-8.85506 10.94424,-9.33548 8.78804,-0.64604 10.38104,8.7412 7.81975,6.09861 z"
       sodipodi:nodetypes="sssssssss" />
    <g
       transform="matrix(1.4020965,0,0,-0.54142431,360.96078,162.19004)"
       id="g1120">
      <path
         id="path1108"
         style="fill:#834924;fill-opacity:1;stroke:#0054ca;stroke-width:0;stroke-opacity:0"
         d="m 90.160828,101.05638 c 0,0 -13.922558,-4.454539 -31.354967,-9.970352 C 46.176837,87.090061 28.149595,81.269581 29.21198,75.25856 c 0.321507,-1.819097 18.895499,-8.492907 20.717494,2.863617 0,0 -19.589016,-12.312306 -19.687131,-13.962678 -0.671373,-11.293168 23.315242,1.543528 24.093828,5.027805 0,0 -23.996085,-9.099976 -23.25447,-22.141607 0.572002,-10.058897 27.654894,9.495914 28.609278,14.103992 0,0 -31.319813,-22.618268 -27.768855,-31.957842 3.163335,-8.320062 34.831318,19.512767 34.831318,19.512767 0,0 -42.063801,-30.481124 -32.121431,-37.525337 9.058411,-6.4179254 44.905044,34.277292 48.217967,38.659475 16.131241,21.337668 9.136426,51.603888 7.31085,51.217628 z"
         sodipodi:nodetypes="csscscscscssc" />
      <path
         id="path1110"
         style="fill:#bc6a34;fill-opacity:1;stroke:#0054ca;stroke-width:0;stroke-opacity:0"
         d="m 90.841813,101.0438 c 0,0 -4.906284,-47.783725 -22.501732,-53.24559 C 60.983599,27.267782 25.710588,21.3649 36.151972,10.518874 54.984227,6.906305 81.42132,41.87089 84.68209,46.47296 c 15.8773,22.408335 8.007144,54.93824 6.159723,54.57084 z"
         sodipodi:nodetypes="cccsc" />
      <path
         sodipodi:nodetypes="csscscscscssc"
         d="m 89.84894,101.89793 c 0,0 -12.97513,-3.988387 -29.180852,-9.056382 C 48.881362,89.1555 31.950482,82.120822 33.317251,77.864194 c 1.319733,-4.110143 21.880612,-5.835439 19.391834,2.252447 0,0 -16.507452,-11.941722 -16.58957,-13.590913 -0.44289,-8.894657 20.294298,2.270959 20.998418,4.507413 0.490854,-0.397268 -19.693708,-10.317556 -21.203012,-21.492543 -1.052391,-7.79197 25.60484,9.492854 26.476493,13.279826 1.168354,-0.02525 -28.44874,-22.176265 -25.15488,-31.193545 1.877754,-5.140544 32.188409,19.05408 32.164985,18.51393 0.784979,-0.474826 -43.057655,-32.422737 -34.39296,-39.237057 8.635899,-6.7916743 46.507879,35.602104 49.491993,39.894216 14.530205,20.899093 7.053159,51.432622 5.348388,51.099962 z"
         style="fill:#a05a2c;fill-opacity:1;stroke:#0054ca;stroke-width:0;stroke-opacity:0"
         id="path1112" />
      <path
         sodipodi:nodetypes="csscscscscssc"
         d="m 92.678793,104.64682 c 0,0 -7.615158,-3.49772 -17.154867,-7.834628 -6.9111,-3.141899 -16.767282,-7.707155 -15.692948,-11.823099 0.325126,-1.245592 11.464315,-5.286136 11.62415,2.60655 0,0 -10.245035,-9.092848 -10.172963,-10.234772 0.493186,-7.813957 13.212104,1.774578 13.386703,4.202801 0,0 -13.014545,-7.010073 -11.5776,-15.98767 1.108307,-6.924342 15.075957,7.394637 15.263799,10.603754 0,0 -16.152457,-16.562011 -13.396609,-22.899307 2.455023,-5.645508 18.401578,14.525714 18.401578,14.525714 0,0 -21.685353,-22.315137 -15.453076,-26.873918 5.678176,-4.15347 23.015178,25.021354 24.569208,28.146339 7.566872,15.216139 1.21652,35.890346 0.202625,35.568236 z"
         style="fill:#834924;fill-opacity:1;stroke:#0054ca;stroke-width:0;stroke-opacity:0"
         id="path1114" />
      <path
         sodipodi:nodetypes="cccsc"
         d="m 93.069168,104.65886 c 0,0 0.905647,-33.125307 -8.731471,-37.429939 -2.612045,-14.392082 -22.3232,-19.538913 -15.510311,-26.706182 11.049119,-1.920094 23.450682,23.013675 24.957827,26.288824 7.338517,15.94729 0.311809,38.157057 -0.716045,37.847297 z"
         style="fill:#bc6a34;fill-opacity:1;stroke:#0054ca;stroke-width:0;stroke-opacity:0"
         id="path1116" />
      <path
         id="path1118"
         style="fill:#a05a2c;fill-opacity:1;stroke:#0054ca;stroke-width:0;stroke-opacity:0"
         d="m 92.435089,105.21809 c 0,0 -7.109604,-3.1472 -15.982655,-7.137736 -6.453536,-2.902394 -15.588501,-8.272224 -14.476372,-11.16818 1.073856,-2.7963 12.964852,-3.36137 10.913587,2.14444 0,0 -8.511736,-8.743348 -8.430608,-9.883971 0.437555,-6.151766 11.42819,2.184675 11.657121,3.749495 0.311528,-0.259224 -10.459823,-7.719435 -10.454957,-15.477329 0.0034,-5.409335 13.903948,7.330153 14.108251,9.9701 0.670041,0.01813 -14.545064,-16.169626 -11.96126,-22.292326 1.472966,-3.49041 16.925936,14.128755 16.954504,13.755281 0.485733,-0.303801 -22.102855,-23.685303 -16.619025,-28.124304 5.465605,-4.424252 23.828806,25.984385 25.201816,29.037207 6.685459,14.864766 0.03858,35.708773 -0.910402,35.427323 z"
         sodipodi:nodetypes="csscscscscssc" />
    </g>
    <path
       sodipodi:nodetypes="sssss"
       d="m 563.28476,65.718781 c -0.11946,0.565773 -4.30984,-4.387688 -9.86153,-5.559761 -5.55168,-1.172073 -10.22749,-1.435829 -9.83593,-3.146653 0.56804,-2.481927 4.7168,-0.07428 10.26849,1.097795 5.55168,1.172073 9.54842,7.042842 9.42897,7.608619 z"
       style="fill:#4d4d4d;fill-opacity:1;stroke:#0054ca;stroke-width:0;stroke-opacity:0"
       id="path1122" />
    <path
       sodipodi:nodetypes="csscscscscssc"
       d="m 295.77801,113.28532 c 0,0 -21.56786,-6.17603 -48.61523,-13.870327 -19.59465,-5.574174 -47.48513,-13.604022 -41.4878,-17.11519 1.81494,-1.062574 39.23317,-0.734597 34.6738,6.829352 0,0 -26.20417,-12.4801 -25.24686,-13.538828 6.55066,-7.244657 40.17202,6.632739 39.16149,9.006775 0,0 -36.19848,-11.536537 -25.95113,-19.534282 7.90369,-6.168594 42.39726,12.673787 40.92757,15.795232 0,0 -39.88693,-21.792801 -27.20826,-26.786542 11.29466,-4.448622 48.22436,20.698637 48.22436,20.698637 0,0 -53.49865,-29.333757 -31.09042,-31.335255 20.41595,-1.82355 55.92189,32.404524 58.77775,35.957364 13.90556,17.299453 -19.20166,34.578814 -22.16527,33.893064 z"
       style="fill:#834924;fill-opacity:1;stroke:#0054ca;stroke-width:0;stroke-opacity:0"
       id="path1126" />
    <path
       id="path1128"
       style="fill:#a58400;fill-opacity:1;stroke:#0054ca;stroke-width:0;stroke-opacity:0"
       d="m 309.85695,132.19748 c -3.00656,-3.10199 -5.64052,-2.57787 -4.15263,-2.44692 2.42443,0.21339 6.16175,4.94953 3.337,5.55375 -0.73995,0.15828 -6.29495,-3.01376 -5.111,-2.56626 0.86588,0.32727 6.8904,5.17169 3.57603,5.86136 -1.80243,0.37507 -6.48525,-5.06263 -11.56206,-4.67148 -1.52126,0.11722 -4.43972,4.31459 -4.85133,1.50642 -0.26396,-1.80078 4.40916,-8.85506 10.94423,-9.33548 8.78805,-0.64605 10.38105,8.7412 7.81976,6.09861 z"
       sodipodi:nodetypes="sssssssss" />
    <path
       id="path1130"
       style="fill:#834924;fill-opacity:1;stroke:#0054ca;stroke-width:0;stroke-opacity:0"
       d="m 334.27146,78.711441 c 6.26642,15.120872 4.37625,45.258129 -31.8886,55.273079 -25.73448,7.10688 -64.3676,2.26462 -57.23403,-10.47996 6.37636,-11.39173 16.95947,-21.17354 41.62866,-32.501091 24.86693,-11.418329 46.00199,-15.892188 47.49397,-12.292028 z"
       sodipodi:nodetypes="sssss" />
    <path
       id="path1132"
       style="fill:#834924;fill-opacity:1;stroke:#0054ca;stroke-width:0;stroke-opacity:0"
       d="m 257.99269,118.52799 c -2.75337,-5.03518 -13.90575,1.15402 -21.10671,5.52445 -7.20098,4.37043 -16.73883,6.20522 -13.98545,11.24042 2.75337,5.03517 12.5638,2.5747 19.76475,-1.79572 7.20097,-4.37042 18.08078,-9.93396 15.32741,-14.96915 z"
       sodipodi:nodetypes="sssss"
       inkscape:transform-center-x="14.823834"
       inkscape:transform-center-y="7.4020937" />
    <path
       inkscape:transform-center-y="6.4479738"
       inkscape:transform-center-x="13.819758"
       sodipodi:nodetypes="sssss"
       d="m 258.02228,121.0502 c -2.56687,-4.38616 -12.96387,1.00527 -19.67707,4.81235 -6.71323,3.80709 -15.60504,5.40537 -13.03816,9.79154 2.56688,4.38614 11.7128,2.24283 18.426,-1.56425 6.71323,-3.80708 16.85611,-8.65349 14.28923,-13.03964 z"
       style="fill:#a05a2c;fill-opacity:1;stroke:#0054ca;stroke-width:0;stroke-opacity:0"
       id="path1134" />
    <path
       sodipodi:nodetypes="sssss"
       d="m 334.27146,78.711441 c 6.26642,15.120872 4.37625,45.258119 -31.8886,55.273079 -25.73448,7.10688 -66.88365,1.85182 -55.04619,-9.933 10.50541,-10.45865 16.11176,-19.77884 40.75353,-31.078987 24.8726,-11.405977 44.68928,-17.861252 46.18126,-14.261092 z"
       style="fill:#a05a2c;fill-opacity:1;stroke:#0054ca;stroke-width:0;stroke-opacity:0"
       id="path1136" />
    <path
       inkscape:transform-center-y="7.9598085"
       inkscape:transform-center-x="12.957282"
       sodipodi:nodetypes="sssss"
       d="m 261.94844,124.72001 c -3.48525,-3.40281 -13.07077,3.17014 -19.19624,7.7007 -6.12547,4.53058 -14.91276,7.50379 -11.4275,10.90662 3.48526,3.40283 12.42593,-0.0943 18.55142,-4.62488 6.12549,-4.53056 15.55758,-10.57962 12.07232,-13.98244 z"
       style="fill:#834924;fill-opacity:1;stroke:#0054ca;stroke-width:0;stroke-opacity:0"
       id="path1138" />
    <path
       id="path1140"
       style="fill:#a05a2c;fill-opacity:1;stroke:#0054ca;stroke-width:0;stroke-opacity:0"
       d="m 262.0434,124.63212 c -3.04475,-3.08528 -12.71973,2.54907 -18.07099,6.65687 -5.35125,4.10781 -8.96032,6.19541 -9.66886,10.47179 -0.9984,6.02576 11.6469,-0.20127 17.19338,-4.45098 5.35498,-4.10298 13.59121,-9.59238 10.54647,-12.67768 z"
       sodipodi:nodetypes="sssss"
       inkscape:transform-center-x="11.319565"
       inkscape:transform-center-y="7.2170351" />
    <path
       sodipodi:nodetypes="sssss"
       d="m 336.97961,99.215985 c -0.95007,0.152044 2.53339,23.723315 -34.59675,34.768535 -25.487,7.5817 -45.63111,6.31309 -53.17181,-2.16209 -0.65972,-0.74146 22.63169,-18.45432 43.56305,-25.15036 27.56429,-8.81796 47.21133,-7.937121 44.20551,-7.456085 z"
       style="fill:#bc6a34;fill-opacity:1;stroke:#0054ca;stroke-width:0;stroke-opacity:0"
       id="path1142" />
    <path
       id="path1144"
       style="fill:#834924;fill-opacity:1;stroke:#0054ca;stroke-width:0;stroke-opacity:0"
       d="m 266.59524,124.24113 c -4.14135,-2.56422 -12.06966,5.93449 -17.06436,11.68779 -4.99472,5.75332 -12.92598,10.56486 -8.78463,13.12908 4.14135,2.56424 12.10856,-2.79205 17.10329,-8.54535 4.99471,-5.75331 12.88708,-13.7073 8.7457,-16.27152 z"
       sodipodi:nodetypes="sssss"
       inkscape:transform-center-x="10.942292"
       inkscape:transform-center-y="10.468948" />
    <path
       inkscape:transform-center-y="10.403329"
       inkscape:transform-center-x="9.7419024"
       sodipodi:nodetypes="sssss"
       d="m 266.72257,124.40081 c -3.68704,-2.54814 -12.69712,4.43365 -17.1439,10.15088 -4.44679,5.71727 -10.03885,11.23871 -6.35181,13.78686 3.68704,2.54817 11.26263,-2.05097 15.70943,-7.76821 4.44678,-5.71724 11.47335,-13.62138 7.78628,-16.16953 z"
       style="fill:#a05a2c;fill-opacity:1;stroke:#0054ca;stroke-width:0;stroke-opacity:0"
       id="path1146" />
    <path
       sodipodi:nodetypes="sssss"
       d="m 336.97961,99.215985 c -0.95007,0.152044 2.00286,22.131725 -35.12728,33.176935 -25.487,7.5817 -45.10058,7.90469 -52.64128,-0.57049 -0.65972,-0.74146 24.33501,-16.02099 45.26637,-22.71701 27.5643,-8.81798 45.50801,-10.370471 42.50219,-9.889435 z"
       style="fill:#a05a2c;fill-opacity:1;stroke:#0054ca;stroke-width:0;stroke-opacity:0"
       id="path1148" />
    <path
       id="path1150"
       style="fill:#a05a2c;fill-opacity:1;stroke:#0054ca;stroke-width:0;stroke-opacity:0"
       d="m 335.03432,100.27706 c 3.48895,-6.999809 7.06305,20.17512 -33.18199,32.11586 -25.49238,7.56362 -35.08282,7.66135 -42.62353,-0.81382 -0.65971,-0.74146 16.43939,-14.14219 37.37075,-20.83821 27.5643,-8.81797 37.07684,-7.73942 38.43477,-10.46383 z"
       sodipodi:nodetypes="sssss" />
    <path
       id="path1152"
       style="fill:#a0a0a0;fill-opacity:1;stroke:#0054ca;stroke-width:0;stroke-opacity:0"
       d="m 368.2888,49.413947 c 0,0 -6.93169,4.656549 -16.05491,2.676406 -1.8686,-1.593328 -1.14623,-2.837984 0.71491,-3.293871 10.01644,2.355096 15.34,0.617465 15.34,0.617465 z"
       sodipodi:nodetypes="cccc" />
    <path
       sodipodi:nodetypes="cccc"
       d="m 360.52813,43.593664 c 0,0 -5.4113,6.359994 -14.72983,6.924972 -2.23031,-1.027639 -1.87208,-2.421428 -0.20398,-3.364383 10.27991,-0.445978 14.93381,-3.560589 14.93381,-3.560589 z"
       style="fill:#a0a0a0;fill-opacity:1;stroke:#0054ca;stroke-width:0;stroke-opacity:0"
       id="path1154" />
    <path
       id="path1156"
       style="fill:#a0a0a0;fill-opacity:1;stroke:#0054ca;stroke-width:0;stroke-opacity:0"
       d="m 324.38201,36.927586 c 0,0 11.09125,3.145858 17.44406,14.539188 0.0935,3.395924 -1.83449,3.747311 -4.00476,2.192124 -6.79066,-12.670774 -13.4393,-16.731312 -13.4393,-16.731312 z"
       sodipodi:nodetypes="cccc" />
    <path
       sodipodi:nodetypes="cccc"
       d="m 317.98471,41.061331 c 0,0 10.87179,0.837493 18.67458,11.040447 0.64513,3.422772 -1.09714,4.187762 -3.37882,3.071349 -8.42142,-11.405118 -15.29576,-14.111796 -15.29576,-14.111796 z"
       style="fill:#a0a0a0;fill-opacity:1;stroke:#0054ca;stroke-width:0;stroke-opacity:0"
       id="path1158" />
    <path
       id="path1160"
       style="fill:#a0a0a0;fill-opacity:1;stroke:#0054ca;stroke-width:0;stroke-opacity:0"
       d="m 311.73093,47.317694 c 0,0 10.68955,-2.317681 20.68395,5.280927 1.45016,3.116157 -0.0453,4.354953 -2.51635,3.934016 -10.88191,-8.58037 -18.1676,-9.214943 -18.1676,-9.214943 z"
       sodipodi:nodetypes="cccc" />
    <path
       id="path1162"
       style="fill:#ffffff;fill-opacity:1;stroke:#0054ca;stroke-width:0;stroke-opacity:0"
       d="m 371.20316,68.889967 c -2.08307,14.741588 -34.42103,36.215043 -41.57316,49.404993 -1.95627,-3.68182 5.25274,-10.262 2.29947,-13.43779 -1.48311,-1.59484 -11.6431,3.07384 -11.6431,3.07384 0,0 4.2414,-7.78667 2.7018,-9.674959 -1.5922,-1.952805 -13.05088,-0.948345 -13.05088,-0.948345 0,0 4.13061,-8.426512 3.12374,-9.739283 -2.085,-2.71843 -10.50287,-0.994398 -10.50287,-0.994398 0,0 8.74332,-9.847877 12.17322,-16.104527 6.97913,-12.730991 18.38291,-19.687006 28.89451,-23.688849 6.81425,-2.594236 22.57556,5.60993 25.05526,12.073384 1.73524,4.522978 2.33877,2.235186 2.41728,10.035933"
       sodipodi:nodetypes="ccscscscsssc" />
    <ellipse
       style="fill:#cccccc;fill-opacity:1;stroke:#0054ca;stroke-width:0;stroke-opacity:0"
       id="ellipse1164"
       cx="347.6698"
       cy="-77.815926"
       rx="8.6116972"
       ry="9.7676802"
       transform="matrix(0.91324892,0.40740203,-0.41633403,0.90921173,0,0)" />
    <path
       id="path1166"
       style="fill:#ffcc00;fill-opacity:1;stroke:#0054ca;stroke-width:0;stroke-opacity:0"
       d="m 372.20935,104.34695 c 3.63589,-1.74476 -5.28503,-15.60122 -1.71583,-22.169683 3.1788,-5.849971 0.21898,-3.175408 -5.04853,-1.145136 -5.26753,2.030266 -12.75158,4.124013 -11.05015,9.770295 1.70142,5.646277 12.70112,15.998354 17.81451,13.544524 z"
       sodipodi:nodetypes="ssssss" />
    <path
       sodipodi:nodetypes="sssss"
       d="m 372.11659,103.47535 c 2.83855,-1.31267 -4.02529,-12.383184 -1.49255,-17.85377 2.25568,-4.872198 0.73849,-5.975414 -3.39977,-4.502087 -4.13838,1.473301 -9.40085,1.686074 -7.73481,6.637872 1.66605,4.951797 8.63507,17.564125 12.62713,15.717985 z"
       style="fill:#a58400;fill-opacity:1;stroke:#0054ca;stroke-width:0;stroke-opacity:0"
       id="path1168" />
    <ellipse
       transform="rotate(24.320493)"
       ry="9.4506807"
       rx="8.2112474"
       cy="-78.560387"
       cx="348.91382"
       id="ellipse1170"
       style="fill:url(#radialGradient1214);fill-opacity:1;stroke:#0054ca;stroke-width:0;stroke-opacity:0" />
    <ellipse
       style="fill:#d0a600;fill-opacity:1;stroke:#0054ca;stroke-width:0;stroke-opacity:0"
       id="ellipse1172"
       cx="357.49527"
       cy="-70.968933"
       rx="4.5487766"
       ry="5.9805851"
       transform="matrix(0.92164958,0.38802326,-0.3199855,0.94742244,0,0)" />
    <ellipse
       transform="matrix(0.92164958,0.38802326,-0.3199855,0.94742244,0,0)"
       ry="4.4642715"
       rx="3.3954825"
       cy="-70.970718"
       cx="357.68283"
       id="ellipse1174"
       style="fill:#000000;stroke:#0054ca;stroke-width:0;stroke-opacity:0" />
    <ellipse
       ry="0.88911575"
       rx="0.84158075"
       transform="matrix(0.99066967,0.13628499,-0.12187126,0.99254592,0,0)"
       cy="20.068367"
       cx="357.3382"
       id="ellipse1176"
       style="fill:#ffffff;fill-opacity:1;stroke:#0054ca;stroke-width:0;stroke-opacity:0" />
    <path
       sodipodi:nodetypes="sssss"
       d="m 385.40838,86.113488 c -1.35328,3.483785 -19.22091,0.540797 -25.72706,3.856157 -5.79446,2.952711 -6.27065,0.825516 -4.8406,-4.232383 1.43006,-5.057899 3.76124,-15.853283 10.01933,-14.083871 6.25808,1.769407 22.45153,9.560587 20.54833,14.460097 z"
       style="fill:#ffcc00;stroke:#0054ca;stroke-width:0;stroke-opacity:0"
       id="path1178" />
    <path
       sodipodi:nodetypes="sssss"
       d="m 353.54657,82.811145 c -0.94472,1.743096 -2.97475,0.222924 -7.65205,-2.312079 -4.67731,-2.535008 -6.4844,-3.31063 -5.53967,-5.053724 0.94472,-1.743096 3.09812,-1.172252 7.77543,1.362756 4.67731,2.535008 6.36102,4.259953 5.41629,6.003047 z"
       style="fill:#ffffff;fill-opacity:1;stroke:#0054ca;stroke-width:0;stroke-opacity:0"
       id="path1180" />
    <path
       sodipodi:nodetypes="cccc"
       d="m 368.57518,49.218709 c 0,0 -6.51403,5.224876 -15.7718,4.021663 -1.9964,-1.42996 -1.38163,-2.731135 0.43441,-3.34245 10.17943,1.501452 15.33739,-0.679213 15.33739,-0.679213 z"
       style="fill:#ffffff;fill-opacity:1;stroke:#0054ca;stroke-width:0;stroke-opacity:0"
       id="path1182" />
    <path
       id="path1184"
       style="fill:#ffffff;fill-opacity:1;stroke:#0054ca;stroke-width:0;stroke-opacity:0"
       d="m 368.80103,53.201318 c 0,0 -5.18726,2.357252 -11.56672,0.220362 -1.24104,-1.205121 -0.65852,-1.941434 0.69039,-2.061074 6.99403,2.463105 10.87633,1.840712 10.87633,1.840712 z"
       sodipodi:nodetypes="cccc" />
    <path
       id="path1186"
       style="fill:#ffffff;fill-opacity:1;stroke:#0054ca;stroke-width:0;stroke-opacity:0"
       d="m 360.75093,43.328157 c 0,0 -4.85532,6.793946 -14.09293,8.143259 -2.30909,-0.835765 -2.06974,-2.254815 -0.48717,-3.335169 10.2056,-1.311862 14.5801,-4.80809 14.5801,-4.80809 z"
       sodipodi:nodetypes="cccc" />
    <path
       sodipodi:nodetypes="cccc"
       d="m 311.28786,47.417195 c 0,0 10.47204,-3.292855 21.0189,3.359158 1.68622,2.97164 0.29184,4.343606 -2.20287,4.151496 -11.50718,-7.548617 -18.81603,-7.510654 -18.81603,-7.510654 z"
       style="fill:#ffffff;fill-opacity:1;stroke:#0054ca;stroke-width:0;stroke-opacity:0"
       id="path1188" />
    <path
       id="path1190"
       style="fill:#ffffff;fill-opacity:1;stroke:#0054ca;stroke-width:0;stroke-opacity:0"
       d="m 317.53327,41.029936 c 0,0 10.89782,-0.165704 19.46248,9.282992 0.90779,3.351232 -0.76906,4.273772 -3.129,3.371255 -9.27414,-10.589646 -16.33348,-12.654247 -16.33348,-12.654247 z"
       sodipodi:nodetypes="cccc" />
    <path
       sodipodi:nodetypes="cccc"
       d="m 323.92089,36.800174 c 0,0 11.28609,2.197013 18.55228,13.037339 0.37678,3.384604 -1.51001,3.900023 -3.79693,2.531431 -7.80812,-12.079155 -14.75535,-15.56877 -14.75535,-15.56877 z"
       style="fill:#ffffff;fill-opacity:1;stroke:#0054ca;stroke-width:0;stroke-opacity:0"
       id="path1192" />
    <path
       sodipodi:nodetypes="cccc"
       d="m 381.93278,84.895492 c 1.13667,-0.737724 -2.57994,-6.051251 -8.88222,-8.106239 -1.71656,0.444686 -1.7199,1.628711 -0.74243,2.674547 6.98417,2.124211 9.47424,5.716685 9.62465,5.431692 z"
       style="fill:#ffe57b;fill-opacity:1;stroke:#0054ca;stroke-width:0;stroke-opacity:0"
       id="path1194" />
    <path
       sodipodi:nodetypes="sssssssss"
       d="m 299.05816,135.99715 c -3.00655,-3.10199 -5.64052,-2.57786 -4.15262,-2.44691 2.42443,0.21338 6.16174,4.94952 3.33699,5.55375 -0.73994,0.15828 -6.29494,-3.01377 -5.111,-2.56627 0.86589,0.32728 6.8904,5.17169 3.57603,5.86137 -1.80243,0.37506 -6.48524,-5.06264 -11.56206,-4.67148 -1.52125,0.11721 -4.43972,4.31458 -4.85133,1.50641 -0.26395,-1.80078 4.40916,-8.85506 10.94424,-9.33548 8.78804,-0.64604 10.38104,8.7412 7.81975,6.09861 z"
       style="fill:#ffcc00;fill-opacity:1;stroke:#0054ca;stroke-width:0;stroke-opacity:0"
       id="path1196" />
    <g
       id="g1210"
       transform="matrix(1.4240351,0,0,0.57242703,158.83077,44.989586)">
      <path
         sodipodi:nodetypes="csscscscscssc"
         d="m 90.160828,101.05638 c 0,0 -13.922558,-4.454539 -31.354967,-9.970352 C 46.176837,87.090061 28.149595,81.269581 29.21198,75.25856 c 0.321507,-1.819097 18.895499,-8.492907 20.717494,2.863617 0,0 -19.589016,-12.312306 -19.687131,-13.962678 -0.671373,-11.293168 23.315242,1.543528 24.093828,5.027805 0,0 -23.996085,-9.099976 -23.25447,-22.141607 0.572002,-10.058897 27.654894,9.495914 28.609278,14.103992 0,0 -31.319813,-22.618268 -27.768855,-31.957842 3.163335,-8.320062 34.831318,19.512767 34.831318,19.512767 0,0 -42.063801,-30.481124 -32.121431,-37.525337 9.058411,-6.4179254 44.905044,34.277292 48.217967,38.659475 16.131241,21.337668 9.136426,51.603888 7.31085,51.217628 z"
         style="fill:#834924;fill-opacity:1;stroke:#0054ca;stroke-width:0;stroke-opacity:0"
         id="path1198" />
      <path
         sodipodi:nodetypes="cccsc"
         d="m 90.841813,101.0438 c 0,0 -4.906284,-47.783725 -22.501732,-53.24559 C 60.983599,27.267782 25.710588,21.3649 36.151972,10.518874 54.984227,6.906305 81.42132,41.87089 84.68209,46.47296 c 15.8773,22.408335 8.007144,54.93824 6.159723,54.57084 z"
         style="fill:#bc6a34;fill-opacity:1;stroke:#0054ca;stroke-width:0;stroke-opacity:0"
         id="path1200" />
      <path
         id="path1202"
         style="fill:#a05a2c;fill-opacity:1;stroke:#0054ca;stroke-width:0;stroke-opacity:0"
         d="m 89.84894,101.89793 c 0,0 -12.97513,-3.988387 -29.180852,-9.056382 C 48.881362,89.1555 31.950482,82.120822 33.317251,77.864194 c 1.319733,-4.110143 21.880612,-5.835439 19.391834,2.252447 0,0 -16.507452,-11.941722 -16.58957,-13.590913 -0.44289,-8.894657 20.294298,2.270959 20.998418,4.507413 0.490854,-0.397268 -19.693708,-10.317556 -21.203012,-21.492543 -1.052391,-7.79197 25.60484,9.492854 26.476493,13.279826 1.168354,-0.02525 -28.44874,-22.176265 -25.15488,-31.193545 1.877754,-5.140544 32.188409,19.05408 32.164985,18.51393 0.784979,-0.474826 -43.057655,-32.422737 -34.39296,-39.237057 8.635899,-6.7916743 46.507879,35.602104 49.491993,39.894216 14.530205,20.899093 7.053159,51.432622 5.348388,51.099962 z"
         sodipodi:nodetypes="csscscscscssc" />
      <path
         id="path1204"
         style="fill:#834924;fill-opacity:1;stroke:#0054ca;stroke-width:0;stroke-opacity:0"
         d="m 92.678793,104.64682 c 0,0 -7.615158,-3.49772 -17.154867,-7.834628 -6.9111,-3.141899 -16.767282,-7.707155 -15.692948,-11.823099 0.325126,-1.245592 11.464315,-5.286136 11.62415,2.60655 0,0 -10.245035,-9.092848 -10.172963,-10.234772 0.493186,-7.813957 13.212104,1.774578 13.386703,4.202801 0,0 -13.014545,-7.010073 -11.5776,-15.98767 1.108307,-6.924342 15.075957,7.394637 15.263799,10.603754 0,0 -16.152457,-16.562011 -13.396609,-22.899307 2.455023,-5.645508 18.401578,14.525714 18.401578,14.525714 0,0 -21.685353,-22.315137 -15.453076,-26.873918 5.678176,-4.15347 23.015178,25.021354 24.569208,28.146339 7.566872,15.216139 1.21652,35.890346 0.202625,35.568236 z"
         sodipodi:nodetypes="csscscscscssc" />
      <path
         id="path1206"
         style="fill:#bc6a34;fill-opacity:1;stroke:#0054ca;stroke-width:0;stroke-opacity:0"
         d="m 93.069168,104.65886 c 0,0 0.905647,-33.125307 -8.731471,-37.429939 -2.612045,-14.392082 -22.3232,-19.538913 -15.510311,-26.706182 11.049119,-1.920094 23.450682,23.013675 24.957827,26.288824 7.338517,15.94729 0.311809,38.157057 -0.716045,37.847297 z"
         sodipodi:nodetypes="cccsc" />
      <path
         sodipodi:nodetypes="csscscscscssc"
         d="m 92.435089,105.21809 c 0,0 -7.109604,-3.1472 -15.982655,-7.137736 -6.453536,-2.902394 -15.588501,-8.272224 -14.476372,-11.16818 1.073856,-2.7963 12.964852,-3.36137 10.913587,2.14444 0,0 -8.511736,-8.743348 -8.430608,-9.883971 0.437555,-6.151766 11.42819,2.184675 11.657121,3.749495 0.311528,-0.259224 -10.459823,-7.719435 -10.454957,-15.477329 0.0034,-5.409335 13.903948,7.330153 14.108251,9.9701 0.670041,0.01813 -14.545064,-16.169626 -11.96126,-22.292326 1.472966,-3.49041 16.925936,14.128755 16.954504,13.755281 0.485733,-0.303801 -22.102855,-23.685303 -16.619025,-28.124304 5.465605,-4.424252 23.828806,25.984385 25.201816,29.037207 6.685459,14.864766 0.03858,35.708773 -0.910402,35.427323 z"
         style="fill:#a05a2c;fill-opacity:1;stroke:#0054ca;stroke-width:0;stroke-opacity:0"
         id="path1208" />
    </g>
    <path
       id="path1212"
       style="fill:#4d4d4d;fill-opacity:1;stroke:#0054ca;stroke-width:0;stroke-opacity:0"
       d="m 363.28476,65.718781 c -0.11946,0.565773 -4.30984,-4.387688 -9.86153,-5.559761 -5.55168,-1.172073 -10.22749,-1.435829 -9.83593,-3.146653 0.56804,-2.481927 4.7168,-0.07428 10.26849,1.097795 5.55168,1.172073 9.54842,7.042842 9.42897,7.608619 z"
       sodipodi:nodetypes="sssss" />
    <path
       id="path1304"
       style="fill:#834924;fill-opacity:1;stroke:#0054ca;stroke-width:0;stroke-opacity:0"
       d="m 695.77827,113.28532 c 0,0 -21.56786,-6.17603 -48.61523,-13.870327 -19.59465,-5.574174 -47.48513,-13.604022 -41.4878,-17.11519 1.81494,-1.062574 39.23317,-0.734597 34.6738,6.829352 0,0 -26.20417,-12.4801 -25.24686,-13.538828 6.55066,-7.244657 40.17202,6.632739 39.16149,9.006775 0,0 -36.19848,-11.536537 -25.95113,-19.534282 7.90369,-6.168594 42.39726,12.673787 40.92757,15.795232 0,0 -39.88693,-21.792801 -27.20826,-26.786542 11.29466,-4.448622 48.22436,20.698637 48.22436,20.698637 0,0 -53.49865,-29.333757 -31.09042,-31.335255 20.41595,-1.82355 55.92189,32.404524 58.77775,35.957364 13.90556,17.299453 -19.20166,34.578814 -22.16527,33.893064 z"
       sodipodi:nodetypes="csscscscscssc" />
    <path
       sodipodi:nodetypes="sssssssss"
       d="m 709.85721,132.19748 c -3.00656,-3.10199 -5.64052,-2.57787 -4.15263,-2.44692 2.42443,0.21339 6.16175,4.94953 3.337,5.55375 -0.73995,0.15828 -6.29495,-3.01376 -5.111,-2.56626 0.86588,0.32727 6.8904,5.17169 3.57603,5.86136 -1.80243,0.37507 -6.48525,-5.06263 -11.56206,-4.67148 -1.52126,0.11722 -4.43972,4.31459 -4.85133,1.50642 -0.26396,-1.80078 4.40916,-8.85506 10.94423,-9.33548 8.78805,-0.64605 10.38105,8.7412 7.81976,6.09861 z"
       style="fill:#a58400;fill-opacity:1;stroke:#0054ca;stroke-width:0;stroke-opacity:0"
       id="path1306" />
    <path
       sodipodi:nodetypes="sssss"
       d="m 734.27172,78.711441 c 6.26642,15.120872 4.37625,45.258129 -31.8886,55.273079 -25.73448,7.10688 -64.3676,2.26462 -57.23403,-10.47996 6.37636,-11.39173 16.95947,-21.17354 41.62866,-32.501091 24.86693,-11.418329 46.00199,-15.892188 47.49397,-12.292028 z"
       style="fill:#834924;fill-opacity:1;stroke:#0054ca;stroke-width:0;stroke-opacity:0"
       id="path1308" />
    <path
       inkscape:transform-center-y="7.4020937"
       inkscape:transform-center-x="14.823834"
       sodipodi:nodetypes="sssss"
       d="m 657.99295,118.52799 c -2.75337,-5.03518 -13.90575,1.15402 -21.10671,5.52445 -7.20098,4.37043 -16.73883,6.20522 -13.98545,11.24042 2.75337,5.03517 12.5638,2.5747 19.76475,-1.79572 7.20097,-4.37042 18.08078,-9.93396 15.32741,-14.96915 z"
       style="fill:#834924;fill-opacity:1;stroke:#0054ca;stroke-width:0;stroke-opacity:0"
       id="path1310" />
    <path
       id="path1312"
       style="fill:#a05a2c;fill-opacity:1;stroke:#0054ca;stroke-width:0;stroke-opacity:0"
       d="m 658.02254,121.0502 c -2.56687,-4.38616 -12.96387,1.00527 -19.67707,4.81235 -6.71323,3.80709 -15.60504,5.40537 -13.03816,9.79154 2.56688,4.38614 11.7128,2.24283 18.426,-1.56425 6.71323,-3.80708 16.85611,-8.65349 14.28923,-13.03964 z"
       sodipodi:nodetypes="sssss"
       inkscape:transform-center-x="13.819758"
       inkscape:transform-center-y="6.4479738" />
    <path
       id="path1314"
       style="fill:#a05a2c;fill-opacity:1;stroke:#0054ca;stroke-width:0;stroke-opacity:0"
       d="m 734.27172,78.711441 c 6.26642,15.120872 4.37625,45.258119 -31.8886,55.273079 -25.73448,7.10688 -66.88365,1.85182 -55.04619,-9.933 10.50541,-10.45865 16.11176,-19.77884 40.75353,-31.078987 24.8726,-11.405977 44.68928,-17.861252 46.18126,-14.261092 z"
       sodipodi:nodetypes="sssss" />
    <path
       id="path1316"
       style="fill:#834924;fill-opacity:1;stroke:#0054ca;stroke-width:0;stroke-opacity:0"
       d="m 661.9487,124.72001 c -3.48525,-3.40281 -13.07077,3.17014 -19.19624,7.7007 -6.12547,4.53058 -14.91276,7.50379 -11.4275,10.90662 3.48526,3.40283 12.42593,-0.0943 18.55142,-4.62488 6.12549,-4.53056 15.55758,-10.57962 12.07232,-13.98244 z"
       sodipodi:nodetypes="sssss"
       inkscape:transform-center-x="12.957282"
       inkscape:transform-center-y="7.9598085" />
    <path
       inkscape:transform-center-y="7.2170351"
       inkscape:transform-center-x="11.319565"
       sodipodi:nodetypes="sssss"
       d="m 662.04366,124.63212 c -3.04475,-3.08528 -12.71973,2.54907 -18.07099,6.65687 -5.35125,4.10781 -8.96032,6.19541 -9.66886,10.47179 -0.9984,6.02576 11.6469,-0.20127 17.19338,-4.45098 5.35498,-4.10298 13.59121,-9.59238 10.54647,-12.67768 z"
       style="fill:#a05a2c;fill-opacity:1;stroke:#0054ca;stroke-width:0;stroke-opacity:0"
       id="path1318" />
    <path
       id="path1320"
       style="fill:#bc6a34;fill-opacity:1;stroke:#0054ca;stroke-width:0;stroke-opacity:0"
       d="m 736.97987,99.215985 c -0.95007,0.152044 2.53339,23.723315 -34.59675,34.768535 -25.487,7.5817 -45.63111,6.31309 -53.17181,-2.16209 -0.65972,-0.74146 22.63169,-18.45432 43.56305,-25.15036 27.56429,-8.81796 47.21133,-7.937121 44.20551,-7.456085 z"
       sodipodi:nodetypes="sssss" />
    <path
       inkscape:transform-center-y="10.468948"
       inkscape:transform-center-x="10.942292"
       sodipodi:nodetypes="sssss"
       d="m 666.5955,124.24113 c -4.14135,-2.56422 -12.06966,5.93449 -17.06436,11.68779 -4.99472,5.75332 -12.92598,10.56486 -8.78463,13.12908 4.14135,2.56424 12.10856,-2.79205 17.10329,-8.54535 4.99471,-5.75331 12.88708,-13.7073 8.7457,-16.27152 z"
       style="fill:#834924;fill-opacity:1;stroke:#0054ca;stroke-width:0;stroke-opacity:0"
       id="path1322" />
    <path
       id="path1324"
       style="fill:#a05a2c;fill-opacity:1;stroke:#0054ca;stroke-width:0;stroke-opacity:0"
       d="m 666.72283,124.40081 c -3.68704,-2.54814 -12.69712,4.43365 -17.1439,10.15088 -4.44679,5.71727 -10.03885,11.23871 -6.35181,13.78686 3.68704,2.54817 11.26263,-2.05097 15.70943,-7.76821 4.44678,-5.71724 11.47335,-13.62138 7.78628,-16.16953 z"
       sodipodi:nodetypes="sssss"
       inkscape:transform-center-x="9.7419024"
       inkscape:transform-center-y="10.403329" />
    <path
       id="path1326"
       style="fill:#a05a2c;fill-opacity:1;stroke:#0054ca;stroke-width:0;stroke-opacity:0"
       d="m 736.97987,99.215985 c -0.95007,0.152044 2.00286,22.131725 -35.12728,33.176935 -25.487,7.5817 -45.10058,7.90469 -52.64128,-0.57049 -0.65972,-0.74146 24.33501,-16.02099 45.26637,-22.71701 27.5643,-8.81798 45.50801,-10.370471 42.50219,-9.889435 z"
       sodipodi:nodetypes="sssss" />
    <path
       sodipodi:nodetypes="sssss"
       d="m 735.03458,100.27706 c 3.48895,-6.999809 7.06305,20.17512 -33.18199,32.11586 -25.49238,7.56362 -35.08282,7.66135 -42.62353,-0.81382 -0.65971,-0.74146 16.43939,-14.14219 37.37075,-20.83821 27.5643,-8.81797 37.07684,-7.73942 38.43477,-10.46383 z"
       style="fill:#a05a2c;fill-opacity:1;stroke:#0054ca;stroke-width:0;stroke-opacity:0"
       id="path1328" />
    <path
       sodipodi:nodetypes="cccc"
       d="m 768.28906,49.413947 c 0,0 -6.93169,4.656549 -16.05491,2.676406 -1.8686,-1.593328 -1.14623,-2.837984 0.71491,-3.293871 10.01644,2.355096 15.34,0.617465 15.34,0.617465 z"
       style="fill:#a0a0a0;fill-opacity:1;stroke:#0054ca;stroke-width:0;stroke-opacity:0"
       id="path1330" />
    <path
       id="path1332"
       style="fill:#a0a0a0;fill-opacity:1;stroke:#0054ca;stroke-width:0;stroke-opacity:0"
       d="m 760.52839,43.593664 c 0,0 -5.4113,6.359994 -14.72983,6.924972 -2.23031,-1.027639 -1.87208,-2.421428 -0.20398,-3.364383 10.27991,-0.445978 14.93381,-3.560589 14.93381,-3.560589 z"
       sodipodi:nodetypes="cccc" />
    <path
       sodipodi:nodetypes="cccc"
       d="m 724.38227,36.927586 c 0,0 11.09125,3.145858 17.44406,14.539188 0.0935,3.395924 -1.83449,3.747311 -4.00476,2.192124 -6.79066,-12.670774 -13.4393,-16.731312 -13.4393,-16.731312 z"
       style="fill:#a0a0a0;fill-opacity:1;stroke:#0054ca;stroke-width:0;stroke-opacity:0"
       id="path1334" />
    <path
       id="path1336"
       style="fill:#a0a0a0;fill-opacity:1;stroke:#0054ca;stroke-width:0;stroke-opacity:0"
       d="m 717.98497,41.061331 c 0,0 10.87179,0.837493 18.67458,11.040447 0.64513,3.422772 -1.09714,4.187762 -3.37882,3.071349 -8.42142,-11.405118 -15.29576,-14.111796 -15.29576,-14.111796 z"
       sodipodi:nodetypes="cccc" />
    <path
       sodipodi:nodetypes="cccc"
       d="m 711.73119,47.317694 c 0,0 10.68955,-2.317681 20.68395,5.280927 1.45016,3.116157 -0.0453,4.354953 -2.51635,3.934016 -10.88191,-8.58037 -18.1676,-9.214943 -18.1676,-9.214943 z"
       style="fill:#a0a0a0;fill-opacity:1;stroke:#0054ca;stroke-width:0;stroke-opacity:0"
       id="path1338" />
    <path
       sodipodi:nodetypes="ccscscscsssc"
       d="m 771.20342,68.889967 c -2.08307,14.741588 -34.42103,36.215043 -41.57316,49.404993 -1.95627,-3.68182 5.25274,-10.262 2.29947,-13.43779 -1.48311,-1.59484 -11.6431,3.07384 -11.6431,3.07384 0,0 4.2414,-7.78667 2.7018,-9.674959 -1.5922,-1.952805 -13.05088,-0.948345 -13.05088,-0.948345 0,0 4.13061,-8.426512 3.12374,-9.739283 -2.085,-2.71843 -10.50287,-0.994398 -10.50287,-0.994398 0,0 8.74332,-9.847877 12.17322,-16.104527 6.97913,-12.730991 18.38291,-19.687006 28.89451,-23.688849 6.81425,-2.594236 22.57556,5.60993 25.05526,12.073384 1.73524,4.522978 2.33877,2.235186 2.41728,10.035933"
       style="fill:#ffffff;fill-opacity:1;stroke:#0054ca;stroke-width:0;stroke-opacity:0"
       id="path1340" />
    <ellipse
       transform="matrix(0.91324892,0.40740203,-0.41633403,0.90921173,0,0)"
       ry="9.7676802"
       rx="8.6116972"
       cy="-240.78467"
       cx="711.37219"
       id="ellipse1342"
       style="fill:#cccccc;fill-opacity:1;stroke:#0054ca;stroke-width:0;stroke-opacity:0" />
    <path
       sodipodi:nodetypes="ssssss"
       d="m 772.20961,104.34695 c 3.63589,-1.74476 -5.28503,-15.60122 -1.71583,-22.169683 3.1788,-5.849971 0.21898,-3.175408 -5.04853,-1.145136 -5.26753,2.030266 -12.75158,4.124013 -11.05015,9.770295 1.70142,5.646277 12.70112,15.998354 17.81451,13.544524 z"
       style="fill:#ffcc00;fill-opacity:1;stroke:#0054ca;stroke-width:0;stroke-opacity:0"
       id="path1344" />
    <path
       id="path1346"
       style="fill:#a58400;fill-opacity:1;stroke:#0054ca;stroke-width:0;stroke-opacity:0"
       d="m 772.11685,103.47535 c 2.83855,-1.31267 -4.02529,-12.383184 -1.49255,-17.85377 2.25568,-4.872198 0.73849,-5.975414 -3.39977,-4.502087 -4.13838,1.473301 -9.40085,1.686074 -7.73481,6.637872 1.66605,4.951797 8.63507,17.564125 12.62713,15.717985 z"
       sodipodi:nodetypes="sssss" />
    <ellipse
       style="fill:url(#radialGradient1392);fill-opacity:1;stroke:#0054ca;stroke-width:0;stroke-opacity:0"
       id="ellipse1348"
       cx="713.41644"
       cy="-243.29662"
       rx="8.2112474"
       ry="9.4506807"
       transform="rotate(24.320493)" />
    <ellipse
       transform="matrix(0.92164958,0.38802326,-0.3199855,0.94742244,0,0)"
       ry="5.9805851"
       rx="4.5487766"
       cy="-226.59023"
       cx="737.47015"
       id="ellipse1350"
       style="fill:#d0a600;fill-opacity:1;stroke:#0054ca;stroke-width:0;stroke-opacity:0" />
    <ellipse
       style="fill:#000000;stroke:#0054ca;stroke-width:0;stroke-opacity:0"
       id="ellipse1352"
       cx="737.65771"
       cy="-226.59201"
       rx="3.3954825"
       ry="4.4642715"
       transform="matrix(0.92164958,0.38802326,-0.3199855,0.94742244,0,0)" />
    <ellipse
       style="fill:#ffffff;fill-opacity:1;stroke:#0054ca;stroke-width:0;stroke-opacity:0"
       id="ellipse1354"
       cx="754.39874"
       cy="-34.451424"
       transform="matrix(0.99066967,0.13628499,-0.12187126,0.99254592,0,0)"
       rx="0.84158075"
       ry="0.88911575" />
    <path
       id="path1356"
       style="fill:#ffcc00;stroke:#0054ca;stroke-width:0;stroke-opacity:0"
       d="m 785.40864,86.113488 c -1.35328,3.483785 -19.22091,0.540797 -25.72706,3.856157 -5.79446,2.952711 -6.27065,0.825516 -4.8406,-4.232383 1.43006,-5.057899 3.76124,-15.853283 10.01933,-14.083871 6.25808,1.769407 22.45153,9.560587 20.54833,14.460097 z"
       sodipodi:nodetypes="sssss" />
    <path
       id="path1358"
       style="fill:#ffffff;fill-opacity:1;stroke:#0054ca;stroke-width:0;stroke-opacity:0"
       d="m 753.54683,82.811145 c -0.94472,1.743096 -2.97475,0.222924 -7.65205,-2.312079 -4.67731,-2.535008 -6.4844,-3.31063 -5.53967,-5.053724 0.94472,-1.743096 3.09812,-1.172252 7.77543,1.362756 4.67731,2.535008 6.36102,4.259953 5.41629,6.003047 z"
       sodipodi:nodetypes="sssss" />
    <path
       id="path1360"
       style="fill:#ffffff;fill-opacity:1;stroke:#0054ca;stroke-width:0;stroke-opacity:0"
       d="m 768.57544,49.218709 c 0,0 -6.51403,5.224876 -15.7718,4.021663 -1.9964,-1.42996 -1.38163,-2.731135 0.43441,-3.34245 10.17943,1.501452 15.33739,-0.679213 15.33739,-0.679213 z"
       sodipodi:nodetypes="cccc" />
    <path
       sodipodi:nodetypes="cccc"
       d="m 768.80129,53.201318 c 0,0 -5.18726,2.357252 -11.56672,0.220362 -1.24104,-1.205121 -0.65852,-1.941434 0.69039,-2.061074 6.99403,2.463105 10.87633,1.840712 10.87633,1.840712 z"
       style="fill:#ffffff;fill-opacity:1;stroke:#0054ca;stroke-width:0;stroke-opacity:0"
       id="path1362" />
    <path
       sodipodi:nodetypes="cccc"
       d="m 760.75119,43.328157 c 0,0 -4.85532,6.793946 -14.09293,8.143259 -2.30909,-0.835765 -2.06974,-2.254815 -0.48717,-3.335169 10.2056,-1.311862 14.5801,-4.80809 14.5801,-4.80809 z"
       style="fill:#ffffff;fill-opacity:1;stroke:#0054ca;stroke-width:0;stroke-opacity:0"
       id="path1364" />
    <path
       id="path1366"
       style="fill:#ffffff;fill-opacity:1;stroke:#0054ca;stroke-width:0;stroke-opacity:0"
       d="m 711.28812,47.417195 c 0,0 10.47204,-3.292855 21.0189,3.359158 1.68622,2.97164 0.29184,4.343606 -2.20287,4.151496 -11.50718,-7.548617 -18.81603,-7.510654 -18.81603,-7.510654 z"
       sodipodi:nodetypes="cccc" />
    <path
       sodipodi:nodetypes="cccc"
       d="m 717.53353,41.029936 c 0,0 10.89782,-0.165704 19.46248,9.282992 0.90779,3.351232 -0.76906,4.273772 -3.129,3.371255 -9.27414,-10.589646 -16.33348,-12.654247 -16.33348,-12.654247 z"
       style="fill:#ffffff;fill-opacity:1;stroke:#0054ca;stroke-width:0;stroke-opacity:0"
       id="path1368" />
    <path
       id="path1370"
       style="fill:#ffffff;fill-opacity:1;stroke:#0054ca;stroke-width:0;stroke-opacity:0"
       d="m 723.92115,36.800174 c 0,0 11.28609,2.197013 18.55228,13.037339 0.37678,3.384604 -1.51001,3.900023 -3.79693,2.531431 -7.80812,-12.079155 -14.75535,-15.56877 -14.75535,-15.56877 z"
       sodipodi:nodetypes="cccc" />
    <path
       id="path1372"
       style="fill:#ffe57b;fill-opacity:1;stroke:#0054ca;stroke-width:0;stroke-opacity:0"
       d="m 781.93304,84.895492 c 1.13667,-0.737724 -2.57994,-6.051251 -8.88222,-8.106239 -1.71656,0.444686 -1.7199,1.628711 -0.74243,2.674547 6.98417,2.124211 9.47424,5.716685 9.62465,5.431692 z"
       sodipodi:nodetypes="cccc" />
    <path
       id="path1374"
       style="fill:#ffcc00;fill-opacity:1;stroke:#0054ca;stroke-width:0;stroke-opacity:0"
       d="m 699.05842,135.99715 c -3.00655,-3.10199 -5.64052,-2.57786 -4.15262,-2.44691 2.42443,0.21338 6.16174,4.94952 3.33699,5.55375 -0.73994,0.15828 -6.29494,-3.01377 -5.111,-2.56627 0.86589,0.32728 6.8904,5.17169 3.57603,5.86137 -1.80243,0.37506 -6.48524,-5.06264 -11.56206,-4.67148 -1.52125,0.11721 -4.43972,4.31458 -4.85133,1.50641 -0.26395,-1.80078 4.40916,-8.85506 10.94424,-9.33548 8.78804,-0.64604 10.38104,8.7412 7.81975,6.09861 z"
       sodipodi:nodetypes="sssssssss" />
    <g
       transform="matrix(1.4240351,0,0,0.57242703,558.83103,44.989586)"
       id="g1388">
      <path
         id="path1376"
         style="fill:#834924;fill-opacity:1;stroke:#0054ca;stroke-width:0;stroke-opacity:0"
         d="m 90.160828,101.05638 c 0,0 -13.922558,-4.454539 -31.354967,-9.970352 C 46.176837,87.090061 28.149595,81.269581 29.21198,75.25856 c 0.321507,-1.819097 18.895499,-8.492907 20.717494,2.863617 0,0 -19.589016,-12.312306 -19.687131,-13.962678 -0.671373,-11.293168 23.315242,1.543528 24.093828,5.027805 0,0 -23.996085,-9.099976 -23.25447,-22.141607 0.572002,-10.058897 27.654894,9.495914 28.609278,14.103992 0,0 -31.319813,-22.618268 -27.768855,-31.957842 3.163335,-8.320062 34.831318,19.512767 34.831318,19.512767 0,0 -42.063801,-30.481124 -32.121431,-37.525337 9.058411,-6.4179254 44.905044,34.277292 48.217967,38.659475 16.131241,21.337668 9.136426,51.603888 7.31085,51.217628 z"
         sodipodi:nodetypes="csscscscscssc" />
      <path
         id="path1378"
         style="fill:#bc6a34;fill-opacity:1;stroke:#0054ca;stroke-width:0;stroke-opacity:0"
         d="m 90.841813,101.0438 c 0,0 -4.906284,-47.783725 -22.501732,-53.24559 C 60.983599,27.267782 25.710588,21.3649 36.151972,10.518874 54.984227,6.906305 81.42132,41.87089 84.68209,46.47296 c 15.8773,22.408335 8.007144,54.93824 6.159723,54.57084 z"
         sodipodi:nodetypes="cccsc" />
      <path
         sodipodi:nodetypes="csscscscscssc"
         d="m 89.84894,101.89793 c 0,0 -12.97513,-3.988387 -29.180852,-9.056382 C 48.881362,89.1555 31.950482,82.120822 33.317251,77.864194 c 1.319733,-4.110143 21.880612,-5.835439 19.391834,2.252447 0,0 -16.507452,-11.941722 -16.58957,-13.590913 -0.44289,-8.894657 20.294298,2.270959 20.998418,4.507413 0.490854,-0.397268 -19.693708,-10.317556 -21.203012,-21.492543 -1.052391,-7.79197 25.60484,9.492854 26.476493,13.279826 1.168354,-0.02525 -28.44874,-22.176265 -25.15488,-31.193545 1.877754,-5.140544 32.188409,19.05408 32.164985,18.51393 0.784979,-0.474826 -43.057655,-32.422737 -34.39296,-39.237057 8.635899,-6.7916743 46.507879,35.602104 49.491993,39.894216 14.530205,20.899093 7.053159,51.432622 5.348388,51.099962 z"
         style="fill:#a05a2c;fill-opacity:1;stroke:#0054ca;stroke-width:0;stroke-opacity:0"
         id="path1380" />
      <path
         sodipodi:nodetypes="csscscscscssc"
         d="m 92.678793,104.64682 c 0,0 -7.615158,-3.49772 -17.154867,-7.834628 -6.9111,-3.141899 -16.767282,-7.707155 -15.692948,-11.823099 0.325126,-1.245592 11.464315,-5.286136 11.62415,2.60655 0,0 -10.245035,-9.092848 -10.172963,-10.234772 0.493186,-7.813957 13.212104,1.774578 13.386703,4.202801 0,0 -13.014545,-7.010073 -11.5776,-15.98767 1.108307,-6.924342 15.075957,7.394637 15.263799,10.603754 0,0 -16.152457,-16.562011 -13.396609,-22.899307 2.455023,-5.645508 18.401578,14.525714 18.401578,14.525714 0,0 -21.685353,-22.315137 -15.453076,-26.873918 5.678176,-4.15347 23.015178,25.021354 24.569208,28.146339 7.566872,15.216139 1.21652,35.890346 0.202625,35.568236 z"
         style="fill:#834924;fill-opacity:1;stroke:#0054ca;stroke-width:0;stroke-opacity:0"
         id="path1382" />
      <path
         sodipodi:nodetypes="cccsc"
         d="m 93.069168,104.65886 c 0,0 0.905647,-33.125307 -8.731471,-37.429939 -2.612045,-14.392082 -22.3232,-19.538913 -15.510311,-26.706182 11.049119,-1.920094 23.450682,23.013675 24.957827,26.288824 7.338517,15.94729 0.311809,38.157057 -0.716045,37.847297 z"
         style="fill:#bc6a34;fill-opacity:1;stroke:#0054ca;stroke-width:0;stroke-opacity:0"
         id="path1384" />
      <path
         id="path1386"
         style="fill:#a05a2c;fill-opacity:1;stroke:#0054ca;stroke-width:0;stroke-opacity:0"
         d="m 92.435089,105.21809 c 0,0 -7.109604,-3.1472 -15.982655,-7.137736 -6.453536,-2.902394 -15.588501,-8.272224 -14.476372,-11.16818 1.073856,-2.7963 12.964852,-3.36137 10.913587,2.14444 0,0 -8.511736,-8.743348 -8.430608,-9.883971 0.437555,-6.151766 11.42819,2.184675 11.657121,3.749495 0.311528,-0.259224 -10.459823,-7.719435 -10.454957,-15.477329 0.0034,-5.409335 13.903948,7.330153 14.108251,9.9701 0.670041,0.01813 -14.545064,-16.169626 -11.96126,-22.292326 1.472966,-3.49041 16.925936,14.128755 16.954504,13.755281 0.485733,-0.303801 -22.102855,-23.685303 -16.619025,-28.124304 5.465605,-4.424252 23.828806,25.984385 25.201816,29.037207 6.685459,14.864766 0.03858,35.708773 -0.910402,35.427323 z"
         sodipodi:nodetypes="csscscscscssc" />
    </g>
    <path
       sodipodi:nodetypes="sssss"
       d="m 763.28502,65.718781 c -0.11946,0.565773 -4.30984,-4.387688 -9.86153,-5.559761 -5.55168,-1.172073 -10.22749,-1.435829 -9.83593,-3.146653 0.56804,-2.481927 4.7168,-0.07428 10.26849,1.097795 5.55168,1.172073 9.54842,7.042842 9.42897,7.608619 z"
       style="fill:#4d4d4d;fill-opacity:1;stroke:#0054ca;stroke-width:0;stroke-opacity:0"
       id="path1390" />
  </g>
  <g
     style="display:inline;opacity:1"
     inkscape:label="Layer 2"
     id="layer3"
     inkscape:groupmode="layer" />
  <g
     style="display:inline"
     inkscape:label="Layer 3"
     id="layer4"
     inkscape:groupmode="layer" />
  <g
     inkscape:groupmode="layer"
     id="g1363"
     inkscape:label="Layer 4"
     style="display:inline;opacity:1" />
</svg>
