<?xml version="1.0" encoding="UTF-8" standalone="no"?>
<svg
   xmlns:dc="http://purl.org/dc/elements/1.1/"
   xmlns:cc="http://creativecommons.org/ns#"
   xmlns:rdf="http://www.w3.org/1999/02/22-rdf-syntax-ns#"
   xmlns:svg="http://www.w3.org/2000/svg"
   xmlns="http://www.w3.org/2000/svg"
   xmlns:xlink="http://www.w3.org/1999/xlink"
   xmlns:sodipodi="http://sodipodi.sourceforge.net/DTD/sodipodi-0.dtd"
   xmlns:inkscape="http://www.inkscape.org/namespaces/inkscape"
   width="800mm"
   height="160mm"
   viewBox="0 0 800 160"
   version="1.1"
   id="svg8"
   inkscape:version="1.0 (4035a4fb49, 2020-05-01)"
   sodipodi:docname="toucan-flying.svg"
   inkscape:export-filename="C:\Users\AGP\Documents\Inkscape\basic-bird.png"
   inkscape:export-xdpi="96"
   inkscape:export-ydpi="96">
  <defs
     id="defs2">
    <linearGradient
       inkscape:collect="always"
       id="linearGradient851">
      <stop
         style="stop-color:#ffffff;stop-opacity:1;"
         offset="0"
         id="stop847" />
      <stop
         style="stop-color:#b3b3b3;stop-opacity:1"
         offset="1"
         id="stop849" />
    </linearGradient>
    <radialGradient
       inkscape:collect="always"
       xlink:href="#linearGradient851"
       id="radialGradient853"
       cx="220.31052"
       cy="53.106144"
       fx="220.31052"
       fy="53.106144"
       r="8.9542255"
       gradientTransform="matrix(-0.00553723,1.0496928,-0.92679342,-0.00488893,185.68049,-230.77131)"
       gradientUnits="userSpaceOnUse" />
    <radialGradient
       r="8.9542255"
       fy="53.106144"
       fx="220.31052"
       cy="53.106144"
       cx="220.31052"
       gradientTransform="matrix(-0.00553723,1.0496928,-0.92679342,-0.00488893,550.18291,-395.50743)"
       gradientUnits="userSpaceOnUse"
       id="radialGradient1205"
       xlink:href="#linearGradient851"
       inkscape:collect="always" />
    <radialGradient
       r="8.9542255"
       fy="53.106144"
       fx="220.31052"
       cy="53.106144"
       cx="220.31052"
       gradientTransform="matrix(-0.00553723,1.0496928,-0.92679342,-0.00488893,367.9317,-313.13937)"
       gradientUnits="userSpaceOnUse"
       id="radialGradient1307"
       xlink:href="#linearGradient851"
       inkscape:collect="always" />
    <radialGradient
       r="8.9542255"
       fy="53.106144"
       fx="220.31052"
       cy="53.106144"
       cx="220.31052"
       gradientTransform="matrix(-0.00553723,1.0496928,-0.92679342,-0.00488893,732.43411,-477.8755)"
       gradientUnits="userSpaceOnUse"
       id="radialGradient1409"
       xlink:href="#linearGradient851"
       inkscape:collect="always" />
  </defs>
  <sodipodi:namedview
     id="base"
     pagecolor="#ffffff"
     bordercolor="#666666"
     borderopacity="1.0"
     inkscape:pageopacity="0.0"
     inkscape:pageshadow="2"
     inkscape:zoom="0.29654518"
     inkscape:cx="261.68443"
     inkscape:cy="-220.08757"
     inkscape:document-units="mm"
     inkscape:current-layer="layer1"
     inkscape:document-rotation="0"
     showgrid="false"
     inkscape:snap-global="false"
     inkscape:window-width="2400"
     inkscape:window-height="1272"
     inkscape:window-x="4792"
     inkscape:window-y="-8"
     inkscape:window-maximized="1" />
  <metadata
     id="metadata5">
    <rdf:RDF>
      <cc:Work
         rdf:about="">
        <dc:format>image/svg+xml</dc:format>
        <dc:type
           rdf:resource="http://purl.org/dc/dcmitype/StillImage" />
        <dc:title />
      </cc:Work>
    </rdf:RDF>
  </metadata>
  <g
     inkscape:label="Layer 1"
     inkscape:groupmode="layer"
     id="layer1"
     style="display:inline;opacity:1">
    <path
       id="path947"
       style="fill:#1a1a1a;fill-opacity:1;stroke:#0054ca;stroke-width:0;stroke-opacity:0"
       d="m 91.773386,103.43895 c 0,0 -9.862533,-7.964298 -22.230732,-17.886485 C 60.582425,78.364269 47.828685,68.009348 50.571139,63.48151 c 0.829941,-1.370245 17.940516,-0.947303 15.855613,8.806816 0,0 -11.982622,-16.09376 -11.544869,-17.459045 2.995481,-9.342374 18.369835,8.553272 17.907738,11.614719 0,0 -16.552815,-14.876984 -11.866912,-25.190504 3.61419,-7.954734 19.387388,16.343528 18.715328,20.368799 0,0 -18.239466,-28.102986 -12.441775,-34.542683 5.164821,-5.736736 22.052004,26.692002 22.052004,26.692002 0,0 -24.463821,-37.827451 -14.217008,-40.40849 9.335792,-2.351563 25.571922,41.78737 26.877842,46.368948 6.35872,22.308572 -8.78051,44.591198 -10.135714,43.706878 z"
       sodipodi:nodetypes="csscscscscssc" />
    <path
       sodipodi:nodetypes="sssssssss"
       d="m 103.60103,122.99279 c -3.789119,-3.90939 -7.10866,-3.24884 -5.233494,-3.08381 3.055474,0.26893 7.765554,6.23782 4.205564,6.99932 -0.93254,0.19947 -7.933419,-3.79821 -6.441312,-3.23423 1.091258,0.41246 8.683862,6.5178 4.506812,7.38698 -2.271572,0.47269 -8.173249,-6.38035 -14.57148,-5.8874 -1.917213,0.14774 -5.595312,5.43761 -6.114054,1.89853 -0.33266,-2.2695 5.556791,-11.1599 13.792849,-11.76536 11.075435,-0.81421 13.083065,11.01639 9.855115,7.68597 z"
       style="fill:#da5800;fill-opacity:1;stroke:#0054ca;stroke-width:0;stroke-opacity:0"
       id="path925" />
    <path
       sodipodi:nodetypes="sssss"
       d="m 114.79449,72.756089 c 5.6253,13.573844 3.92851,40.627681 -28.626046,49.617991 -23.101572,6.37977 -57.782107,2.03293 -51.378379,-9.40775 C 40.514063,102.7401 50.014406,93.959111 72.159664,83.79051 94.482444,73.540399 113.45516,69.524264 114.79449,72.756089 Z"
       style="fill:#1a1a1a;fill-opacity:1;stroke:#0054ca;stroke-width:0;stroke-opacity:0"
       id="path918" />
    <path
       inkscape:transform-center-y="6.6447843"
       inkscape:transform-center-x="13.307196"
       sodipodi:nodetypes="sssss"
       d="m 46.319861,108.49893 c -2.471668,-4.52003 -12.483044,1.03595 -18.947261,4.95924 -6.464247,3.92328 -15.02627,5.57035 -12.554594,10.09039 2.471679,4.52003 11.278391,2.31129 17.742606,-1.61199 6.464234,-3.92328 16.230925,-8.91762 13.759249,-13.43764 z"
       style="fill:#1a1a1a;fill-opacity:1;stroke:#0054ca;stroke-width:0;stroke-opacity:0"
       id="path934" />
    <path
       id="path927"
       style="fill:#333333;fill-opacity:1;stroke:#0054ca;stroke-width:0;stroke-opacity:0"
       d="m 46.346426,110.76308 c -2.304254,-3.93741 -11.637529,0.90242 -17.663895,4.32 -6.026393,3.41758 -14.008476,4.85234 -11.704217,8.78976 2.304262,3.93739 10.514457,2.01336 16.540823,-1.40421 6.026394,-3.41758 15.13155,-7.76815 12.827289,-11.70555 z"
       sodipodi:nodetypes="sssss"
       inkscape:transform-center-x="12.405847"
       inkscape:transform-center-y="5.7882752" />
    <path
       id="path1052"
       style="fill:#1a1a1a;fill-opacity:1;stroke:#0054ca;stroke-width:0;stroke-opacity:0"
       d="m 126.94509,70.123428 c -7.46006,13.780981 -10.84419,33.364712 -14.69941,34.941232 -4.81905,1.97066 -13.433988,-12.761296 -13.269267,-25.926594 0.04497,-3.593946 10.232997,-7.787122 10.232997,-11.617157 0,-17.860172 6.35527,-24.834072 12.9644,-24.338371 13.93432,1.04511 8.87961,19.35157 4.77128,26.94089 z"
       sodipodi:nodetypes="ssssss" />
    <path
       id="path835"
       style="fill:#333333;fill-opacity:1;stroke:#0054ca;stroke-width:0;stroke-opacity:0"
       d="m 114.79449,72.756089 c 5.6253,13.573844 3.92851,40.627671 -28.626046,49.617991 -23.101572,6.37977 -60.040733,1.66236 -49.414379,-8.91675 C 46.184666,104.06872 51.217419,95.702111 73.338071,85.558117 95.665939,75.319095 113.45516,69.524264 114.79449,72.756089 Z"
       sodipodi:nodetypes="sssss" />
    <path
       id="path936"
       style="fill:#1a1a1a;fill-opacity:1;stroke:#0054ca;stroke-width:0;stroke-opacity:0"
       d="m 49.870897,114.05743 c -3.128667,-3.05467 -11.733489,2.8458 -17.232253,6.91284 -5.498769,4.06705 -13.387027,6.73607 -10.258347,9.79075 3.128681,3.05469 11.154621,-0.0847 16.653407,-4.1517 5.498785,-4.06704 13.965876,-9.49721 10.837193,-12.55189 z"
       sodipodi:nodetypes="sssss"
       inkscape:transform-center-x="11.631612"
       inkscape:transform-center-y="7.1454286" />
    <path
       inkscape:transform-center-y="6.4786566"
       inkscape:transform-center-x="10.161451"
       sodipodi:nodetypes="sssss"
       d="m 49.95614,113.97854 c -2.733233,-2.76963 -11.418367,2.28826 -16.222133,5.9758 -4.80376,3.68753 -8.043579,5.56155 -8.679631,9.40041 -0.896248,5.40926 10.455296,-0.18068 15.434315,-3.9956 4.807105,-3.6832 12.200681,-8.61098 9.467449,-11.38061 z"
       style="fill:#333333;fill-opacity:1;stroke:#0054ca;stroke-width:0;stroke-opacity:0"
       id="path930" />
    <path
       id="path914"
       style="fill:#ffffff;fill-opacity:1;stroke:#0054ca;stroke-width:0;stroke-opacity:0"
       d="m 117.22557,91.162797 c -0.85287,0.136488 2.2742,21.296113 -31.057126,31.211283 -22.879406,6.80601 -40.962558,5.66719 -47.731768,-1.94088 -0.592221,-0.6656 20.316223,-16.56624 39.106079,-22.577189 24.744165,-7.915755 42.381105,-7.125035 39.682815,-6.693214 z"
       sodipodi:nodetypes="sssss" />
    <path
       inkscape:transform-center-y="9.3978606"
       inkscape:transform-center-x="9.8227773"
       sodipodi:nodetypes="sssss"
       d="m 54.042283,113.62755 c -3.717653,-2.30188 -10.834806,5.32733 -15.318499,10.492 -4.483699,5.16469 -11.60351,9.48396 -7.885863,11.78583 3.717646,2.30189 10.869721,-2.50639 15.353438,-7.67107 4.483701,-5.16468 11.568592,-12.30489 7.850924,-14.60676 z"
       style="fill:#1a1a1a;fill-opacity:1;stroke:#0054ca;stroke-width:0;stroke-opacity:0"
       id="path938" />
    <path
       id="path932"
       style="fill:#333333;fill-opacity:1;stroke:#0054ca;stroke-width:0;stroke-opacity:0"
       d="m 54.156584,113.77089 c -3.309821,-2.28744 -11.398074,3.98004 -15.389894,9.11234 -3.991838,5.13232 -9.011768,10.08887 -5.701951,12.37631 3.309812,2.28747 10.110337,-1.84113 14.102182,-6.97344 3.991828,-5.1323 10.299501,-12.22776 6.989663,-14.51521 z"
       sodipodi:nodetypes="sssss"
       inkscape:transform-center-x="8.7452009"
       inkscape:transform-center-y="9.338957" />
    <path
       id="path916"
       style="fill:#d1d1d1;fill-opacity:1;stroke:#0054ca;stroke-width:0;stroke-opacity:0"
       d="m 117.22557,91.162797 c -0.85287,0.136488 1.79794,19.867353 -31.533381,29.782523 -22.879407,6.80601 -40.486303,7.09595 -47.255513,-0.51212 -0.592221,-0.6656 20.316223,-16.56624 39.106079,-22.577189 24.744165,-7.915755 42.381105,-7.125035 39.682815,-6.693214 z"
       sodipodi:nodetypes="sssss" />
    <path
       sodipodi:nodetypes="cccc"
       d="m 108.77263,43.355728 c 0,0 5.05552,-0.243954 9.29417,3.607316 0.51435,1.399966 -0.23865,1.816112 -1.35944,1.47287 -4.59971,-4.321506 -7.93473,-5.080186 -7.93473,-5.080186 z"
       style="fill:#1a1a1a;fill-opacity:1;stroke:#0054ca;stroke-width:0;stroke-opacity:0"
       id="path907" />
    <path
       id="path903"
       style="fill:#1a1a1a;fill-opacity:1;stroke:#0054ca;stroke-width:0;stroke-opacity:0"
       d="m 106.56028,51.384384 c 0,0 2.92737,-3.78776 8.55195,-4.192273 1.41152,0.588125 1.27237,1.411839 0.31281,1.980088 -6.21483,0.341828 -8.86476,2.212185 -8.86476,2.212185 z"
       sodipodi:nodetypes="cccc" />
    <path
       sodipodi:nodetypes="cccc"
       d="m 106.66266,56.352427 c 0,0 1.82747,-4.440703 7.06508,-6.157973 1.48762,0.25285 1.56245,1.102113 0.79428,1.890128 -5.81365,1.793226 -7.85936,4.267845 -7.85936,4.267845 z"
       style="fill:#1a1a1a;fill-opacity:1;stroke:#0054ca;stroke-width:0;stroke-opacity:0"
       id="path899" />
    <path
       id="path901"
       style="fill:#333333;fill-opacity:1;stroke:#0054ca;stroke-width:0;stroke-opacity:0"
       d="m 106.58816,56.537339 c 0,0 1.42084,-4.605209 6.45411,-6.758121 1.49426,0.131505 1.64241,0.977446 0.95103,1.831054 -5.5967,2.276414 -7.40514,4.927067 -7.40514,4.927067 z"
       sodipodi:nodetypes="cccc" />
    <path
       sodipodi:nodetypes="cccc"
       d="m 106.43996,51.542488 c 0,0 2.5655,-4.03908 8.09691,-4.904955 1.44856,0.474502 1.38299,1.312186 0.48306,1.960703 -6.12107,0.85126 -8.57997,2.944252 -8.57997,2.944252 z"
       style="fill:#333333;fill-opacity:1;stroke:#0054ca;stroke-width:0;stroke-opacity:0"
       id="path905" />
    <path
       id="path909"
       style="fill:#333333;fill-opacity:1;stroke:#0054ca;stroke-width:0;stroke-opacity:0"
       d="m 108.5629,43.367282 c 0,0 5.00377,-0.666055 9.54504,2.827224 0.63068,1.355576 -0.0823,1.834221 -1.22547,1.584957 -4.94022,-3.932877 -8.31957,-4.412181 -8.31957,-4.412181 z"
       sodipodi:nodetypes="cccc" />
    <g
       transform="matrix(1.1251579,0,0,1.1251579,-10.450679,-12.116476)"
       id="g1103">
      <path
         id="path943"
         style="fill:#4b4b4b;fill-opacity:1;stroke:#0054ca;stroke-width:0;stroke-opacity:0"
         d="m 78.756395,93.638106 c 0,0 -3.725043,-36.279276 -17.084196,-40.426137 C 56.08687,37.624465 29.30622,33.142766 37.233726,24.908038 c 14.298185,-2.742804 34.370261,23.803677 36.845966,27.297749 12.054667,17.013284 6.079338,41.71126 4.676703,41.432319 z"
         sodipodi:nodetypes="cccsc" />
      <path
         sodipodi:nodetypes="cccsc"
         d="m 80.44749,96.382801 c 0,0 0.687603,-25.150032 -6.629274,-28.418277 C 71.835049,57.037493 56.869568,53.129817 62.04218,47.688146 c 8.388923,-1.45781 17.804675,17.472883 18.948959,19.959504 5.571688,12.107806 0.236739,28.970327 -0.543649,28.735151 z"
         style="fill:#4b4b4b;fill-opacity:1;stroke:#0054ca;stroke-width:0;stroke-opacity:0"
         id="path951" />
      <path
         id="path945"
         style="fill:#1a1a1a;fill-opacity:1;stroke:#0054ca;stroke-width:0;stroke-opacity:0"
         d="m 78.239365,93.647657 c 0,0 -10.570551,-3.382062 -23.805918,-7.569883 -9.58845,-3.033894 -23.275437,-7.45303 -22.468833,-12.016832 0.244101,-1.38113 14.346202,-6.448148 15.729532,2.174169 0,0 -14.872747,-9.347984 -14.94724,-10.601011 -0.509733,-8.574215 17.701844,1.171906 18.292977,3.817306 0,0 -18.218767,-6.909058 -17.655704,-16.810774 0.434286,-7.637109 20.996678,7.209669 21.721283,10.708302 0,0 -23.779227,-17.172674 -21.083201,-24.263644 2.401728,-6.316916 26.445299,14.814856 26.445299,14.814856 0,0 -31.936483,-23.142462 -24.387847,-28.490704 6.8775,-4.87274 34.093667,26.024661 36.608968,29.351786 12.24747,16.200392 6.936733,39.17969 5.550684,38.886429 z"
         sodipodi:nodetypes="csscscscscssc" />
      <path
         sodipodi:nodetypes="csscscscscssc"
         d="m 78.002567,94.286593 c 0,0 -9.851226,-3.028139 -22.155245,-6.875959 -8.948943,-2.798592 -21.80353,-8.139594 -20.765826,-11.371393 1.001994,-3.120581 16.612617,-4.430494 14.72304,1.710145 0,0 -12.533104,-9.066622 -12.595451,-10.318753 -0.33626,-6.753171 15.408225,1.724201 15.94282,3.422205 0.372676,-0.301622 -14.952233,-7.833492 -16.098156,-16.317979 -0.799017,-5.915969 19.440196,7.207345 20.10199,10.082563 0.887059,-0.01917 -21.599397,-16.837088 -19.09857,-23.68336 1.425664,-3.902902 24.4387,14.466603 24.420915,14.056499 0.595988,-0.360506 -32.691057,-24.61661 -26.112481,-29.790308 6.556712,-5.156505 35.310602,27.03051 37.576258,30.289249 11.031901,15.867409 5.355035,39.049661 4.060706,38.797091 z"
         style="fill:#333333;fill-opacity:1;stroke:#0054ca;stroke-width:0;stroke-opacity:0"
         id="path940" />
      <path
         sodipodi:nodetypes="csscscscscssc"
         d="m 80.151103,96.37366 c 0,0 -5.781727,-2.65561 -13.024647,-5.948358 -5.247178,-2.385453 -12.730377,-5.851574 -11.914701,-8.97656 0.246849,-0.945702 8.704157,-4.013441 8.82551,1.978995 0,0 -7.778432,-6.903646 -7.723712,-7.770639 0.374447,-5.932662 10.031147,1.347329 10.16371,3.190931 0,0 -9.881153,-5.322322 -8.790168,-12.138465 0.84147,-5.257231 11.446257,5.614298 11.588874,8.050785 0,0 -12.263578,-12.574527 -10.17123,-17.38605 1.863949,-4.286291 13.971198,11.02849 13.971198,11.02849 0,0 -16.464369,-16.942525 -11.73258,-20.40373 4.311093,-3.153476 17.474024,18.997191 18.653904,21.369802 5.745068,11.552688 0.92363,27.249353 0.153842,27.004799 z"
         style="fill:#1a1a1a;fill-opacity:1;stroke:#0054ca;stroke-width:0;stroke-opacity:0"
         id="path949" />
      <path
         id="path953"
         style="fill:#333333;fill-opacity:1;stroke:#0054ca;stroke-width:0;stroke-opacity:0"
         d="m 79.966073,96.807392 c 0,0 -5.39789,-2.389479 -12.134657,-5.419252 -4.899778,-2.203611 -11.8354,-6.280596 -10.991029,-8.479319 0.815314,-2.123061 9.843423,-2.552084 8.286023,1.628142 0,0 -6.462443,-6.638292 -6.400848,-7.504297 0.332209,-4.670661 8.676729,1.658691 8.850542,2.846763 0.236525,-0.196813 -7.941507,-5.860897 -7.937812,-11.750993 0.0026,-4.10698 10.556421,5.565338 10.711536,7.56969 0.508722,0.01376 -11.043182,-12.276613 -9.081456,-16.925207 1.118332,-2.650056 12.850832,10.727103 12.872522,10.443548 0.368788,-0.230658 -16.781353,-17.982809 -12.617814,-21.353073 4.149701,-3.359064 18.091762,19.728362 19.134205,22.046185 5.075859,11.285911 0.02929,27.111495 -0.691212,26.897813 z"
         sodipodi:nodetypes="csscscscscssc" />
    </g>
    <path
       sodipodi:nodetypes="ssssss"
       d="m 127.14087,70.614149 c -7.12666,13.588421 -12.32104,31.875121 -16.00396,33.429611 -4.60368,1.94313 -10.87212,-11.559592 -10.71476,-24.540933 0.043,-3.543728 9.77567,-7.678314 9.77567,-11.454832 0,-17.610614 6.07125,-24.487068 12.38501,-23.998294 13.31157,1.030507 8.48277,19.081173 4.55804,26.564448 z"
       style="fill:#333333;fill-opacity:1;stroke:#0054ca;stroke-width:0;stroke-opacity:0"
       id="path1049" />
    <path
       sodipodi:nodetypes="ssssss"
       d="m 125.48786,70.614149 c -6.05799,13.764681 -10.20405,33.515381 -13.96471,36.299851 -5.17583,3.83229 -23.166158,-12.745896 -6.93661,-15.569624 3.29916,-0.57401 8.40222,-18.324844 9.01714,-22.318638 2.67606,-17.380646 0.39817,-20.46746 6.3544,-19.978686 12.55779,1.030507 8.90001,13.909423 5.52978,21.567097 z"
       style="fill:#d1d1d1;fill-opacity:1;stroke:#0054ca;stroke-width:0;stroke-opacity:0"
       id="path1056" />
    <path
       sodipodi:nodetypes="sssssss"
       d="m 127.90928,71.671609 c -6.17725,14.012506 -14.52651,37.641901 -20.442,39.100201 -7.27148,1.79257 -15.783826,-6.08352 -11.471949,-12.931631 1.176469,-1.868465 5.961909,-3.092111 10.475289,-4.807425 3.30539,-1.256217 8.22004,-18.946891 8.87036,-22.955415 2.83011,-17.444748 0.42109,-20.542947 6.7202,-20.05237 13.28069,1.034307 9.2656,13.89436 5.8481,21.64664 z"
       style="fill:#ffffff;fill-opacity:1;stroke:#0054ca;stroke-width:0;stroke-opacity:0"
       id="path1058" />
    <path
       id="path1054"
       style="fill:#e6e6e6;fill-opacity:1;stroke:#0054ca;stroke-width:0;stroke-opacity:0"
       d="m 127.22068,71.230555 c -6.33584,13.525433 -14.85642,33.131265 -17.38037,35.771825 -4.35702,4.55831 -18.083074,-3.4264 -13.861941,-10.135281 1.15171,-1.830477 5.836441,-3.029246 10.254831,-4.709686 3.23583,-1.230677 8.04705,-18.561687 8.68369,-22.488715 2.77055,-17.090084 0.41222,-20.125294 6.57877,-19.644691 13.00119,1.013279 9.24541,13.691407 5.72502,21.206548 z"
       sodipodi:nodetypes="sssssss" />
    <path
       id="path1065"
       style="fill:#ffd52d;fill-opacity:1;stroke:#0054ca;stroke-width:0;stroke-opacity:0"
       d="m 131.99785,56.269846 c -1.12944,2.680549 4.80064,11.947673 0.0593,13.513526 -1.2617,0.41669 -4.46331,-0.81161 -7.34199,-1.542686 -15.16788,-3.852069 -11.78731,-10.736135 -8.92123,-16.067325 2.17521,-4.04611 7.19089,-5.113688 10.92396,-2.412374 3.82869,2.770514 6.59761,3.381489 5.27991,6.508859 z"
       sodipodi:nodetypes="ssssss" />
    <path
       sodipodi:nodetypes="sssss"
       d="m 115.4793,92.115301 c 2.17845,-6.919338 3.48486,20.287329 -29.787111,28.830019 -23.414829,6.01183 -36.663322,8.1166 -43.286726,-0.51212 -0.542483,-0.70673 18.252452,-14.66123 37.042309,-20.672169 24.744168,-7.91576 35.210908,-5.039228 36.031528,-7.64573 z"
       style="fill:#e6e6e6;fill-opacity:1;stroke:#0054ca;stroke-width:0;stroke-opacity:0"
       id="path912" />
    <path
       id="path922"
       style="fill:#ea5e00;fill-opacity:1;stroke:#0054ca;stroke-width:0;stroke-opacity:0"
       d="m 89.991491,127.78147 c -3.789119,-3.90939 -7.10866,-3.24885 -5.233494,-3.08382 3.055472,0.26893 7.765555,6.23781 4.205568,6.99931 -0.932544,0.19948 -7.933421,-3.7982 -6.441316,-3.23423 1.091258,0.41247 8.683861,6.5178 4.506816,7.387 -2.271576,0.47268 -8.173256,-6.38037 -14.571487,-5.8874 -1.917211,0.14772 -5.595312,5.43761 -6.114053,1.89851 -0.332661,-2.2695 5.556792,-11.15989 13.792848,-11.76535 11.075434,-0.8142 13.083068,11.0164 9.855118,7.68598 z"
       sodipodi:nodetypes="sssssssss" />
    <path
       id="path1063"
       style="fill:#deb200;fill-opacity:1;stroke:#0054ca;stroke-width:0;stroke-opacity:0"
       d="m 131.46868,54.682345 c -1.12944,2.680549 4.80064,11.947673 0.0593,13.513526 -1.2617,0.41669 -4.46331,-0.81161 -7.34199,-1.542686 -15.16788,-3.852069 -11.78731,-10.736135 -8.92123,-16.067325 2.17521,-4.04611 7.19089,-5.113688 10.92396,-2.412374 3.82869,2.770514 6.59761,3.381489 5.27991,6.508859 z"
       sodipodi:nodetypes="ssssss" />
    <path
       sodipodi:nodetypes="ssssss"
       d="m 131.99785,55.211512 c -1.12944,2.680549 4.80064,11.947673 0.0593,13.513526 -1.2617,0.41669 -4.46331,-0.81161 -7.34199,-1.542686 -15.16788,-3.852069 -11.78731,-10.736135 -8.92123,-16.067325 2.17521,-4.04611 7.19089,-5.113688 10.92396,-2.412374 3.82869,2.770514 6.59761,3.381489 5.27991,6.508859 z"
       style="fill:#ffcc00;fill-opacity:1;stroke:#0054ca;stroke-width:0;stroke-opacity:0"
       id="path1060" />
    <ellipse
       transform="matrix(0.91324892,0.40740203,-0.41633403,0.90921173,0,0)"
       ry="6.6605673"
       rx="5.872304"
       cy="1.4302225"
       cx="134.94884"
       id="ellipse876"
       style="fill:#d4a900;fill-opacity:1;stroke:#0054ca;stroke-width:0;stroke-opacity:0" />
    <ellipse
       style="fill:url(#radialGradient853);fill-opacity:1;stroke:#0054ca;stroke-width:0;stroke-opacity:0"
       id="path837"
       cx="135.52945"
       cy="1.4187713"
       rx="5.5992379"
       ry="6.444406"
       transform="rotate(24.320493)" />
    <ellipse
       style="fill:#000000;stroke:#0054ca;stroke-width:0;stroke-opacity:0"
       id="path855"
       cx="136.26788"
       cy="4.1105237"
       rx="2.6231081"
       ry="3.4487779"
       transform="matrix(0.92164958,0.38802326,-0.3199855,0.94742244,0,0)" />
    <path
       id="path1081"
       style="fill:#f56200;fill-opacity:1;stroke:#0054ca;stroke-width:0;stroke-opacity:0"
       d="m 161.41442,87.251252 c 10.60577,2.29968 -19.61326,-10.327389 -23.79969,-15.519875 -5.34959,-6.635147 -3.53774,-12.04552 -7.97619,-14.539082 1.63338,8.561137 -3.25546,12.635214 -0.0361,15.075269 6.9227,5.2469 17.42587,11.864308 31.81197,14.983688 z"
       sodipodi:nodetypes="sscss" />
    <path
       sodipodi:nodetypes="sscss"
       d="m 161.90503,87.051487 c 10.34428,3.281295 -20.10387,-11.185958 -24.2903,-16.378444 -5.34959,-6.635147 -3.53774,-12.04552 -7.97619,-14.539082 1.63338,8.561137 -3.94507,11.573642 -0.5267,13.726089 7.87103,4.956159 18.65224,12.705808 32.79319,17.191437 z"
       style="fill:#ff7f2a;stroke:#0054ca;stroke-width:0;stroke-opacity:0"
       id="path862" />
    <ellipse
       style="fill:#ffffff;fill-opacity:1;stroke:#0054ca;stroke-width:0;stroke-opacity:0"
       id="path857"
       cx="129.48994"
       cy="36.997215"
       transform="matrix(0.99066967,0.13628499,-0.12187126,0.99254592,0,0)"
       rx="0.57387275"
       ry="0.60628676" />
    <path
       id="path1083"
       style="fill:#ea5e00;stroke:#0054ca;stroke-width:0;stroke-opacity:0;fill-opacity:1"
       d="m 160.6785,83.67672 c -5.80573,-5.43397 -20.30192,-23.403819 -23.55438,-22.879038 -8.41428,1.357636 -3.04713,-6.403495 -7.48558,-8.897057 1.63338,8.561137 -3.37003,10.85664 -0.5267,13.726089 5.40063,5.450238 45.17998,30.79161 31.56666,18.050006 z"
       sodipodi:nodetypes="sscss" />
    <path
       sodipodi:nodetypes="sscss"
       d="m 152.59788,77.892641 c -4.00942,-3.752683 -14.02045,-16.162607 -16.26659,-15.800195 -5.81088,0.937579 -2.10434,-4.422235 -5.16952,-6.144281 1.12801,5.912295 -2.32733,7.497563 -0.36374,9.479196 3.72966,3.763918 31.20116,21.264594 21.79985,12.46528 z"
       style="fill:#ff2a2a;fill-opacity:1;stroke:#0054ca;stroke-width:0;stroke-opacity:0"
       id="path1085" />
    <g
       inkscape:transform-center-y="3.6498703"
       inkscape:transform-center-x="-25.667307"
       transform="matrix(0.98450822,0.17533844,-0.19034797,1.0687853,12.734152,-26.397806)"
       id="g1079">
      <path
         id="path1067"
         style="fill:#f56200;fill-opacity:1;stroke:#0054ca;stroke-width:0;stroke-opacity:0"
         d="m 186.488,61.63429 c -0.13302,1.796734 -6.7867,-1.189285 -18.82703,-0.94446 -6.70286,0.136294 -19.10984,5.706018 -23.31443,5.278479 -5.00839,-0.509272 -16.48129,-1.255316 -17.4653,-3.281652 -1.06949,-2.202342 5.07394,3.115271 1.08184,-11.400922 -0.60063,-2.184016 11.58901,-6.152708 15.42716,-6.433141 12.37842,-0.904426 44.41142,-0.961569 43.09776,16.781696 z"
         sodipodi:nodetypes="sssssss" />
      <path
         sodipodi:nodetypes="sssssss"
         d="m 186.488,61.65463 c -0.13302,1.796734 -6.93287,-4.551135 -18.9732,-4.30631 -6.70286,0.136294 -19.10984,5.706018 -23.31443,5.278479 -5.00839,-0.509272 -17.07104,2.461137 -18.05505,0.434801 -1.06949,-2.202342 5.80986,1.152827 1.81776,-13.363366 -0.60063,-2.184016 11.58901,-6.152708 15.42716,-6.433141 12.37842,-0.904426 44.41142,0.646272 43.09776,18.389537 z"
         style="fill:#ff7f2a;stroke:#0054ca;stroke-width:0;stroke-opacity:0"
         id="path859" />
      <path
         sodipodi:nodetypes="cccc"
         d="m 184.41092,55.484516 c 4.11361,-1.857383 -15.36611,-13.365216 -42.03998,-11.475328 -6.63348,1.090803 -5.3174,2.623761 -0.72297,3.683402 28.51735,-3.765126 42.24298,7.769777 42.76295,7.791926 z"
         style="fill:#ff9c5a;fill-opacity:1;stroke:#0054ca;stroke-width:0;stroke-opacity:0"
         id="path920" />
      <path
         id="path1069"
         style="fill:#803300;fill-opacity:1;stroke:#0054ca;stroke-width:0;stroke-opacity:0"
         d="m 186.49426,61.750673 c -0.8324,1.555121 -6.31163,-4.07269 -10.38029,-1.878626 -3.16787,1.708307 -6.44169,-1.446207 -6.47324,-5.757904 -0.0273,-3.735702 2.1389,-5.365699 7.00602,-6.053893 5.15866,-0.729419 11.8532,9.943324 9.84751,13.690423 z"
         sodipodi:nodetypes="sssss" />
      <path
         id="path1072"
         style="fill:#a94300;fill-opacity:1;stroke:#0054ca;stroke-width:0;stroke-opacity:0"
         d="m 184.41092,55.484516 c 2.01791,-0.91113 -1.98356,-4.401 -9.38459,-7.235939 -3.25453,1.107255 -0.62724,-0.137659 -3.27328,1.339796 8.07037,2.495915 12.37986,5.884301 12.65787,5.896143 z"
         sodipodi:nodetypes="cccc" />
    </g>
    <path
       sodipodi:nodetypes="csscscscscssc"
       d="m 485.37839,103.47468 c 0,0 -15.25859,3.20256 -34.39375,7.19242 -13.8626,2.89048 -33.59424,7.05435 -29.35131,8.87507 1.28402,0.55099 27.75622,0.38092 24.53062,-3.54136 0,0 -18.53862,6.47155 -17.86136,7.02055 4.63438,3.75671 28.42045,-3.4394 27.70552,-4.67046 0,0 -25.60928,5.98226 -18.3596,10.12949 5.59161,3.19872 29.99473,-6.57198 28.95497,-8.1906 0,0 -28.21876,11.30063 -19.249,13.89013 7.99063,2.30683 34.11723,-10.73326 34.11723,-10.73326 0,0 -37.84862,15.21099 -21.9955,16.24887 14.44364,0.9456 39.56297,-16.80334 41.5834,-18.64566 9.83774,-8.97061 -13.58456,-17.93079 -15.68122,-17.57519 z"
       style="fill:#1a1a1a;fill-opacity:1;stroke:#0054ca;stroke-width:0;stroke-opacity:0"
       id="path1107" />
    <path
       id="path1109"
       style="fill:#da5800;fill-opacity:1;stroke:#0054ca;stroke-width:0;stroke-opacity:0"
       d="m 503.60103,122.99279 c -3.78912,-3.90939 -7.10866,-3.24884 -5.23349,-3.08381 3.05547,0.26893 7.76555,6.23782 4.20556,6.99932 -0.93254,0.19947 -7.93342,-3.79821 -6.44131,-3.23423 1.09126,0.41246 8.68386,6.5178 4.50681,7.38698 -2.27157,0.47269 -8.17325,-6.38035 -14.57148,-5.8874 -1.91721,0.14774 -5.59531,5.43761 -6.11405,1.89853 -0.33266,-2.2695 5.55679,-11.1599 13.79284,-11.76536 11.07544,-0.81421 13.08307,11.01639 9.85512,7.68597 z"
       sodipodi:nodetypes="sssssssss" />
    <path
       id="path1111"
       style="fill:#1a1a1a;fill-opacity:1;stroke:#0054ca;stroke-width:0;stroke-opacity:0"
       d="m 514.79449,72.756089 c 5.6253,13.573844 3.92851,40.627681 -28.62605,49.617991 -23.10157,6.37977 -57.7821,2.03293 -51.37838,-9.40775 5.724,-10.22623 15.22435,-19.007219 37.3696,-29.17582 22.32278,-10.250111 41.2955,-14.266246 42.63483,-11.034421 z"
       sodipodi:nodetypes="sssss" />
    <path
       id="path1113"
       style="fill:#1a1a1a;fill-opacity:1;stroke:#0054ca;stroke-width:0;stroke-opacity:0"
       d="m 446.31986,108.49893 c -2.47167,-4.52003 -12.48304,1.03595 -18.94726,4.95924 -6.46425,3.92328 -15.02627,5.57035 -12.55459,10.09039 2.47167,4.52003 11.27839,2.31129 17.7426,-1.61199 6.46424,-3.92328 16.23093,-8.91762 13.75925,-13.43764 z"
       sodipodi:nodetypes="sssss"
       inkscape:transform-center-x="13.307196"
       inkscape:transform-center-y="6.6447843" />
    <path
       inkscape:transform-center-y="5.7882752"
       inkscape:transform-center-x="12.405847"
       sodipodi:nodetypes="sssss"
       d="m 446.34643,110.76308 c -2.30426,-3.93741 -11.63753,0.90242 -17.6639,4.32 -6.02639,3.41758 -14.00848,4.85234 -11.70422,8.78976 2.30427,3.93739 10.51446,2.01336 16.54083,-1.40421 6.02639,-3.41758 15.13155,-7.76815 12.82729,-11.70555 z"
       style="fill:#333333;fill-opacity:1;stroke:#0054ca;stroke-width:0;stroke-opacity:0"
       id="path1115" />
    <path
       sodipodi:nodetypes="ssssss"
       d="m 526.94509,70.123428 c -7.46006,13.780981 -10.84419,33.364712 -14.69941,34.941232 -4.81905,1.97066 -13.43399,-12.761296 -13.26927,-25.926594 0.045,-3.593946 10.233,-7.787122 10.233,-11.617157 0,-17.860172 6.35527,-24.834072 12.9644,-24.338371 13.93432,1.04511 8.87961,19.35157 4.77128,26.94089 z"
       style="fill:#1a1a1a;fill-opacity:1;stroke:#0054ca;stroke-width:0;stroke-opacity:0"
       id="path1117" />
    <path
       sodipodi:nodetypes="sssss"
       d="m 514.79449,72.756089 c 5.6253,13.573844 3.92851,40.627671 -28.62605,49.617991 -23.10157,6.37977 -60.04073,1.66236 -49.41438,-8.91675 9.43061,-9.38861 14.46336,-17.755219 36.58401,-27.899213 22.32787,-10.239022 40.11709,-16.033853 41.45642,-12.802028 z"
       style="fill:#333333;fill-opacity:1;stroke:#0054ca;stroke-width:0;stroke-opacity:0"
       id="path1119" />
    <path
       inkscape:transform-center-y="7.1454286"
       inkscape:transform-center-x="11.631612"
       sodipodi:nodetypes="sssss"
       d="m 449.8709,114.05743 c -3.12867,-3.05467 -11.73349,2.8458 -17.23226,6.91284 -5.49877,4.06705 -13.38702,6.73607 -10.25834,9.79075 3.12868,3.05469 11.15462,-0.0847 16.6534,-4.1517 5.49879,-4.06704 13.96588,-9.49721 10.8372,-12.55189 z"
       style="fill:#1a1a1a;fill-opacity:1;stroke:#0054ca;stroke-width:0;stroke-opacity:0"
       id="path1121" />
    <path
       id="path1123"
       style="fill:#333333;fill-opacity:1;stroke:#0054ca;stroke-width:0;stroke-opacity:0"
       d="m 449.95614,113.97854 c -2.73323,-2.76963 -11.41837,2.28826 -16.22213,5.9758 -4.80376,3.68753 -8.04358,5.56155 -8.67963,9.40041 -0.89625,5.40926 10.45529,-0.18068 15.43431,-3.9956 4.80711,-3.6832 12.20068,-8.61098 9.46745,-11.38061 z"
       sodipodi:nodetypes="sssss"
       inkscape:transform-center-x="10.161451"
       inkscape:transform-center-y="6.4786566" />
    <path
       sodipodi:nodetypes="sssss"
       d="m 517.22557,91.162797 c -0.85287,0.136488 2.2742,21.296113 -31.05713,31.211283 -22.8794,6.80601 -40.96255,5.66719 -47.73176,-1.94088 -0.59223,-0.6656 20.31622,-16.56624 39.10607,-22.577189 24.74417,-7.915755 42.38111,-7.125035 39.68282,-6.693214 z"
       style="fill:#ffffff;fill-opacity:1;stroke:#0054ca;stroke-width:0;stroke-opacity:0"
       id="path1125" />
    <path
       id="path1127"
       style="fill:#1a1a1a;fill-opacity:1;stroke:#0054ca;stroke-width:0;stroke-opacity:0"
       d="m 454.04228,113.62755 c -3.71765,-2.30188 -10.8348,5.32733 -15.3185,10.492 -4.4837,5.16469 -11.60351,9.48396 -7.88586,11.78583 3.71765,2.30189 10.86972,-2.50639 15.35344,-7.67107 4.4837,-5.16468 11.56859,-12.30489 7.85092,-14.60676 z"
       sodipodi:nodetypes="sssss"
       inkscape:transform-center-x="9.8227773"
       inkscape:transform-center-y="9.3978606" />
    <path
       inkscape:transform-center-y="9.338957"
       inkscape:transform-center-x="8.7452009"
       sodipodi:nodetypes="sssss"
       d="m 454.15658,113.77089 c -3.30982,-2.28744 -11.39807,3.98004 -15.38989,9.11234 -3.99184,5.13232 -9.01177,10.08887 -5.70195,12.37631 3.30981,2.28747 10.11034,-1.84113 14.10218,-6.97344 3.99183,-5.1323 10.2995,-12.22776 6.98966,-14.51521 z"
       style="fill:#333333;fill-opacity:1;stroke:#0054ca;stroke-width:0;stroke-opacity:0"
       id="path1129" />
    <path
       sodipodi:nodetypes="sssss"
       d="m 517.22557,91.162797 c -0.85287,0.136488 1.79794,19.867353 -31.53338,29.782523 -22.87941,6.80601 -40.4863,7.09595 -47.25551,-0.51212 -0.59223,-0.6656 20.31622,-16.56624 39.10607,-22.577189 24.74417,-7.915755 42.38111,-7.125035 39.68282,-6.693214 z"
       style="fill:#d1d1d1;fill-opacity:1;stroke:#0054ca;stroke-width:0;stroke-opacity:0"
       id="path1131" />
    <path
       id="path1133"
       style="fill:#1a1a1a;fill-opacity:1;stroke:#0054ca;stroke-width:0;stroke-opacity:0"
       d="m 508.77263,43.355728 c 0,0 5.05552,-0.243954 9.29417,3.607316 0.51435,1.399966 -0.23865,1.816112 -1.35944,1.47287 -4.59971,-4.321506 -7.93473,-5.080186 -7.93473,-5.080186 z"
       sodipodi:nodetypes="cccc" />
    <path
       sodipodi:nodetypes="cccc"
       d="m 506.56028,51.384384 c 0,0 2.92737,-3.78776 8.55195,-4.192273 1.41152,0.588125 1.27237,1.411839 0.31281,1.980088 -6.21483,0.341828 -8.86476,2.212185 -8.86476,2.212185 z"
       style="fill:#1a1a1a;fill-opacity:1;stroke:#0054ca;stroke-width:0;stroke-opacity:0"
       id="path1135" />
    <path
       id="path1137"
       style="fill:#1a1a1a;fill-opacity:1;stroke:#0054ca;stroke-width:0;stroke-opacity:0"
       d="m 506.66266,56.352427 c 0,0 1.82747,-4.440703 7.06508,-6.157973 1.48762,0.25285 1.56245,1.102113 0.79428,1.890128 -5.81365,1.793226 -7.85936,4.267845 -7.85936,4.267845 z"
       sodipodi:nodetypes="cccc" />
    <path
       sodipodi:nodetypes="cccc"
       d="m 506.58816,56.537339 c 0,0 1.42084,-4.605209 6.45411,-6.758121 1.49426,0.131505 1.64241,0.977446 0.95103,1.831054 -5.5967,2.276414 -7.40514,4.927067 -7.40514,4.927067 z"
       style="fill:#333333;fill-opacity:1;stroke:#0054ca;stroke-width:0;stroke-opacity:0"
       id="path1139" />
    <path
       id="path1141"
       style="fill:#333333;fill-opacity:1;stroke:#0054ca;stroke-width:0;stroke-opacity:0"
       d="m 506.43996,51.542488 c 0,0 2.5655,-4.03908 8.09691,-4.904955 1.44856,0.474502 1.38299,1.312186 0.48306,1.960703 -6.12107,0.85126 -8.57997,2.944252 -8.57997,2.944252 z"
       sodipodi:nodetypes="cccc" />
    <path
       sodipodi:nodetypes="cccc"
       d="m 508.5629,43.367282 c 0,0 5.00377,-0.666055 9.54504,2.827224 0.63068,1.355576 -0.0823,1.834221 -1.22547,1.584957 -4.94022,-3.932877 -8.31957,-4.412181 -8.31957,-4.412181 z"
       style="fill:#333333;fill-opacity:1;stroke:#0054ca;stroke-width:0;stroke-opacity:0"
       id="path1143" />
    <path
       id="path1159"
       style="fill:#333333;fill-opacity:1;stroke:#0054ca;stroke-width:0;stroke-opacity:0"
       d="m 527.14087,70.614149 c -7.12666,13.588421 -12.32104,31.875121 -16.00396,33.429611 -4.60368,1.94313 -10.87212,-11.559592 -10.71476,-24.540933 0.043,-3.543728 9.77567,-7.678314 9.77567,-11.454832 0,-17.610614 6.07125,-24.487068 12.38501,-23.998294 13.31157,1.030507 8.48277,19.081173 4.55804,26.564448 z"
       sodipodi:nodetypes="ssssss" />
    <path
       id="path1161"
       style="fill:#d1d1d1;fill-opacity:1;stroke:#0054ca;stroke-width:0;stroke-opacity:0"
       d="m 525.48786,70.614149 c -6.05799,13.764681 -10.20405,33.515381 -13.96471,36.299851 -5.17583,3.83229 -23.16616,-12.745896 -6.93661,-15.569624 3.29916,-0.57401 8.40222,-18.324844 9.01714,-22.318638 2.67606,-17.380646 0.39817,-20.46746 6.3544,-19.978686 12.55779,1.030507 8.90001,13.909423 5.52978,21.567097 z"
       sodipodi:nodetypes="ssssss" />
    <path
       id="path1163"
       style="fill:#ffffff;fill-opacity:1;stroke:#0054ca;stroke-width:0;stroke-opacity:0"
       d="m 527.90928,71.671609 c -6.17725,14.012506 -14.52651,37.641901 -20.442,39.100201 -7.27148,1.79257 -15.78383,-6.08352 -11.47195,-12.931631 1.17647,-1.868465 5.96191,-3.092111 10.47529,-4.807425 3.30539,-1.256217 8.22004,-18.946891 8.87036,-22.955415 2.83011,-17.444748 0.42109,-20.542947 6.7202,-20.05237 13.28069,1.034307 9.2656,13.89436 5.8481,21.64664 z"
       sodipodi:nodetypes="sssssss" />
    <path
       sodipodi:nodetypes="sssssss"
       d="m 527.22068,71.230555 c -6.33584,13.525433 -14.85642,33.131265 -17.38037,35.771825 -4.35702,4.55831 -18.08307,-3.4264 -13.86194,-10.135281 1.15171,-1.830477 5.83644,-3.029246 10.25483,-4.709686 3.23583,-1.230677 8.04705,-18.561687 8.68369,-22.488715 2.77055,-17.090084 0.41222,-20.125294 6.57877,-19.644691 13.00119,1.013279 9.24541,13.691407 5.72502,21.206548 z"
       style="fill:#e6e6e6;fill-opacity:1;stroke:#0054ca;stroke-width:0;stroke-opacity:0"
       id="path1165" />
    <path
       sodipodi:nodetypes="ssssss"
       d="m 531.99785,56.269846 c -1.12944,2.680549 4.80064,11.947673 0.0593,13.513526 -1.2617,0.41669 -4.46331,-0.81161 -7.34199,-1.542686 -15.16788,-3.852069 -11.78731,-10.736135 -8.92123,-16.067325 2.17521,-4.04611 7.19089,-5.113688 10.92396,-2.412374 3.82869,2.770514 6.59761,3.381489 5.27991,6.508859 z"
       style="fill:#ffd52d;fill-opacity:1;stroke:#0054ca;stroke-width:0;stroke-opacity:0"
       id="path1167" />
    <path
       id="path1169"
       style="fill:#e6e6e6;fill-opacity:1;stroke:#0054ca;stroke-width:0;stroke-opacity:0"
       d="m 515.4793,92.115301 c 2.17845,-6.919338 3.48486,20.287329 -29.78711,28.830019 -23.41483,6.01183 -36.66332,8.1166 -43.28673,-0.51212 -0.54248,-0.70673 18.25245,-14.66123 37.04231,-20.672169 24.74417,-7.91576 35.21091,-5.039228 36.03153,-7.64573 z"
       sodipodi:nodetypes="sssss" />
    <path
       sodipodi:nodetypes="sssssssss"
       d="m 489.99149,127.78147 c -3.78912,-3.90939 -7.10866,-3.24885 -5.23349,-3.08382 3.05547,0.26893 7.76555,6.23781 4.20556,6.99931 -0.93254,0.19948 -7.93342,-3.7982 -6.44131,-3.23423 1.09126,0.41247 8.68386,6.5178 4.50681,7.387 -2.27157,0.47268 -8.17325,-6.38037 -14.57148,-5.8874 -1.91721,0.14772 -5.59531,5.43761 -6.11406,1.89851 -0.33266,-2.2695 5.5568,-11.15989 13.79285,-11.76535 11.07544,-0.8142 13.08307,11.0164 9.85512,7.68598 z"
       style="fill:#ea5e00;fill-opacity:1;stroke:#0054ca;stroke-width:0;stroke-opacity:0"
       id="path1171" />
    <path
       sodipodi:nodetypes="ssssss"
       d="m 531.46868,54.682345 c -1.12944,2.680549 4.80064,11.947673 0.0593,13.513526 -1.2617,0.41669 -4.46331,-0.81161 -7.34199,-1.542686 -15.16788,-3.852069 -11.78731,-10.736135 -8.92123,-16.067325 2.17521,-4.04611 7.19089,-5.113688 10.92396,-2.412374 3.82869,2.770514 6.59761,3.381489 5.27991,6.508859 z"
       style="fill:#deb200;fill-opacity:1;stroke:#0054ca;stroke-width:0;stroke-opacity:0"
       id="path1173" />
    <path
       id="path1175"
       style="fill:#ffcc00;fill-opacity:1;stroke:#0054ca;stroke-width:0;stroke-opacity:0"
       d="m 531.99785,55.211512 c -1.12944,2.680549 4.80064,11.947673 0.0593,13.513526 -1.2617,0.41669 -4.46331,-0.81161 -7.34199,-1.542686 -15.16788,-3.852069 -11.78731,-10.736135 -8.92123,-16.067325 2.17521,-4.04611 7.19089,-5.113688 10.92396,-2.412374 3.82869,2.770514 6.59761,3.381489 5.27991,6.508859 z"
       sodipodi:nodetypes="ssssss" />
    <ellipse
       style="fill:#d4a900;fill-opacity:1;stroke:#0054ca;stroke-width:0;stroke-opacity:0"
       id="ellipse1177"
       cx="498.651"
       cy="-161.53842"
       rx="5.872304"
       ry="6.6605673"
       transform="matrix(0.91324892,0.40740203,-0.41633403,0.90921173,0,0)" />
    <ellipse
       transform="rotate(24.320493)"
       ry="6.444406"
       rx="5.5992379"
       cy="-163.31735"
       cx="500.03189"
       id="ellipse1179"
       style="fill:url(#radialGradient1205);fill-opacity:1;stroke:#0054ca;stroke-width:0;stroke-opacity:0" />
    <ellipse
       transform="matrix(0.92164958,0.38802326,-0.3199855,0.94742244,0,0)"
       ry="3.4487779"
       rx="2.6231081"
       cy="-151.51067"
       cx="516.24255"
       id="ellipse1181"
       style="fill:#000000;stroke:#0054ca;stroke-width:0;stroke-opacity:0" />
    <path
       sodipodi:nodetypes="sscss"
       d="m 561.41442,87.251252 c 10.60577,2.29968 -19.61326,-10.327389 -23.79969,-15.519875 -5.34959,-6.635147 -3.53774,-12.04552 -7.97619,-14.539082 1.63338,8.561137 -3.25546,12.635214 -0.0361,15.075269 6.9227,5.2469 17.42587,11.864308 31.81197,14.983688 z"
       style="fill:#f56200;fill-opacity:1;stroke:#0054ca;stroke-width:0;stroke-opacity:0"
       id="path1183" />
    <path
       id="path1185"
       style="fill:#ff7f2a;stroke:#0054ca;stroke-width:0;stroke-opacity:0"
       d="m 561.90503,87.051487 c 10.34428,3.281295 -20.10387,-11.185958 -24.2903,-16.378444 -5.34959,-6.635147 -3.53774,-12.04552 -7.97619,-14.539082 1.63338,8.561137 -3.94507,11.573642 -0.5267,13.726089 7.87103,4.956159 18.65224,12.705808 32.79319,17.191437 z"
       sodipodi:nodetypes="sscss" />
    <ellipse
       ry="0.60628676"
       rx="0.57387275"
       transform="matrix(0.99066967,0.13628499,-0.12187126,0.99254592,0,0)"
       cy="-17.522539"
       cx="526.55029"
       id="ellipse1187"
       style="fill:#ffffff;fill-opacity:1;stroke:#0054ca;stroke-width:0;stroke-opacity:0" />
    <path
       sodipodi:nodetypes="sscss"
       d="m 560.6785,83.67672 c -5.80573,-5.43397 -20.30192,-23.403819 -23.55438,-22.879038 -8.41428,1.357636 -3.04713,-6.403495 -7.48558,-8.897057 1.63338,8.561137 -3.37003,10.85664 -0.5267,13.726089 5.40063,5.450238 45.17998,30.79161 31.56666,18.050006 z"
       style="fill:#ea5e00;fill-opacity:1;stroke:#0054ca;stroke-width:0;stroke-opacity:0"
       id="path1189" />
    <path
       id="path1191"
       style="fill:#ff2a2a;fill-opacity:1;stroke:#0054ca;stroke-width:0;stroke-opacity:0"
       d="m 552.59788,77.892641 c -4.00942,-3.752683 -14.02045,-16.162607 -16.26659,-15.800195 -5.81088,0.937579 -2.10434,-4.422235 -5.16952,-6.144281 1.12801,5.912295 -2.32733,7.497563 -0.36374,9.479196 3.72966,3.763918 31.20116,21.264594 21.79985,12.46528 z"
       sodipodi:nodetypes="sscss" />
    <g
       id="g1203"
       transform="matrix(0.98450822,0.17533844,-0.19034797,1.0687853,412.73415,-26.397806)"
       inkscape:transform-center-x="-25.667307"
       inkscape:transform-center-y="3.6498703">
      <path
         sodipodi:nodetypes="sssssss"
         d="m 186.488,61.63429 c -0.13302,1.796734 -6.7867,-1.189285 -18.82703,-0.94446 -6.70286,0.136294 -19.10984,5.706018 -23.31443,5.278479 -5.00839,-0.509272 -16.48129,-1.255316 -17.4653,-3.281652 -1.06949,-2.202342 5.07394,3.115271 1.08184,-11.400922 -0.60063,-2.184016 11.58901,-6.152708 15.42716,-6.433141 12.37842,-0.904426 44.41142,-0.961569 43.09776,16.781696 z"
         style="fill:#f56200;fill-opacity:1;stroke:#0054ca;stroke-width:0;stroke-opacity:0"
         id="path1193" />
      <path
         id="path1195"
         style="fill:#ff7f2a;stroke:#0054ca;stroke-width:0;stroke-opacity:0"
         d="m 186.488,61.65463 c -0.13302,1.796734 -6.93287,-4.551135 -18.9732,-4.30631 -6.70286,0.136294 -19.10984,5.706018 -23.31443,5.278479 -5.00839,-0.509272 -17.07104,2.461137 -18.05505,0.434801 -1.06949,-2.202342 5.80986,1.152827 1.81776,-13.363366 -0.60063,-2.184016 11.58901,-6.152708 15.42716,-6.433141 12.37842,-0.904426 44.41142,0.646272 43.09776,18.389537 z"
         sodipodi:nodetypes="sssssss" />
      <path
         id="path1197"
         style="fill:#ff9c5a;fill-opacity:1;stroke:#0054ca;stroke-width:0;stroke-opacity:0"
         d="m 184.41092,55.484516 c 4.11361,-1.857383 -15.36611,-13.365216 -42.03998,-11.475328 -6.63348,1.090803 -5.3174,2.623761 -0.72297,3.683402 28.51735,-3.765126 42.24298,7.769777 42.76295,7.791926 z"
         sodipodi:nodetypes="cccc" />
      <path
         sodipodi:nodetypes="sssss"
         d="m 186.49426,61.750673 c -0.8324,1.555121 -6.31163,-4.07269 -10.38029,-1.878626 -3.16787,1.708307 -6.44169,-1.446207 -6.47324,-5.757904 -0.0273,-3.735702 2.1389,-5.365699 7.00602,-6.053893 5.15866,-0.729419 11.8532,9.943324 9.84751,13.690423 z"
         style="fill:#803300;fill-opacity:1;stroke:#0054ca;stroke-width:0;stroke-opacity:0"
         id="path1199" />
      <path
         sodipodi:nodetypes="cccc"
         d="m 184.41092,55.484516 c 2.01791,-0.91113 -1.98356,-4.401 -9.38459,-7.235939 -3.25453,1.107255 -0.62724,-0.137659 -3.27328,1.339796 8.07037,2.495915 12.37986,5.884301 12.65787,5.896143 z"
         style="fill:#a94300;fill-opacity:1;stroke:#0054ca;stroke-width:0;stroke-opacity:0"
         id="path1201" />
    </g>
    <path
       inkscape:transform-center-y="-18.389039"
       inkscape:transform-center-x="28.360289"
       id="path1209"
       style="fill:#1a1a1a;fill-opacity:1;stroke:#0054ca;stroke-width:0;stroke-opacity:0"
       d="m 298.53956,101.00835 c 0,0 -14.80356,-1.00323 -33.32604,-2.218109 -13.41874,-0.880128 -32.59784,-2.214328 -32.80995,-6.38413 -0.0642,-1.261893 17.0197,-8.359176 21.23307,-1.024474 0,0 -22.10563,-5.453195 -22.55199,-6.542743 -3.05432,-7.455577 23.54071,-2.275647 25.05204,-0.05645 0,0 -25.81503,-2.680146 -27.83184,-11.505236 -1.55556,-6.806718 29.54169,2.425807 31.46549,5.371462 0,0 -35.9631,-10.67973 -34.40059,-17.428109 1.39196,-6.011726 38.80337,8.105162 38.80337,8.105162 0,0 -48.32188,-14.412754 -39.9106,-20.533152 7.66344,-5.576241 51.95284,16.547868 56.17727,19.007877 20.56951,11.978271 19.99907,33.207162 18.09977,33.207902 z"
       sodipodi:nodetypes="csscscscscssc" />
    <path
       sodipodi:nodetypes="sssssssss"
       d="m 303.60103,122.99279 c -3.78912,-3.90939 -7.10866,-3.24884 -5.23349,-3.08381 3.05547,0.26893 7.76555,6.23782 4.20556,6.99932 -0.93254,0.19947 -7.93342,-3.79821 -6.44131,-3.23423 1.09126,0.41246 8.68386,6.5178 4.50681,7.38698 -2.27157,0.47269 -8.17325,-6.38035 -14.57148,-5.8874 -1.91721,0.14774 -5.59531,5.43761 -6.11405,1.89853 -0.33266,-2.2695 5.55679,-11.1599 13.79284,-11.76536 11.07544,-0.81421 13.08307,11.01639 9.85512,7.68597 z"
       style="fill:#da5800;fill-opacity:1;stroke:#0054ca;stroke-width:0;stroke-opacity:0"
       id="path1211" />
    <path
       sodipodi:nodetypes="sssss"
       d="m 314.79449,72.756089 c 5.6253,13.573844 3.92851,40.627681 -28.62605,49.617991 -23.10157,6.37977 -57.7821,2.03293 -51.37838,-9.40775 5.724,-10.22623 15.22435,-19.007219 37.3696,-29.17582 22.32278,-10.250111 41.2955,-14.266246 42.63483,-11.034421 z"
       style="fill:#1a1a1a;fill-opacity:1;stroke:#0054ca;stroke-width:0;stroke-opacity:0"
       id="path1213" />
    <path
       inkscape:transform-center-y="6.6447843"
       inkscape:transform-center-x="13.307196"
       sodipodi:nodetypes="sssss"
       d="m 246.31986,108.49893 c -2.47167,-4.52003 -12.48304,1.03595 -18.94726,4.95924 -6.46425,3.92328 -15.02627,5.57035 -12.55459,10.09039 2.47167,4.52003 11.27839,2.31129 17.7426,-1.61199 6.46424,-3.92328 16.23093,-8.91762 13.75925,-13.43764 z"
       style="fill:#1a1a1a;fill-opacity:1;stroke:#0054ca;stroke-width:0;stroke-opacity:0"
       id="path1215" />
    <path
       id="path1217"
       style="fill:#333333;fill-opacity:1;stroke:#0054ca;stroke-width:0;stroke-opacity:0"
       d="m 246.34643,110.76308 c -2.30426,-3.93741 -11.63753,0.90242 -17.6639,4.32 -6.02639,3.41758 -14.00848,4.85234 -11.70422,8.78976 2.30427,3.93739 10.51446,2.01336 16.54083,-1.40421 6.02639,-3.41758 15.13155,-7.76815 12.82729,-11.70555 z"
       sodipodi:nodetypes="sssss"
       inkscape:transform-center-x="12.405847"
       inkscape:transform-center-y="5.7882752" />
    <path
       id="path1219"
       style="fill:#1a1a1a;fill-opacity:1;stroke:#0054ca;stroke-width:0;stroke-opacity:0"
       d="m 326.94509,70.123428 c -7.46006,13.780981 -10.84419,33.364712 -14.69941,34.941232 -4.81905,1.97066 -13.43399,-12.761296 -13.26927,-25.926594 0.045,-3.593946 10.233,-7.787122 10.233,-11.617157 0,-17.860172 6.35527,-24.834072 12.9644,-24.338371 13.93432,1.04511 8.87961,19.35157 4.77128,26.94089 z"
       sodipodi:nodetypes="ssssss" />
    <path
       id="path1221"
       style="fill:#333333;fill-opacity:1;stroke:#0054ca;stroke-width:0;stroke-opacity:0"
       d="m 314.79449,72.756089 c 5.6253,13.573844 3.92851,40.627671 -28.62605,49.617991 -23.10157,6.37977 -60.04073,1.66236 -49.41438,-8.91675 9.43061,-9.38861 14.46336,-17.755219 36.58401,-27.899213 22.32787,-10.239022 40.11709,-16.033853 41.45642,-12.802028 z"
       sodipodi:nodetypes="sssss" />
    <path
       id="path1223"
       style="fill:#1a1a1a;fill-opacity:1;stroke:#0054ca;stroke-width:0;stroke-opacity:0"
       d="m 249.8709,114.05743 c -3.12867,-3.05467 -11.73349,2.8458 -17.23226,6.91284 -5.49877,4.06705 -13.38702,6.73607 -10.25834,9.79075 3.12868,3.05469 11.15462,-0.0847 16.6534,-4.1517 5.49879,-4.06704 13.96588,-9.49721 10.8372,-12.55189 z"
       sodipodi:nodetypes="sssss"
       inkscape:transform-center-x="11.631612"
       inkscape:transform-center-y="7.1454286" />
    <path
       inkscape:transform-center-y="6.4786566"
       inkscape:transform-center-x="10.161451"
       sodipodi:nodetypes="sssss"
       d="m 249.95614,113.97854 c -2.73323,-2.76963 -11.41837,2.28826 -16.22213,5.9758 -4.80376,3.68753 -8.04358,5.56155 -8.67963,9.40041 -0.89625,5.40926 10.45529,-0.18068 15.43431,-3.9956 4.80711,-3.6832 12.20068,-8.61098 9.46745,-11.38061 z"
       style="fill:#333333;fill-opacity:1;stroke:#0054ca;stroke-width:0;stroke-opacity:0"
       id="path1225" />
    <path
       id="path1227"
       style="fill:#ffffff;fill-opacity:1;stroke:#0054ca;stroke-width:0;stroke-opacity:0"
       d="m 317.22557,91.162797 c -0.85287,0.136488 2.2742,21.296113 -31.05713,31.211283 -22.8794,6.80601 -40.96255,5.66719 -47.73176,-1.94088 -0.59223,-0.6656 20.31622,-16.56624 39.10607,-22.577189 24.74417,-7.915755 42.38111,-7.125035 39.68282,-6.693214 z"
       sodipodi:nodetypes="sssss" />
    <path
       inkscape:transform-center-y="9.3978606"
       inkscape:transform-center-x="9.8227773"
       sodipodi:nodetypes="sssss"
       d="m 254.04228,113.62755 c -3.71765,-2.30188 -10.8348,5.32733 -15.3185,10.492 -4.4837,5.16469 -11.60351,9.48396 -7.88586,11.78583 3.71765,2.30189 10.86972,-2.50639 15.35344,-7.67107 4.4837,-5.16468 11.56859,-12.30489 7.85092,-14.60676 z"
       style="fill:#1a1a1a;fill-opacity:1;stroke:#0054ca;stroke-width:0;stroke-opacity:0"
       id="path1229" />
    <path
       id="path1231"
       style="fill:#333333;fill-opacity:1;stroke:#0054ca;stroke-width:0;stroke-opacity:0"
       d="m 254.15658,113.77089 c -3.30982,-2.28744 -11.39807,3.98004 -15.38989,9.11234 -3.99184,5.13232 -9.01177,10.08887 -5.70195,12.37631 3.30981,2.28747 10.11034,-1.84113 14.10218,-6.97344 3.99183,-5.1323 10.2995,-12.22776 6.98966,-14.51521 z"
       sodipodi:nodetypes="sssss"
       inkscape:transform-center-x="8.7452009"
       inkscape:transform-center-y="9.338957" />
    <path
       id="path1233"
       style="fill:#d1d1d1;fill-opacity:1;stroke:#0054ca;stroke-width:0;stroke-opacity:0"
       d="m 317.22557,91.162797 c -0.85287,0.136488 1.79794,19.867353 -31.53338,29.782523 -22.87941,6.80601 -40.4863,7.09595 -47.25551,-0.51212 -0.59223,-0.6656 20.31622,-16.56624 39.10607,-22.577189 24.74417,-7.915755 42.38111,-7.125035 39.68282,-6.693214 z"
       sodipodi:nodetypes="sssss" />
    <path
       sodipodi:nodetypes="cccc"
       d="m 308.77263,43.355728 c 0,0 5.05552,-0.243954 9.29417,3.607316 0.51435,1.399966 -0.23865,1.816112 -1.35944,1.47287 -4.59971,-4.321506 -7.93473,-5.080186 -7.93473,-5.080186 z"
       style="fill:#1a1a1a;fill-opacity:1;stroke:#0054ca;stroke-width:0;stroke-opacity:0"
       id="path1235" />
    <path
       id="path1237"
       style="fill:#1a1a1a;fill-opacity:1;stroke:#0054ca;stroke-width:0;stroke-opacity:0"
       d="m 306.56028,51.384384 c 0,0 2.92737,-3.78776 8.55195,-4.192273 1.41152,0.588125 1.27237,1.411839 0.31281,1.980088 -6.21483,0.341828 -8.86476,2.212185 -8.86476,2.212185 z"
       sodipodi:nodetypes="cccc" />
    <path
       sodipodi:nodetypes="cccc"
       d="m 306.66266,56.352427 c 0,0 1.82747,-4.440703 7.06508,-6.157973 1.48762,0.25285 1.56245,1.102113 0.79428,1.890128 -5.81365,1.793226 -7.85936,4.267845 -7.85936,4.267845 z"
       style="fill:#1a1a1a;fill-opacity:1;stroke:#0054ca;stroke-width:0;stroke-opacity:0"
       id="path1239" />
    <path
       id="path1241"
       style="fill:#333333;fill-opacity:1;stroke:#0054ca;stroke-width:0;stroke-opacity:0"
       d="m 306.58816,56.537339 c 0,0 1.42084,-4.605209 6.45411,-6.758121 1.49426,0.131505 1.64241,0.977446 0.95103,1.831054 -5.5967,2.276414 -7.40514,4.927067 -7.40514,4.927067 z"
       sodipodi:nodetypes="cccc" />
    <path
       sodipodi:nodetypes="cccc"
       d="m 306.43996,51.542488 c 0,0 2.5655,-4.03908 8.09691,-4.904955 1.44856,0.474502 1.38299,1.312186 0.48306,1.960703 -6.12107,0.85126 -8.57997,2.944252 -8.57997,2.944252 z"
       style="fill:#333333;fill-opacity:1;stroke:#0054ca;stroke-width:0;stroke-opacity:0"
       id="path1243" />
    <path
       id="path1245"
       style="fill:#333333;fill-opacity:1;stroke:#0054ca;stroke-width:0;stroke-opacity:0"
       d="m 308.5629,43.367282 c 0,0 5.00377,-0.666055 9.54504,2.827224 0.63068,1.355576 -0.0823,1.834221 -1.22547,1.584957 -4.94022,-3.932877 -8.31957,-4.412181 -8.31957,-4.412181 z"
       sodipodi:nodetypes="cccc" />
    <g
       inkscape:transform-center-y="-11.000875"
       inkscape:transform-center-x="39.065616"
       transform="matrix(0.8644334,-0.45126234,0.58887841,0.66242239,154.31071,71.699108)"
       id="g1259">
      <path
         id="path1247"
         style="fill:#4b4b4b;fill-opacity:1;stroke:#0054ca;stroke-width:0;stroke-opacity:0"
         d="m 78.756395,93.638106 c 0,0 -3.725043,-36.279276 -17.084196,-40.426137 C 56.08687,37.624465 29.30622,33.142766 37.233726,24.908038 c 14.298185,-2.742804 34.370261,23.803677 36.845966,27.297749 12.054667,17.013284 6.079338,41.71126 4.676703,41.432319 z"
         sodipodi:nodetypes="cccsc" />
      <path
         sodipodi:nodetypes="cccsc"
         d="m 80.44749,96.382801 c 0,0 0.687603,-25.150032 -6.629274,-28.418277 C 71.835049,57.037493 56.869568,53.129817 62.04218,47.688146 c 8.388923,-1.45781 17.804675,17.472883 18.948959,19.959504 5.571688,12.107806 0.236739,28.970327 -0.543649,28.735151 z"
         style="fill:#4b4b4b;fill-opacity:1;stroke:#0054ca;stroke-width:0;stroke-opacity:0"
         id="path1249" />
      <path
         id="path1251"
         style="fill:#1a1a1a;fill-opacity:1;stroke:#0054ca;stroke-width:0;stroke-opacity:0"
         d="m 78.239365,93.647657 c 0,0 -10.570551,-3.382062 -23.805918,-7.569883 -9.58845,-3.033894 -23.275437,-7.45303 -22.468833,-12.016832 0.244101,-1.38113 14.346202,-6.448148 15.729532,2.174169 0,0 -14.872747,-9.347984 -14.94724,-10.601011 -0.509733,-8.574215 17.701844,1.171906 18.292977,3.817306 0,0 -18.218767,-6.909058 -17.655704,-16.810774 0.434286,-7.637109 20.996678,7.209669 21.721283,10.708302 0,0 -23.779227,-17.172674 -21.083201,-24.263644 2.401728,-6.316916 26.445299,14.814856 26.445299,14.814856 0,0 -31.936483,-23.142462 -24.387847,-28.490704 6.8775,-4.87274 34.093667,26.024661 36.608968,29.351786 12.24747,16.200392 6.936733,39.17969 5.550684,38.886429 z"
         sodipodi:nodetypes="csscscscscssc" />
      <path
         sodipodi:nodetypes="csscscscscssc"
         d="m 78.002567,94.286593 c 0,0 -9.851226,-3.028139 -22.155245,-6.875959 -8.948943,-2.798592 -21.80353,-8.139594 -20.765826,-11.371393 1.001994,-3.120581 16.612617,-4.430494 14.72304,1.710145 0,0 -12.533104,-9.066622 -12.595451,-10.318753 -0.33626,-6.753171 15.408225,1.724201 15.94282,3.422205 0.372676,-0.301622 -14.952233,-7.833492 -16.098156,-16.317979 -0.799017,-5.915969 19.440196,7.207345 20.10199,10.082563 0.887059,-0.01917 -21.599397,-16.837088 -19.09857,-23.68336 1.425664,-3.902902 24.4387,14.466603 24.420915,14.056499 0.595988,-0.360506 -32.691057,-24.61661 -26.112481,-29.790308 6.556712,-5.156505 35.310602,27.03051 37.576258,30.289249 11.031901,15.867409 5.355035,39.049661 4.060706,38.797091 z"
         style="fill:#333333;fill-opacity:1;stroke:#0054ca;stroke-width:0;stroke-opacity:0"
         id="path1253" />
      <path
         sodipodi:nodetypes="csscscscscssc"
         d="m 80.151103,96.37366 c 0,0 -5.781727,-2.65561 -13.024647,-5.948358 -5.247178,-2.385453 -12.730377,-5.851574 -11.914701,-8.97656 0.246849,-0.945702 8.704157,-4.013441 8.82551,1.978995 0,0 -7.778432,-6.903646 -7.723712,-7.770639 0.374447,-5.932662 10.031147,1.347329 10.16371,3.190931 0,0 -9.881153,-5.322322 -8.790168,-12.138465 0.84147,-5.257231 11.446257,5.614298 11.588874,8.050785 0,0 -12.263578,-12.574527 -10.17123,-17.38605 1.863949,-4.286291 13.971198,11.02849 13.971198,11.02849 0,0 -16.464369,-16.942525 -11.73258,-20.40373 4.311093,-3.153476 17.474024,18.997191 18.653904,21.369802 5.745068,11.552688 0.92363,27.249353 0.153842,27.004799 z"
         style="fill:#1a1a1a;fill-opacity:1;stroke:#0054ca;stroke-width:0;stroke-opacity:0"
         id="path1255" />
      <path
         id="path1257"
         style="fill:#333333;fill-opacity:1;stroke:#0054ca;stroke-width:0;stroke-opacity:0"
         d="m 79.966073,96.807392 c 0,0 -5.39789,-2.389479 -12.134657,-5.419252 -4.899778,-2.203611 -11.8354,-6.280596 -10.991029,-8.479319 0.815314,-2.123061 9.843423,-2.552084 8.286023,1.628142 0,0 -6.462443,-6.638292 -6.400848,-7.504297 0.332209,-4.670661 8.676729,1.658691 8.850542,2.846763 0.236525,-0.196813 -7.941507,-5.860897 -7.937812,-11.750993 0.0026,-4.10698 10.556421,5.565338 10.711536,7.56969 0.508722,0.01376 -11.043182,-12.276613 -9.081456,-16.925207 1.118332,-2.650056 12.850832,10.727103 12.872522,10.443548 0.368788,-0.230658 -16.781353,-17.982809 -12.617814,-21.353073 4.149701,-3.359064 18.091762,19.728362 19.134205,22.046185 5.075859,11.285911 0.02929,27.111495 -0.691212,26.897813 z"
         sodipodi:nodetypes="csscscscscssc" />
    </g>
    <path
       sodipodi:nodetypes="ssssss"
       d="m 327.14087,70.614149 c -7.12666,13.588421 -12.32104,31.875121 -16.00396,33.429611 -4.60368,1.94313 -10.87212,-11.559592 -10.71476,-24.540933 0.043,-3.543728 9.77567,-7.678314 9.77567,-11.454832 0,-17.610614 6.07125,-24.487068 12.38501,-23.998294 13.31157,1.030507 8.48277,19.081173 4.55804,26.564448 z"
       style="fill:#333333;fill-opacity:1;stroke:#0054ca;stroke-width:0;stroke-opacity:0"
       id="path1261" />
    <path
       sodipodi:nodetypes="ssssss"
       d="m 325.48786,70.614149 c -6.05799,13.764681 -10.20405,33.515381 -13.96471,36.299851 -5.17583,3.83229 -23.16616,-12.745896 -6.93661,-15.569624 3.29916,-0.57401 8.40222,-18.324844 9.01714,-22.318638 2.67606,-17.380646 0.39817,-20.46746 6.3544,-19.978686 12.55779,1.030507 8.90001,13.909423 5.52978,21.567097 z"
       style="fill:#d1d1d1;fill-opacity:1;stroke:#0054ca;stroke-width:0;stroke-opacity:0"
       id="path1263" />
    <path
       sodipodi:nodetypes="sssssss"
       d="m 327.90928,71.671609 c -6.17725,14.012506 -14.52651,37.641901 -20.442,39.100201 -7.27148,1.79257 -15.78383,-6.08352 -11.47195,-12.931631 1.17647,-1.868465 5.96191,-3.092111 10.47529,-4.807425 3.30539,-1.256217 8.22004,-18.946891 8.87036,-22.955415 2.83011,-17.444748 0.42109,-20.542947 6.7202,-20.05237 13.28069,1.034307 9.2656,13.89436 5.8481,21.64664 z"
       style="fill:#ffffff;fill-opacity:1;stroke:#0054ca;stroke-width:0;stroke-opacity:0"
       id="path1265" />
    <path
       id="path1267"
       style="fill:#e6e6e6;fill-opacity:1;stroke:#0054ca;stroke-width:0;stroke-opacity:0"
       d="m 327.22068,71.230555 c -6.33584,13.525433 -14.85642,33.131265 -17.38037,35.771825 -4.35702,4.55831 -18.08307,-3.4264 -13.86194,-10.135281 1.15171,-1.830477 5.83644,-3.029246 10.25483,-4.709686 3.23583,-1.230677 8.04705,-18.561687 8.68369,-22.488715 2.77055,-17.090084 0.41222,-20.125294 6.57877,-19.644691 13.00119,1.013279 9.24541,13.691407 5.72502,21.206548 z"
       sodipodi:nodetypes="sssssss" />
    <path
       id="path1269"
       style="fill:#ffd52d;fill-opacity:1;stroke:#0054ca;stroke-width:0;stroke-opacity:0"
       d="m 331.99785,56.269846 c -1.12944,2.680549 4.80064,11.947673 0.0593,13.513526 -1.2617,0.41669 -4.46331,-0.81161 -7.34199,-1.542686 -15.16788,-3.852069 -11.78731,-10.736135 -8.92123,-16.067325 2.17521,-4.04611 7.19089,-5.113688 10.92396,-2.412374 3.82869,2.770514 6.59761,3.381489 5.27991,6.508859 z"
       sodipodi:nodetypes="ssssss" />
    <path
       sodipodi:nodetypes="sssss"
       d="m 315.4793,92.115301 c 2.17845,-6.919338 3.48486,20.287329 -29.78711,28.830019 -23.41483,6.01183 -36.66332,8.1166 -43.28673,-0.51212 -0.54248,-0.70673 18.25245,-14.66123 37.04231,-20.672169 24.74417,-7.91576 35.21091,-5.039228 36.03153,-7.64573 z"
       style="fill:#e6e6e6;fill-opacity:1;stroke:#0054ca;stroke-width:0;stroke-opacity:0"
       id="path1271" />
    <path
       id="path1273"
       style="fill:#ea5e00;fill-opacity:1;stroke:#0054ca;stroke-width:0;stroke-opacity:0"
       d="m 289.99149,127.78147 c -3.78912,-3.90939 -7.10866,-3.24885 -5.23349,-3.08382 3.05547,0.26893 7.76555,6.23781 4.20556,6.99931 -0.93254,0.19948 -7.93342,-3.7982 -6.44131,-3.23423 1.09126,0.41247 8.68386,6.5178 4.50681,7.387 -2.27157,0.47268 -8.17325,-6.38037 -14.57148,-5.8874 -1.91721,0.14772 -5.59531,5.43761 -6.11406,1.89851 -0.33266,-2.2695 5.5568,-11.15989 13.79285,-11.76535 11.07544,-0.8142 13.08307,11.0164 9.85512,7.68598 z"
       sodipodi:nodetypes="sssssssss" />
    <path
       id="path1275"
       style="fill:#deb200;fill-opacity:1;stroke:#0054ca;stroke-width:0;stroke-opacity:0"
       d="m 331.46868,54.682345 c -1.12944,2.680549 4.80064,11.947673 0.0593,13.513526 -1.2617,0.41669 -4.46331,-0.81161 -7.34199,-1.542686 -15.16788,-3.852069 -11.78731,-10.736135 -8.92123,-16.067325 2.17521,-4.04611 7.19089,-5.113688 10.92396,-2.412374 3.82869,2.770514 6.59761,3.381489 5.27991,6.508859 z"
       sodipodi:nodetypes="ssssss" />
    <path
       sodipodi:nodetypes="ssssss"
       d="m 331.99785,55.211512 c -1.12944,2.680549 4.80064,11.947673 0.0593,13.513526 -1.2617,0.41669 -4.46331,-0.81161 -7.34199,-1.542686 -15.16788,-3.852069 -11.78731,-10.736135 -8.92123,-16.067325 2.17521,-4.04611 7.19089,-5.113688 10.92396,-2.412374 3.82869,2.770514 6.59761,3.381489 5.27991,6.508859 z"
       style="fill:#ffcc00;fill-opacity:1;stroke:#0054ca;stroke-width:0;stroke-opacity:0"
       id="path1277" />
    <ellipse
       transform="matrix(0.91324892,0.40740203,-0.41633403,0.90921173,0,0)"
       ry="6.6605673"
       rx="5.872304"
       cy="-80.0541"
       cx="316.79993"
       id="ellipse1279"
       style="fill:#d4a900;fill-opacity:1;stroke:#0054ca;stroke-width:0;stroke-opacity:0" />
    <ellipse
       style="fill:url(#radialGradient1307);fill-opacity:1;stroke:#0054ca;stroke-width:0;stroke-opacity:0"
       id="ellipse1281"
       cx="317.78067"
       cy="-80.949287"
       rx="5.5992379"
       ry="6.444406"
       transform="rotate(24.320493)" />
    <ellipse
       style="fill:#000000;stroke:#0054ca;stroke-width:0;stroke-opacity:0"
       id="ellipse1283"
       cx="326.25522"
       cy="-73.700073"
       rx="2.6231081"
       ry="3.4487779"
       transform="matrix(0.92164958,0.38802326,-0.3199855,0.94742244,0,0)" />
    <path
       id="path1285"
       style="fill:#f56200;fill-opacity:1;stroke:#0054ca;stroke-width:0;stroke-opacity:0"
       d="m 361.41442,87.251252 c 10.60577,2.29968 -19.61326,-10.327389 -23.79969,-15.519875 -5.34959,-6.635147 -3.53774,-12.04552 -7.97619,-14.539082 1.63338,8.561137 -3.25546,12.635214 -0.0361,15.075269 6.9227,5.2469 17.42587,11.864308 31.81197,14.983688 z"
       sodipodi:nodetypes="sscss" />
    <path
       sodipodi:nodetypes="sscss"
       d="m 361.90503,87.051487 c 10.34428,3.281295 -20.10387,-11.185958 -24.2903,-16.378444 -5.34959,-6.635147 -3.53774,-12.04552 -7.97619,-14.539082 1.63338,8.561137 -3.94507,11.573642 -0.5267,13.726089 7.87103,4.956159 18.65224,12.705808 32.79319,17.191437 z"
       style="fill:#ff7f2a;stroke:#0054ca;stroke-width:0;stroke-opacity:0"
       id="path1287" />
    <ellipse
       style="fill:#ffffff;fill-opacity:1;stroke:#0054ca;stroke-width:0;stroke-opacity:0"
       id="ellipse1289"
       cx="328.02014"
       cy="9.7373381"
       transform="matrix(0.99066967,0.13628499,-0.12187126,0.99254592,0,0)"
       rx="0.57387275"
       ry="0.60628676" />
    <path
       id="path1291"
       style="fill:#ea5e00;fill-opacity:1;stroke:#0054ca;stroke-width:0;stroke-opacity:0"
       d="m 360.6785,83.67672 c -5.80573,-5.43397 -20.30192,-23.403819 -23.55438,-22.879038 -8.41428,1.357636 -3.04713,-6.403495 -7.48558,-8.897057 1.63338,8.561137 -3.37003,10.85664 -0.5267,13.726089 5.40063,5.450238 45.17998,30.79161 31.56666,18.050006 z"
       sodipodi:nodetypes="sscss" />
    <path
       sodipodi:nodetypes="sscss"
       d="m 352.59788,77.892641 c -4.00942,-3.752683 -14.02045,-16.162607 -16.26659,-15.800195 -5.81088,0.937579 -2.10434,-4.422235 -5.16952,-6.144281 1.12801,5.912295 -2.32733,7.497563 -0.36374,9.479196 3.72966,3.763918 31.20116,21.264594 21.79985,12.46528 z"
       style="fill:#ff2a2a;fill-opacity:1;stroke:#0054ca;stroke-width:0;stroke-opacity:0"
       id="path1293" />
    <g
       inkscape:transform-center-y="3.6498703"
       inkscape:transform-center-x="-25.667307"
       transform="matrix(0.98450822,0.17533844,-0.19034797,1.0687853,212.73415,-26.397806)"
       id="g1305">
      <path
         id="path1295"
         style="fill:#f56200;fill-opacity:1;stroke:#0054ca;stroke-width:0;stroke-opacity:0"
         d="m 186.488,61.63429 c -0.13302,1.796734 -6.7867,-1.189285 -18.82703,-0.94446 -6.70286,0.136294 -19.10984,5.706018 -23.31443,5.278479 -5.00839,-0.509272 -16.48129,-1.255316 -17.4653,-3.281652 -1.06949,-2.202342 5.07394,3.115271 1.08184,-11.400922 -0.60063,-2.184016 11.58901,-6.152708 15.42716,-6.433141 12.37842,-0.904426 44.41142,-0.961569 43.09776,16.781696 z"
         sodipodi:nodetypes="sssssss" />
      <path
         sodipodi:nodetypes="sssssss"
         d="m 186.488,61.65463 c -0.13302,1.796734 -6.93287,-4.551135 -18.9732,-4.30631 -6.70286,0.136294 -19.10984,5.706018 -23.31443,5.278479 -5.00839,-0.509272 -17.07104,2.461137 -18.05505,0.434801 -1.06949,-2.202342 5.80986,1.152827 1.81776,-13.363366 -0.60063,-2.184016 11.58901,-6.152708 15.42716,-6.433141 12.37842,-0.904426 44.41142,0.646272 43.09776,18.389537 z"
         style="fill:#ff7f2a;stroke:#0054ca;stroke-width:0;stroke-opacity:0"
         id="path1297" />
      <path
         sodipodi:nodetypes="cccc"
         d="m 184.41092,55.484516 c 4.11361,-1.857383 -15.36611,-13.365216 -42.03998,-11.475328 -6.63348,1.090803 -5.3174,2.623761 -0.72297,3.683402 28.51735,-3.765126 42.24298,7.769777 42.76295,7.791926 z"
         style="fill:#ff9c5a;fill-opacity:1;stroke:#0054ca;stroke-width:0;stroke-opacity:0"
         id="path1299" />
      <path
         id="path1301"
         style="fill:#803300;fill-opacity:1;stroke:#0054ca;stroke-width:0;stroke-opacity:0"
         d="m 186.49426,61.750673 c -0.8324,1.555121 -6.31163,-4.07269 -10.38029,-1.878626 -3.16787,1.708307 -6.44169,-1.446207 -6.47324,-5.757904 -0.0273,-3.735702 2.1389,-5.365699 7.00602,-6.053893 5.15866,-0.729419 11.8532,9.943324 9.84751,13.690423 z"
         sodipodi:nodetypes="sssss" />
      <path
         id="path1303"
         style="fill:#a94300;fill-opacity:1;stroke:#0054ca;stroke-width:0;stroke-opacity:0"
         d="m 184.41092,55.484516 c 2.01791,-0.91113 -1.98356,-4.401 -9.38459,-7.235939 -3.25453,1.107255 -0.62724,-0.137659 -3.27328,1.339796 8.07037,2.495915 12.37986,5.884301 12.65787,5.896143 z"
         sodipodi:nodetypes="cccc" />
    </g>
    <g
       id="g1157"
       transform="matrix(1.4221062,0,0,-0.75035915,364.75414,169.45146)">
      <path
         sodipodi:nodetypes="cccsc"
         d="m 78.756395,93.638106 c 0,0 -3.725043,-36.279276 -17.084196,-40.426137 C 56.08687,37.624465 29.30622,33.142766 37.233726,24.908038 c 14.298185,-2.742804 34.370261,23.803677 36.845966,27.297749 12.054667,17.013284 6.079338,41.71126 4.676703,41.432319 z"
         style="fill:#4b4b4b;fill-opacity:1;stroke:#0054ca;stroke-width:0;stroke-opacity:0"
         id="path1145" />
      <path
         id="path1147"
         style="fill:#4b4b4b;fill-opacity:1;stroke:#0054ca;stroke-width:0;stroke-opacity:0"
         d="m 80.44749,96.382801 c 0,0 0.687603,-25.150032 -6.629274,-28.418277 C 71.835049,57.037493 56.869568,53.129817 62.04218,47.688146 c 8.388923,-1.45781 17.804675,17.472883 18.948959,19.959504 5.571688,12.107806 0.236739,28.970327 -0.543649,28.735151 z"
         sodipodi:nodetypes="cccsc" />
      <path
         sodipodi:nodetypes="csscscscscssc"
         d="m 78.239365,93.647657 c 0,0 -10.570551,-3.382062 -23.805918,-7.569883 -9.58845,-3.033894 -23.275437,-7.45303 -22.468833,-12.016832 0.244101,-1.38113 14.346202,-6.448148 15.729532,2.174169 0,0 -14.872747,-9.347984 -14.94724,-10.601011 -0.509733,-8.574215 17.701844,1.171906 18.292977,3.817306 0,0 -18.218767,-6.909058 -17.655704,-16.810774 0.434286,-7.637109 20.996678,7.209669 21.721283,10.708302 0,0 -23.779227,-17.172674 -21.083201,-24.263644 2.401728,-6.316916 26.445299,14.814856 26.445299,14.814856 0,0 -31.936483,-23.142462 -24.387847,-28.490704 6.8775,-4.87274 34.093667,26.024661 36.608968,29.351786 12.24747,16.200392 6.936733,39.17969 5.550684,38.886429 z"
         style="fill:#1a1a1a;fill-opacity:1;stroke:#0054ca;stroke-width:0;stroke-opacity:0"
         id="path1149" />
      <path
         id="path1151"
         style="fill:#333333;fill-opacity:1;stroke:#0054ca;stroke-width:0;stroke-opacity:0"
         d="m 78.002567,94.286593 c 0,0 -9.851226,-3.028139 -22.155245,-6.875959 -8.948943,-2.798592 -21.80353,-8.139594 -20.765826,-11.371393 1.001994,-3.120581 16.612617,-4.430494 14.72304,1.710145 0,0 -12.533104,-9.066622 -12.595451,-10.318753 -0.33626,-6.753171 15.408225,1.724201 15.94282,3.422205 0.372676,-0.301622 -14.952233,-7.833492 -16.098156,-16.317979 -0.799017,-5.915969 19.440196,7.207345 20.10199,10.082563 0.887059,-0.01917 -21.599397,-16.837088 -19.09857,-23.68336 1.425664,-3.902902 24.4387,14.466603 24.420915,14.056499 0.595988,-0.360506 -32.691057,-24.61661 -26.112481,-29.790308 6.556712,-5.156505 35.310602,27.03051 37.576258,30.289249 11.031901,15.867409 5.355035,39.049661 4.060706,38.797091 z"
         sodipodi:nodetypes="csscscscscssc" />
      <path
         id="path1153"
         style="fill:#1a1a1a;fill-opacity:1;stroke:#0054ca;stroke-width:0;stroke-opacity:0"
         d="m 80.151103,96.37366 c 0,0 -5.781727,-2.65561 -13.024647,-5.948358 -5.247178,-2.385453 -12.730377,-5.851574 -11.914701,-8.97656 0.246849,-0.945702 8.704157,-4.013441 8.82551,1.978995 0,0 -7.778432,-6.903646 -7.723712,-7.770639 0.374447,-5.932662 10.031147,1.347329 10.16371,3.190931 0,0 -9.881153,-5.322322 -8.790168,-12.138465 0.84147,-5.257231 11.446257,5.614298 11.588874,8.050785 0,0 -12.263578,-12.574527 -10.17123,-17.38605 1.863949,-4.286291 13.971198,11.02849 13.971198,11.02849 0,0 -16.464369,-16.942525 -11.73258,-20.40373 4.311093,-3.153476 17.474024,18.997191 18.653904,21.369802 5.745068,11.552688 0.92363,27.249353 0.153842,27.004799 z"
         sodipodi:nodetypes="csscscscscssc" />
      <path
         sodipodi:nodetypes="csscscscscssc"
         d="m 79.966073,96.807392 c 0,0 -5.39789,-2.389479 -12.134657,-5.419252 -4.899778,-2.203611 -11.8354,-6.280596 -10.991029,-8.479319 0.815314,-2.123061 9.843423,-2.552084 8.286023,1.628142 0,0 -6.462443,-6.638292 -6.400848,-7.504297 0.332209,-4.670661 8.676729,1.658691 8.850542,2.846763 0.236525,-0.196813 -7.941507,-5.860897 -7.937812,-11.750993 0.0026,-4.10698 10.556421,5.565338 10.711536,7.56969 0.508722,0.01376 -11.043182,-12.276613 -9.081456,-16.925207 1.118332,-2.650056 12.850832,10.727103 12.872522,10.443548 0.368788,-0.230658 -16.781353,-17.982809 -12.617814,-21.353073 4.149701,-3.359064 18.091762,19.728362 19.134205,22.046185 5.075859,11.285911 0.02929,27.111495 -0.691212,26.897813 z"
         style="fill:#333333;fill-opacity:1;stroke:#0054ca;stroke-width:0;stroke-opacity:0"
         id="path1155" />
    </g>
    <path
       sodipodi:nodetypes="csscscscscssc"
       d="m 698.53956,101.00835 c 0,0 -14.80356,-1.00323 -33.32604,-2.218109 -13.41874,-0.880128 -32.59784,-2.214328 -32.80995,-6.38413 -0.0642,-1.261893 17.0197,-8.359176 21.23307,-1.024474 0,0 -22.10563,-5.453195 -22.55199,-6.542743 -3.05432,-7.455577 23.54071,-2.275647 25.05204,-0.05645 0,0 -25.81503,-2.680146 -27.83184,-11.505236 -1.55556,-6.806718 29.54169,2.425807 31.46549,5.371462 0,0 -35.9631,-10.67973 -34.40059,-17.428109 1.39196,-6.011726 38.80337,8.105162 38.80337,8.105162 0,0 -48.32188,-14.412754 -39.9106,-20.533152 7.66344,-5.576241 51.95284,16.547868 56.17727,19.007877 20.56951,11.978271 19.99907,33.207162 18.09977,33.207902 z"
       style="fill:#1a1a1a;fill-opacity:1;stroke:#0054ca;stroke-width:0;stroke-opacity:0"
       id="path1311"
       inkscape:transform-center-x="28.360289"
       inkscape:transform-center-y="-18.389039" />
    <path
       id="path1313"
       style="fill:#da5800;fill-opacity:1;stroke:#0054ca;stroke-width:0;stroke-opacity:0"
       d="m 703.60103,122.99279 c -3.78912,-3.90939 -7.10866,-3.24884 -5.23349,-3.08381 3.05547,0.26893 7.76555,6.23782 4.20556,6.99932 -0.93254,0.19947 -7.93342,-3.79821 -6.44131,-3.23423 1.09126,0.41246 8.68386,6.5178 4.50681,7.38698 -2.27157,0.47269 -8.17325,-6.38035 -14.57148,-5.8874 -1.91721,0.14774 -5.59531,5.43761 -6.11405,1.89853 -0.33266,-2.2695 5.55679,-11.1599 13.79284,-11.76536 11.07544,-0.81421 13.08307,11.01639 9.85512,7.68597 z"
       sodipodi:nodetypes="sssssssss" />
    <path
       id="path1315"
       style="fill:#1a1a1a;fill-opacity:1;stroke:#0054ca;stroke-width:0;stroke-opacity:0"
       d="m 714.79449,72.756089 c 5.6253,13.573844 3.92851,40.627681 -28.62605,49.617991 -23.10157,6.37977 -57.7821,2.03293 -51.37838,-9.40775 5.724,-10.22623 15.22435,-19.007219 37.3696,-29.17582 22.32278,-10.250111 41.2955,-14.266246 42.63483,-11.034421 z"
       sodipodi:nodetypes="sssss" />
    <path
       id="path1317"
       style="fill:#1a1a1a;fill-opacity:1;stroke:#0054ca;stroke-width:0;stroke-opacity:0"
       d="m 646.31986,108.49893 c -2.47167,-4.52003 -12.48304,1.03595 -18.94726,4.95924 -6.46425,3.92328 -15.02627,5.57035 -12.55459,10.09039 2.47167,4.52003 11.27839,2.31129 17.7426,-1.61199 6.46424,-3.92328 16.23093,-8.91762 13.75925,-13.43764 z"
       sodipodi:nodetypes="sssss"
       inkscape:transform-center-x="13.307196"
       inkscape:transform-center-y="6.6447843" />
    <path
       inkscape:transform-center-y="5.7882752"
       inkscape:transform-center-x="12.405847"
       sodipodi:nodetypes="sssss"
       d="m 646.34643,110.76308 c -2.30426,-3.93741 -11.63753,0.90242 -17.6639,4.32 -6.02639,3.41758 -14.00848,4.85234 -11.70422,8.78976 2.30427,3.93739 10.51446,2.01336 16.54083,-1.40421 6.02639,-3.41758 15.13155,-7.76815 12.82729,-11.70555 z"
       style="fill:#333333;fill-opacity:1;stroke:#0054ca;stroke-width:0;stroke-opacity:0"
       id="path1319" />
    <path
       sodipodi:nodetypes="ssssss"
       d="m 726.94509,70.123428 c -7.46006,13.780981 -10.84419,33.364712 -14.69941,34.941232 -4.81905,1.97066 -13.43399,-12.761296 -13.26927,-25.926594 0.045,-3.593946 10.233,-7.787122 10.233,-11.617157 0,-17.860172 6.35527,-24.834072 12.9644,-24.338371 13.93432,1.04511 8.87961,19.35157 4.77128,26.94089 z"
       style="fill:#1a1a1a;fill-opacity:1;stroke:#0054ca;stroke-width:0;stroke-opacity:0"
       id="path1321" />
    <path
       sodipodi:nodetypes="sssss"
       d="m 714.79449,72.756089 c 5.6253,13.573844 3.92851,40.627671 -28.62605,49.617991 -23.10157,6.37977 -60.04073,1.66236 -49.41438,-8.91675 9.43061,-9.38861 14.46336,-17.755219 36.58401,-27.899213 22.32787,-10.239022 40.11709,-16.033853 41.45642,-12.802028 z"
       style="fill:#333333;fill-opacity:1;stroke:#0054ca;stroke-width:0;stroke-opacity:0"
       id="path1323" />
    <path
       inkscape:transform-center-y="7.1454286"
       inkscape:transform-center-x="11.631612"
       sodipodi:nodetypes="sssss"
       d="m 649.8709,114.05743 c -3.12867,-3.05467 -11.73349,2.8458 -17.23226,6.91284 -5.49877,4.06705 -13.38702,6.73607 -10.25834,9.79075 3.12868,3.05469 11.15462,-0.0847 16.6534,-4.1517 5.49879,-4.06704 13.96588,-9.49721 10.8372,-12.55189 z"
       style="fill:#1a1a1a;fill-opacity:1;stroke:#0054ca;stroke-width:0;stroke-opacity:0"
       id="path1325" />
    <path
       id="path1327"
       style="fill:#333333;fill-opacity:1;stroke:#0054ca;stroke-width:0;stroke-opacity:0"
       d="m 649.95614,113.97854 c -2.73323,-2.76963 -11.41837,2.28826 -16.22213,5.9758 -4.80376,3.68753 -8.04358,5.56155 -8.67963,9.40041 -0.89625,5.40926 10.45529,-0.18068 15.43431,-3.9956 4.80711,-3.6832 12.20068,-8.61098 9.46745,-11.38061 z"
       sodipodi:nodetypes="sssss"
       inkscape:transform-center-x="10.161451"
       inkscape:transform-center-y="6.4786566" />
    <path
       sodipodi:nodetypes="sssss"
       d="m 717.22557,91.162797 c -0.85287,0.136488 2.2742,21.296113 -31.05713,31.211283 -22.8794,6.80601 -40.96255,5.66719 -47.73176,-1.94088 -0.59223,-0.6656 20.31622,-16.56624 39.10607,-22.577189 24.74417,-7.915755 42.38111,-7.125035 39.68282,-6.693214 z"
       style="fill:#ffffff;fill-opacity:1;stroke:#0054ca;stroke-width:0;stroke-opacity:0"
       id="path1329" />
    <path
       id="path1331"
       style="fill:#1a1a1a;fill-opacity:1;stroke:#0054ca;stroke-width:0;stroke-opacity:0"
       d="m 654.04228,113.62755 c -3.71765,-2.30188 -10.8348,5.32733 -15.3185,10.492 -4.4837,5.16469 -11.60351,9.48396 -7.88586,11.78583 3.71765,2.30189 10.86972,-2.50639 15.35344,-7.67107 4.4837,-5.16468 11.56859,-12.30489 7.85092,-14.60676 z"
       sodipodi:nodetypes="sssss"
       inkscape:transform-center-x="9.8227773"
       inkscape:transform-center-y="9.3978606" />
    <path
       inkscape:transform-center-y="9.338957"
       inkscape:transform-center-x="8.7452009"
       sodipodi:nodetypes="sssss"
       d="m 654.15658,113.77089 c -3.30982,-2.28744 -11.39807,3.98004 -15.38989,9.11234 -3.99184,5.13232 -9.01177,10.08887 -5.70195,12.37631 3.30981,2.28747 10.11034,-1.84113 14.10218,-6.97344 3.99183,-5.1323 10.2995,-12.22776 6.98966,-14.51521 z"
       style="fill:#333333;fill-opacity:1;stroke:#0054ca;stroke-width:0;stroke-opacity:0"
       id="path1333" />
    <path
       sodipodi:nodetypes="sssss"
       d="m 717.22557,91.162797 c -0.85287,0.136488 1.79794,19.867353 -31.53338,29.782523 -22.87941,6.80601 -40.4863,7.09595 -47.25551,-0.51212 -0.59223,-0.6656 20.31622,-16.56624 39.10607,-22.577189 24.74417,-7.915755 42.38111,-7.125035 39.68282,-6.693214 z"
       style="fill:#d1d1d1;fill-opacity:1;stroke:#0054ca;stroke-width:0;stroke-opacity:0"
       id="path1335" />
    <path
       id="path1337"
       style="fill:#1a1a1a;fill-opacity:1;stroke:#0054ca;stroke-width:0;stroke-opacity:0"
       d="m 708.77263,43.355728 c 0,0 5.05552,-0.243954 9.29417,3.607316 0.51435,1.399966 -0.23865,1.816112 -1.35944,1.47287 -4.59971,-4.321506 -7.93473,-5.080186 -7.93473,-5.080186 z"
       sodipodi:nodetypes="cccc" />
    <path
       sodipodi:nodetypes="cccc"
       d="m 706.56028,51.384384 c 0,0 2.92737,-3.78776 8.55195,-4.192273 1.41152,0.588125 1.27237,1.411839 0.31281,1.980088 -6.21483,0.341828 -8.86476,2.212185 -8.86476,2.212185 z"
       style="fill:#1a1a1a;fill-opacity:1;stroke:#0054ca;stroke-width:0;stroke-opacity:0"
       id="path1339" />
    <path
       id="path1341"
       style="fill:#1a1a1a;fill-opacity:1;stroke:#0054ca;stroke-width:0;stroke-opacity:0"
       d="m 706.66266,56.352427 c 0,0 1.82747,-4.440703 7.06508,-6.157973 1.48762,0.25285 1.56245,1.102113 0.79428,1.890128 -5.81365,1.793226 -7.85936,4.267845 -7.85936,4.267845 z"
       sodipodi:nodetypes="cccc" />
    <path
       sodipodi:nodetypes="cccc"
       d="m 706.58816,56.537339 c 0,0 1.42084,-4.605209 6.45411,-6.758121 1.49426,0.131505 1.64241,0.977446 0.95103,1.831054 -5.5967,2.276414 -7.40514,4.927067 -7.40514,4.927067 z"
       style="fill:#333333;fill-opacity:1;stroke:#0054ca;stroke-width:0;stroke-opacity:0"
       id="path1343" />
    <path
       id="path1345"
       style="fill:#333333;fill-opacity:1;stroke:#0054ca;stroke-width:0;stroke-opacity:0"
       d="m 706.43996,51.542488 c 0,0 2.5655,-4.03908 8.09691,-4.904955 1.44856,0.474502 1.38299,1.312186 0.48306,1.960703 -6.12107,0.85126 -8.57997,2.944252 -8.57997,2.944252 z"
       sodipodi:nodetypes="cccc" />
    <path
       sodipodi:nodetypes="cccc"
       d="m 708.5629,43.367282 c 0,0 5.00377,-0.666055 9.54504,2.827224 0.63068,1.355576 -0.0823,1.834221 -1.22547,1.584957 -4.94022,-3.932877 -8.31957,-4.412181 -8.31957,-4.412181 z"
       style="fill:#333333;fill-opacity:1;stroke:#0054ca;stroke-width:0;stroke-opacity:0"
       id="path1347" />
    <g
       id="g1361"
       transform="matrix(0.8644334,-0.45126234,0.58887841,0.66242239,554.31071,71.699108)"
       inkscape:transform-center-x="39.065616"
       inkscape:transform-center-y="-11.000875">
      <path
         sodipodi:nodetypes="cccsc"
         d="m 78.756395,93.638106 c 0,0 -3.725043,-36.279276 -17.084196,-40.426137 C 56.08687,37.624465 29.30622,33.142766 37.233726,24.908038 c 14.298185,-2.742804 34.370261,23.803677 36.845966,27.297749 12.054667,17.013284 6.079338,41.71126 4.676703,41.432319 z"
         style="fill:#4b4b4b;fill-opacity:1;stroke:#0054ca;stroke-width:0;stroke-opacity:0"
         id="path1349" />
      <path
         id="path1351"
         style="fill:#4b4b4b;fill-opacity:1;stroke:#0054ca;stroke-width:0;stroke-opacity:0"
         d="m 80.44749,96.382801 c 0,0 0.687603,-25.150032 -6.629274,-28.418277 C 71.835049,57.037493 56.869568,53.129817 62.04218,47.688146 c 8.388923,-1.45781 17.804675,17.472883 18.948959,19.959504 5.571688,12.107806 0.236739,28.970327 -0.543649,28.735151 z"
         sodipodi:nodetypes="cccsc" />
      <path
         sodipodi:nodetypes="csscscscscssc"
         d="m 78.239365,93.647657 c 0,0 -10.570551,-3.382062 -23.805918,-7.569883 -9.58845,-3.033894 -23.275437,-7.45303 -22.468833,-12.016832 0.244101,-1.38113 14.346202,-6.448148 15.729532,2.174169 0,0 -14.872747,-9.347984 -14.94724,-10.601011 -0.509733,-8.574215 17.701844,1.171906 18.292977,3.817306 0,0 -18.218767,-6.909058 -17.655704,-16.810774 0.434286,-7.637109 20.996678,7.209669 21.721283,10.708302 0,0 -23.779227,-17.172674 -21.083201,-24.263644 2.401728,-6.316916 26.445299,14.814856 26.445299,14.814856 0,0 -31.936483,-23.142462 -24.387847,-28.490704 6.8775,-4.87274 34.093667,26.024661 36.608968,29.351786 12.24747,16.200392 6.936733,39.17969 5.550684,38.886429 z"
         style="fill:#1a1a1a;fill-opacity:1;stroke:#0054ca;stroke-width:0;stroke-opacity:0"
         id="path1353" />
      <path
         id="path1355"
         style="fill:#333333;fill-opacity:1;stroke:#0054ca;stroke-width:0;stroke-opacity:0"
         d="m 78.002567,94.286593 c 0,0 -9.851226,-3.028139 -22.155245,-6.875959 -8.948943,-2.798592 -21.80353,-8.139594 -20.765826,-11.371393 1.001994,-3.120581 16.612617,-4.430494 14.72304,1.710145 0,0 -12.533104,-9.066622 -12.595451,-10.318753 -0.33626,-6.753171 15.408225,1.724201 15.94282,3.422205 0.372676,-0.301622 -14.952233,-7.833492 -16.098156,-16.317979 -0.799017,-5.915969 19.440196,7.207345 20.10199,10.082563 0.887059,-0.01917 -21.599397,-16.837088 -19.09857,-23.68336 1.425664,-3.902902 24.4387,14.466603 24.420915,14.056499 0.595988,-0.360506 -32.691057,-24.61661 -26.112481,-29.790308 6.556712,-5.156505 35.310602,27.03051 37.576258,30.289249 11.031901,15.867409 5.355035,39.049661 4.060706,38.797091 z"
         sodipodi:nodetypes="csscscscscssc" />
      <path
         id="path1357"
         style="fill:#1a1a1a;fill-opacity:1;stroke:#0054ca;stroke-width:0;stroke-opacity:0"
         d="m 80.151103,96.37366 c 0,0 -5.781727,-2.65561 -13.024647,-5.948358 -5.247178,-2.385453 -12.730377,-5.851574 -11.914701,-8.97656 0.246849,-0.945702 8.704157,-4.013441 8.82551,1.978995 0,0 -7.778432,-6.903646 -7.723712,-7.770639 0.374447,-5.932662 10.031147,1.347329 10.16371,3.190931 0,0 -9.881153,-5.322322 -8.790168,-12.138465 0.84147,-5.257231 11.446257,5.614298 11.588874,8.050785 0,0 -12.263578,-12.574527 -10.17123,-17.38605 1.863949,-4.286291 13.971198,11.02849 13.971198,11.02849 0,0 -16.464369,-16.942525 -11.73258,-20.40373 4.311093,-3.153476 17.474024,18.997191 18.653904,21.369802 5.745068,11.552688 0.92363,27.249353 0.153842,27.004799 z"
         sodipodi:nodetypes="csscscscscssc" />
      <path
         sodipodi:nodetypes="csscscscscssc"
         d="m 79.966073,96.807392 c 0,0 -5.39789,-2.389479 -12.134657,-5.419252 -4.899778,-2.203611 -11.8354,-6.280596 -10.991029,-8.479319 0.815314,-2.123061 9.843423,-2.552084 8.286023,1.628142 0,0 -6.462443,-6.638292 -6.400848,-7.504297 0.332209,-4.670661 8.676729,1.658691 8.850542,2.846763 0.236525,-0.196813 -7.941507,-5.860897 -7.937812,-11.750993 0.0026,-4.10698 10.556421,5.565338 10.711536,7.56969 0.508722,0.01376 -11.043182,-12.276613 -9.081456,-16.925207 1.118332,-2.650056 12.850832,10.727103 12.872522,10.443548 0.368788,-0.230658 -16.781353,-17.982809 -12.617814,-21.353073 4.149701,-3.359064 18.091762,19.728362 19.134205,22.046185 5.075859,11.285911 0.02929,27.111495 -0.691212,26.897813 z"
         style="fill:#333333;fill-opacity:1;stroke:#0054ca;stroke-width:0;stroke-opacity:0"
         id="path1359" />
    </g>
    <path
       id="path1363"
       style="fill:#333333;fill-opacity:1;stroke:#0054ca;stroke-width:0;stroke-opacity:0"
       d="m 727.14087,70.614149 c -7.12666,13.588421 -12.32104,31.875121 -16.00396,33.429611 -4.60368,1.94313 -10.87212,-11.559592 -10.71476,-24.540933 0.043,-3.543728 9.77567,-7.678314 9.77567,-11.454832 0,-17.610614 6.07125,-24.487068 12.38501,-23.998294 13.31157,1.030507 8.48277,19.081173 4.55804,26.564448 z"
       sodipodi:nodetypes="ssssss" />
    <path
       id="path1365"
       style="fill:#d1d1d1;fill-opacity:1;stroke:#0054ca;stroke-width:0;stroke-opacity:0"
       d="m 725.48786,70.614149 c -6.05799,13.764681 -10.20405,33.515381 -13.96471,36.299851 -5.17583,3.83229 -23.16616,-12.745896 -6.93661,-15.569624 3.29916,-0.57401 8.40222,-18.324844 9.01714,-22.318638 2.67606,-17.380646 0.39817,-20.46746 6.3544,-19.978686 12.55779,1.030507 8.90001,13.909423 5.52978,21.567097 z"
       sodipodi:nodetypes="ssssss" />
    <path
       id="path1367"
       style="fill:#ffffff;fill-opacity:1;stroke:#0054ca;stroke-width:0;stroke-opacity:0"
       d="m 727.90928,71.671609 c -6.17725,14.012506 -14.52651,37.641901 -20.442,39.100201 -7.27148,1.79257 -15.78383,-6.08352 -11.47195,-12.931631 1.17647,-1.868465 5.96191,-3.092111 10.47529,-4.807425 3.30539,-1.256217 8.22004,-18.946891 8.87036,-22.955415 2.83011,-17.444748 0.42109,-20.542947 6.7202,-20.05237 13.28069,1.034307 9.2656,13.89436 5.8481,21.64664 z"
       sodipodi:nodetypes="sssssss" />
    <path
       sodipodi:nodetypes="sssssss"
       d="m 727.22068,71.230555 c -6.33584,13.525433 -14.85642,33.131265 -17.38037,35.771825 -4.35702,4.55831 -18.08307,-3.4264 -13.86194,-10.135281 1.15171,-1.830477 5.83644,-3.029246 10.25483,-4.709686 3.23583,-1.230677 8.04705,-18.561687 8.68369,-22.488715 2.77055,-17.090084 0.41222,-20.125294 6.57877,-19.644691 13.00119,1.013279 9.24541,13.691407 5.72502,21.206548 z"
       style="fill:#e6e6e6;fill-opacity:1;stroke:#0054ca;stroke-width:0;stroke-opacity:0"
       id="path1369" />
    <path
       sodipodi:nodetypes="ssssss"
       d="m 731.99785,56.269846 c -1.12944,2.680549 4.80064,11.947673 0.0593,13.513526 -1.2617,0.41669 -4.46331,-0.81161 -7.34199,-1.542686 -15.16788,-3.852069 -11.78731,-10.736135 -8.92123,-16.067325 2.17521,-4.04611 7.19089,-5.113688 10.92396,-2.412374 3.82869,2.770514 6.59761,3.381489 5.27991,6.508859 z"
       style="fill:#ffd52d;fill-opacity:1;stroke:#0054ca;stroke-width:0;stroke-opacity:0"
       id="path1371" />
    <path
       id="path1373"
       style="fill:#e6e6e6;fill-opacity:1;stroke:#0054ca;stroke-width:0;stroke-opacity:0"
       d="m 715.4793,92.115301 c 2.17845,-6.919338 3.48486,20.287329 -29.78711,28.830019 -23.41483,6.01183 -36.66332,8.1166 -43.28673,-0.51212 -0.54248,-0.70673 18.25245,-14.66123 37.04231,-20.672169 24.74417,-7.91576 35.21091,-5.039228 36.03153,-7.64573 z"
       sodipodi:nodetypes="sssss" />
    <path
       sodipodi:nodetypes="sssssssss"
       d="m 689.99149,127.78147 c -3.78912,-3.90939 -7.10866,-3.24885 -5.23349,-3.08382 3.05547,0.26893 7.76555,6.23781 4.20556,6.99931 -0.93254,0.19948 -7.93342,-3.7982 -6.44131,-3.23423 1.09126,0.41247 8.68386,6.5178 4.50681,7.387 -2.27157,0.47268 -8.17325,-6.38037 -14.57148,-5.8874 -1.91721,0.14772 -5.59531,5.43761 -6.11406,1.89851 -0.33266,-2.2695 5.5568,-11.15989 13.79285,-11.76535 11.07544,-0.8142 13.08307,11.0164 9.85512,7.68598 z"
       style="fill:#ea5e00;fill-opacity:1;stroke:#0054ca;stroke-width:0;stroke-opacity:0"
       id="path1375" />
    <path
       sodipodi:nodetypes="ssssss"
       d="m 731.46868,54.682345 c -1.12944,2.680549 4.80064,11.947673 0.0593,13.513526 -1.2617,0.41669 -4.46331,-0.81161 -7.34199,-1.542686 -15.16788,-3.852069 -11.78731,-10.736135 -8.92123,-16.067325 2.17521,-4.04611 7.19089,-5.113688 10.92396,-2.412374 3.82869,2.770514 6.59761,3.381489 5.27991,6.508859 z"
       style="fill:#deb200;fill-opacity:1;stroke:#0054ca;stroke-width:0;stroke-opacity:0"
       id="path1377" />
    <path
       id="path1379"
       style="fill:#ffcc00;fill-opacity:1;stroke:#0054ca;stroke-width:0;stroke-opacity:0"
       d="m 731.99785,55.211512 c -1.12944,2.680549 4.80064,11.947673 0.0593,13.513526 -1.2617,0.41669 -4.46331,-0.81161 -7.34199,-1.542686 -15.16788,-3.852069 -11.78731,-10.736135 -8.92123,-16.067325 2.17521,-4.04611 7.19089,-5.113688 10.92396,-2.412374 3.82869,2.770514 6.59761,3.381489 5.27991,6.508859 z"
       sodipodi:nodetypes="ssssss" />
    <ellipse
       style="fill:#d4a900;fill-opacity:1;stroke:#0054ca;stroke-width:0;stroke-opacity:0"
       id="ellipse1381"
       cx="680.50208"
       cy="-243.02274"
       rx="5.872304"
       ry="6.6605673"
       transform="matrix(0.91324892,0.40740203,-0.41633403,0.90921173,0,0)" />
    <ellipse
       transform="rotate(24.320493)"
       ry="6.444406"
       rx="5.5992379"
       cy="-245.68541"
       cx="682.28308"
       id="ellipse1383"
       style="fill:url(#radialGradient1409);fill-opacity:1;stroke:#0054ca;stroke-width:0;stroke-opacity:0" />
    <ellipse
       transform="matrix(0.92164958,0.38802326,-0.3199855,0.94742244,0,0)"
       ry="3.4487779"
       rx="2.6231081"
       cy="-229.32126"
       cx="706.22986"
       id="ellipse1385"
       style="fill:#000000;stroke:#0054ca;stroke-width:0;stroke-opacity:0" />
    <path
       sodipodi:nodetypes="sscss"
       d="m 761.41442,87.251252 c 10.60577,2.29968 -19.61326,-10.327389 -23.79969,-15.519875 -5.34959,-6.635147 -3.53774,-12.04552 -7.97619,-14.539082 1.63338,8.561137 -3.25546,12.635214 -0.0361,15.075269 6.9227,5.2469 17.42587,11.864308 31.81197,14.983688 z"
       style="fill:#f56200;fill-opacity:1;stroke:#0054ca;stroke-width:0;stroke-opacity:0"
       id="path1387" />
    <path
       id="path1389"
       style="fill:#ff7f2a;stroke:#0054ca;stroke-width:0;stroke-opacity:0"
       d="m 761.90503,87.051487 c 10.34428,3.281295 -20.10387,-11.185958 -24.2903,-16.378444 -5.34959,-6.635147 -3.53774,-12.04552 -7.97619,-14.539082 1.63338,8.561137 -3.94507,11.573642 -0.5267,13.726089 7.87103,4.956159 18.65224,12.705808 32.79319,17.191437 z"
       sodipodi:nodetypes="sscss" />
    <ellipse
       ry="0.60628676"
       rx="0.57387275"
       transform="matrix(0.99066967,0.13628499,-0.12187126,0.99254592,0,0)"
       cy="-44.782417"
       cx="725.08044"
       id="ellipse1391"
       style="fill:#ffffff;fill-opacity:1;stroke:#0054ca;stroke-width:0;stroke-opacity:0" />
    <path
       sodipodi:nodetypes="sscss"
       d="m 760.6785,83.67672 c -5.80573,-5.43397 -20.30192,-23.403819 -23.55438,-22.879038 -8.41428,1.357636 -3.04713,-6.403495 -7.48558,-8.897057 1.63338,8.561137 -3.37003,10.85664 -0.5267,13.726089 5.40063,5.450238 45.17998,30.79161 31.56666,18.050006 z"
       style="fill:#ea5e00;fill-opacity:1;stroke:#0054ca;stroke-width:0;stroke-opacity:0"
       id="path1393" />
    <path
       id="path1395"
       style="fill:#ff2a2a;fill-opacity:1;stroke:#0054ca;stroke-width:0;stroke-opacity:0"
       d="m 752.59788,77.892641 c -4.00942,-3.752683 -14.02045,-16.162607 -16.26659,-15.800195 -5.81088,0.937579 -2.10434,-4.422235 -5.16952,-6.144281 1.12801,5.912295 -2.32733,7.497563 -0.36374,9.479196 3.72966,3.763918 31.20116,21.264594 21.79985,12.46528 z"
       sodipodi:nodetypes="sscss" />
    <g
       id="g1407"
       transform="matrix(0.98450822,0.17533844,-0.19034797,1.0687853,612.73415,-26.397806)"
       inkscape:transform-center-x="-25.667307"
       inkscape:transform-center-y="3.6498703">
      <path
         sodipodi:nodetypes="sssssss"
         d="m 186.488,61.63429 c -0.13302,1.796734 -6.7867,-1.189285 -18.82703,-0.94446 -6.70286,0.136294 -19.10984,5.706018 -23.31443,5.278479 -5.00839,-0.509272 -16.48129,-1.255316 -17.4653,-3.281652 -1.06949,-2.202342 5.07394,3.115271 1.08184,-11.400922 -0.60063,-2.184016 11.58901,-6.152708 15.42716,-6.433141 12.37842,-0.904426 44.41142,-0.961569 43.09776,16.781696 z"
         style="fill:#f56200;fill-opacity:1;stroke:#0054ca;stroke-width:0;stroke-opacity:0"
         id="path1397" />
      <path
         id="path1399"
         style="fill:#ff7f2a;stroke:#0054ca;stroke-width:0;stroke-opacity:0"
         d="m 186.488,61.65463 c -0.13302,1.796734 -6.93287,-4.551135 -18.9732,-4.30631 -6.70286,0.136294 -19.10984,5.706018 -23.31443,5.278479 -5.00839,-0.509272 -17.07104,2.461137 -18.05505,0.434801 -1.06949,-2.202342 5.80986,1.152827 1.81776,-13.363366 -0.60063,-2.184016 11.58901,-6.152708 15.42716,-6.433141 12.37842,-0.904426 44.41142,0.646272 43.09776,18.389537 z"
         sodipodi:nodetypes="sssssss" />
      <path
         id="path1401"
         style="fill:#ff9c5a;fill-opacity:1;stroke:#0054ca;stroke-width:0;stroke-opacity:0"
         d="m 184.41092,55.484516 c 4.11361,-1.857383 -15.36611,-13.365216 -42.03998,-11.475328 -6.63348,1.090803 -5.3174,2.623761 -0.72297,3.683402 28.51735,-3.765126 42.24298,7.769777 42.76295,7.791926 z"
         sodipodi:nodetypes="cccc" />
      <path
         sodipodi:nodetypes="sssss"
         d="m 186.49426,61.750673 c -0.8324,1.555121 -6.31163,-4.07269 -10.38029,-1.878626 -3.16787,1.708307 -6.44169,-1.446207 -6.47324,-5.757904 -0.0273,-3.735702 2.1389,-5.365699 7.00602,-6.053893 5.15866,-0.729419 11.8532,9.943324 9.84751,13.690423 z"
         style="fill:#803300;fill-opacity:1;stroke:#0054ca;stroke-width:0;stroke-opacity:0"
         id="path1403" />
      <path
         sodipodi:nodetypes="cccc"
         d="m 184.41092,55.484516 c 2.01791,-0.91113 -1.98356,-4.401 -9.38459,-7.235939 -3.25453,1.107255 -0.62724,-0.137659 -3.27328,1.339796 8.07037,2.495915 12.37986,5.884301 12.65787,5.896143 z"
         style="fill:#a94300;fill-opacity:1;stroke:#0054ca;stroke-width:0;stroke-opacity:0"
         id="path1405" />
    </g>
  </g>
  <g
     inkscape:groupmode="layer"
     id="layer3"
     inkscape:label="Layer 2"
     style="display:inline;opacity:1" />
  <g
     inkscape:groupmode="layer"
     id="layer4"
     inkscape:label="Layer 3"
     style="display:inline" />
  <g
     style="display:inline;opacity:1"
     inkscape:label="Layer 4"
     id="g1363"
     inkscape:groupmode="layer" />
</svg>
